<?xml version="1.0" standalone="no"?>
<!DOCTYPE svg PUBLIC "-//W3C//DTD SVG 1.1//EN" "http://www.w3.org/Graphics/SVG/1.1/DTD/svg11.dtd" >
<svg xmlns="http://www.w3.org/2000/svg" xmlns:xlink="http://www.w3.org/1999/xlink" version="1.1">
<metadata>
Created by FontForge 20170731 at Mon Apr  1 16:48:10 2019
 By Aleksey,,,
Copyright (c) 2019 by Mathieu Desjardins. All rights reserved.
</metadata>
<defs>
<font id="NeueMachina-Black" horiz-adv-x="1128" >
  <font-face 
    font-family="Neue Machina Black"
    font-weight="900"
    font-stretch="normal"
    units-per-em="1000"
    panose-1="0 0 10 0 0 0 0 0 0 0"
    ascent="800"
    descent="-200"
    x-height="508"
    cap-height="705"
    bbox="-670 -413 1723 1022"
    underline-thickness="50"
    underline-position="-225"
    unicode-range="U+0020-277E"
  />
<missing-glyph horiz-adv-x="483" 
d="M396 735v-965h-306v965h306zM321 670h-159v-31h63v-36h-64v-32h160v32h-63v36h63v31zM258 546h-97v-100h160v32h-63v68zM225 513v-35h-32v35h32zM321 419h-160v-31h64v-36h-64v-32h97v68h63v31zM321 362h-31v-64h-129v-33h160v97zM321 244h-96v-54h33v22h32v-45h-97v77
h-32v-109h160v109zM321 77h-160v-109h160v109zM290 45v-45h-97v45h97zM321 -54h-160v-32h68l-68 -46v-31h160v31h-98l67 46h31v32z" />
    <glyph glyph-name="f_f" unicode="ff" horiz-adv-x="872" 
d="M755 567q-30 0 -45 -13.5t-17 -45.5h146v-168h-146v-172h146v-168h-814v168h129v172h-129v168h133q15 101 86.5 152.5t182.5 51.5h206q61 23 148 23h86v-168h-112zM501 508q0 19 4 49h-78q-65 0 -81 -49h155zM501 168v172h-162v-172h162z" />
    <glyph glyph-name="f_f_i" unicode="ffi" horiz-adv-x="1282" 
d="M1126 168h141v-168h-1242v168h129v172h-129v168h133q15 101 86.5 152.5t182.5 51.5h208q71 40 173 33l169 -10v-155l-196 10q-28 2 -43.5 -17.5t-18.5 -59.5l312 5q45 1 70 -22.5t25 -67.5v-260zM427 557q-65 0 -81 -49h91l91 2q0 17 4 47h-105zM935 168v177l-216 -2
v-175h216zM528 168v173l-69 -1h-120v-172h189z" />
    <glyph glyph-name="f_i" unicode="fi" horiz-adv-x="869" 
d="M714 168h141v-168h-830v168h90v173l-90 -1v168l90 2q2 113 74.5 178.5t205.5 56.5l169 -10v-155l-195 10q-29 2 -44.5 -17.5t-18.5 -59.5l312 5q46 1 71 -22.5t25 -67.5v-260zM522 168v177l-216 -2v-175h216z" />
    <glyph glyph-name=".notdef" horiz-adv-x="483" 
d="M396 735v-965h-306v965h306zM321 670h-159v-31h63v-36h-64v-32h160v32h-63v36h63v31zM258 546h-97v-100h160v32h-63v68zM225 513v-35h-32v35h32zM321 419h-160v-31h64v-36h-64v-32h97v68h63v31zM321 362h-31v-64h-129v-33h160v97zM321 244h-96v-54h33v22h32v-45h-97v77
h-32v-109h160v109zM321 77h-160v-109h160v109zM290 45v-45h-97v45h97zM321 -54h-160v-32h68l-68 -46v-31h160v31h-98l67 46h31v32z" />
    <glyph glyph-name=".null" horiz-adv-x="0" 
 />
    <glyph glyph-name="nonmarkingreturn" horiz-adv-x="333" 
 />
    <glyph glyph-name="space" unicode=" " horiz-adv-x="259" 
 />
    <glyph glyph-name="exclam" unicode="!" horiz-adv-x="371" 
d="M90 705h191l-38 -426h-115zM184 -10q-56 0 -89 34t-33 84q0 48 33 81.5t89 33.5q55 0 90 -33.5t35 -81.5q0 -49 -35 -83.5t-90 -34.5z" />
    <glyph glyph-name="quotedbl" unicode="&#x22;" horiz-adv-x="479" 
d="M65 788h139v-346h-139v346zM276 788h140v-346h-140v346z" />
    <glyph glyph-name="numbersign" unicode="#" 
d="M1064 393h-220l-75 -184h184v-116h-230l-98 -242l-134 53l76 189h-174l-98 -242l-134 53l76 189h-172v116h219l74 184h-182v116h229l107 265l134 -53l-86 -212h175l107 265l134 -53l-86 -212h174v-116zM614 209l74 184h-174l-75 -184h175z" />
    <glyph glyph-name="dollar" unicode="$" horiz-adv-x="805" 
d="M740 201q0 -97 -72 -152t-222 -59v-138h-89v141q-152 12 -222 83t-70 199h191q0 -52 22.5 -78t78.5 -34v130q-53 18 -83 30t-69 32.5t-59 42t-34.5 53.5t-14.5 72q0 89 67 137.5t193 53.5v139h89v-141q130 -13 197.5 -79.5t67.5 -170.5h-191q0 68 -74 81v-107
q49 -17 80.5 -29t76.5 -34.5t71.5 -45t46 -55.5t19.5 -71zM288 515q0 -10 2.5 -15t17.5 -13t49 -20v79q-69 -3 -69 -31zM446 158q60 1 81.5 10t21.5 27t-25 32.5t-78 33.5v-103z" />
    <glyph glyph-name="percent" unicode="%" horiz-adv-x="1265" 
d="M744 801l134 -53l-351 -870l-134 52zM307 261q-107 0 -174.5 70.5t-67.5 171.5t67.5 171.5t174.5 70.5t174.5 -70.5t67.5 -171.5t-67.5 -171.5t-174.5 -70.5zM307 403q43 0 71.5 29.5t28.5 70.5t-28.5 70.5t-71.5 29.5q-44 0 -72.5 -29.5t-28.5 -70.5t28.5 -70.5
t72.5 -29.5zM958 -90q-107 0 -174.5 70.5t-67.5 171.5t67.5 171.5t174.5 70.5t174.5 -70.5t67.5 -171.5t-67.5 -171.5t-174.5 -70.5zM958 52q43 0 72 29.5t29 70.5t-29 70.5t-72 29.5t-72 -29.5t-29 -70.5t29 -70.5t72 -29.5z" />
    <glyph glyph-name="ampersand" unicode="&#x26;" horiz-adv-x="1034" 
d="M969 -13l-150 -103l-129 165q-109 -53 -247 -53q-178 0 -278 68.5t-100 203.5q0 90 55 134.5t125 44.5q84 0 147 -68v47l-157 202l1 77h554v-168h-289l201 -236q36 69 36 167h192q0 -188 -105 -312zM443 164q76 0 137 25l-26 34q-47 60 -91.5 86.5t-97.5 26.5
q-47 0 -78 -19.5t-31 -56.5q0 -52 44.5 -74t142.5 -22z" />
    <glyph glyph-name="quotesingle" unicode="'" horiz-adv-x="269" 
d="M65 788h139v-346h-139v346z" />
    <glyph glyph-name="parenleft" unicode="(" horiz-adv-x="459" 
d="M395 -35v-115q-167 28 -248.5 141t-81.5 287t81.5 286.5t248.5 140.5v-115q-63 -20 -102.5 -50t-58 -73t-24.5 -84.5t-6 -104.5q0 -50 3 -84.5t14.5 -72.5t31.5 -65t55.5 -51t86.5 -40z" />
    <glyph glyph-name="parenright" unicode=")" horiz-adv-x="459" 
d="M65 -35q62 20 101.5 50t58 73.5t24.5 85t6 104.5t-6 104.5t-24.5 84.5t-58 73t-101.5 50v115q166 -28 248 -140.5t82 -286.5q0 -173 -82 -286.5t-248 -141.5v115z" />
    <glyph glyph-name="asterisk" unicode="*" horiz-adv-x="522" 
d="M45 537l35 110l90 -28l56 -45l-21 67v94h115v-94l-23 -68l56 42l89 29l36 -110l-90 -30l-72 1l57 -40l55 -76l-93 -68l-54 75l-22 70l-21 -67l-55 -75l-94 68l56 75l58 42h-69z" />
    <glyph glyph-name="plus" unicode="+" horiz-adv-x="695" 
d="M630 349v-143h-212v-211h-142v211h-211v143h211v211h142v-211h212z" />
    <glyph glyph-name="comma" unicode="," horiz-adv-x="329" 
d="M129 190l135 -36l-104 -381l-135 37z" />
    <glyph glyph-name="hyphen" unicode="-" horiz-adv-x="695" 
d="M65 348h565v-142h-565v142z" />
    <glyph glyph-name="period" unicode="." horiz-adv-x="371" 
d="M184 -10q-56 0 -89 34t-33 84q0 48 33 81.5t89 33.5q55 0 90 -33.5t35 -81.5q0 -49 -35 -83.5t-90 -34.5z" />
    <glyph glyph-name="slash" unicode="/" horiz-adv-x="574" 
d="M396 814l133 -53l-351 -870l-133 53z" />
    <glyph glyph-name="zero" unicode="0" horiz-adv-x="773" 
d="M387 715q164 0 259.5 -98.5t95.5 -263.5t-95.5 -264t-259.5 -99q-165 0 -260.5 99t-95.5 264t95.5 263.5t260.5 98.5zM387 547q-78 0 -121 -48t-43 -146q0 -42 7 -71l243 245q-34 20 -86 20zM387 158q78 0 120.5 48t42.5 147q0 42 -7 71l-243 -246q38 -20 87 -20z" />
    <glyph glyph-name="one" unicode="1" horiz-adv-x="619" 
d="M21 438q69 27 105 54.5t54.5 78t18.5 134.5h369v-705h-191v555l36 103h-46q-4 -65 -11 -109t-25 -92t-47 -80.5t-77.5 -62.5t-117.5 -51z" />
    <glyph glyph-name="two" unicode="2" horiz-adv-x="707" 
d="M35 389q0 163 94 244.5t242 81.5q139 0 221.5 -61t82.5 -170q0 -35 -7.5 -63.5t-19.5 -51t-34.5 -41.5t-44 -33t-57.5 -26.5t-65.5 -21t-77.5 -18t-84 -16t-94 -17t-100 -18.5v-47l117 37h467v-168h-630v335q7 1 70.5 6.5t116.5 14t115.5 23.5t99.5 41.5t37 61.5
q0 25 -24.5 45t-86.5 20q-80 0 -113.5 -38.5t-33.5 -119.5h-191z" />
    <glyph glyph-name="three" unicode="3" horiz-adv-x="726" 
d="M18 269h191q0 -67 33.5 -89t112.5 -22q69 0 102 14t33 48q0 29 -22 45.5t-59 16.5h-98v155h98q71 0 71 50q0 60 -125 60q-76 0 -106 -17.5t-30 -66.5h-191q0 70 26.5 120t74 78t105.5 41t129 13q88 0 155.5 -18.5t110 -60.5t42.5 -103q0 -41 -14 -69t-43 -44t-54.5 -23
t-67.5 -14v-47q90 -9 122 -23q67 -31 67 -124q0 -101 -89.5 -150t-228.5 -49q-345 0 -345 279z" />
    <glyph glyph-name="four" unicode="4" horiz-adv-x="708" 
d="M673 272v-168h-71v-104h-192v104h-365v349q258 14 270 252h192q-4 -183 -113 -291t-303 -132v-46l117 36h202v116h192v-116h71z" />
    <glyph glyph-name="five" unicode="5" horiz-adv-x="743" 
d="M31 262h192q0 -104 156 -104q69 0 98.5 25t29.5 79q0 44 -27 66t-66 22q-78 0 -133 -67l-210 124v298h569v-168h-378v-70l-36 -103l38 -22q26 90 79 128t131 38q95 0 159.5 -61t64.5 -178q0 -139 -85.5 -209t-233.5 -70q-73 0 -134 14.5t-110 45.5t-76.5 85t-27.5 127z
" />
    <glyph glyph-name="six" unicode="6" horiz-adv-x="737" 
d="M45 355q0 84 20.5 151.5t62.5 117.5t112 74t164 17l256 -20v-168l-254 20q-41 4 -77 1t-65 -14t-51.5 -37.5t-35.5 -69.5l-47 -103h47q15 90 82.5 135.5t170.5 45.5q136 0 212.5 -65.5t76.5 -180.5q0 -127 -87.5 -198t-237.5 -71q-166 0 -257.5 90.5t-91.5 274.5z
M236 247q0 -39 36 -64t109 -25q75 0 111 21t36 80q0 50 -36.5 70.5t-109.5 20.5q-82 0 -114 -24.5t-32 -78.5z" />
    <glyph glyph-name="seven" unicode="7" horiz-adv-x="618" 
d="M99 0q0 220 118.5 350.5t326.5 176.5v47l-104 -37h-412v168h562v-270q-160 -59 -223.5 -154t-63.5 -281h-204z" />
    <glyph glyph-name="eight" unicode="8" horiz-adv-x="696" 
d="M8 196q0 156 223 169v46q-33 0 -62.5 6.5t-58 21.5t-45.5 44.5t-17 70.5q0 161 301 161q299 0 299 -161q0 -41 -16.5 -70.5t-45.5 -44.5t-58 -21.5t-62 -6.5v-46q92 -5 157 -46.5t65 -122.5q0 -78 -45 -125t-116.5 -64t-177.5 -17q-79 0 -138 10t-106.5 32.5t-72 63.5
t-24.5 100zM239 515q0 -23 25 -33.5t85 -10.5q58 0 83 10.5t25 33.5q0 24 -25 34.5t-83 10.5q-59 0 -84.5 -10.5t-25.5 -34.5zM199 223q0 -41 35.5 -59.5t114.5 -18.5q78 0 113 18.5t35 59.5q0 80 -148 80q-150 0 -150 -80z" />
    <glyph glyph-name="nine" unicode="9" horiz-adv-x="737" 
d="M692 350q0 -84 -20.5 -151.5t-62.5 -117.5t-112 -74t-164 -17l-256 20v168l254 -20q41 -4 77 -1t65 14t51.5 37.5t35.5 69.5l47 103h-47q-15 -90 -82.5 -135.5t-170.5 -45.5q-136 0 -212.5 65.5t-76.5 180.5q0 127 87.5 198t237.5 71q166 0 257.5 -90.5t91.5 -274.5z
M501 458q0 39 -36 64t-109 25q-75 0 -111 -21t-36 -80q0 -50 36.5 -70.5t109.5 -20.5q82 0 114 24.5t32 78.5z" />
    <glyph glyph-name="colon" unicode=":" horiz-adv-x="371" 
d="M184 277q-56 0 -89 34t-33 84q0 48 33 81.5t89 33.5q55 0 90 -33.5t35 -81.5q0 -50 -35 -84t-90 -34zM184 -10q-56 0 -89 34t-33 84q0 48 33 81.5t89 33.5q55 0 90 -33.5t35 -81.5q0 -49 -35 -83.5t-90 -34.5z" />
    <glyph glyph-name="semicolon" unicode=";" horiz-adv-x="411" 
d="M224 277q-56 0 -89 34t-33 84q0 48 33 81.5t89 33.5q55 0 90 -33.5t35 -81.5q0 -50 -35 -84t-90 -34zM129 190l135 -36l-104 -381l-135 37z" />
    <glyph glyph-name="less" unicode="&#x3c;" horiz-adv-x="704" 
d="M65 178v138l531 213l43 -135l-410 -147l410 -133l-43 -135z" />
    <glyph glyph-name="equal" unicode="=" horiz-adv-x="695" 
d="M65 462h565v-142h-565v142zM65 235h565v-142h-565v142z" />
    <glyph glyph-name="greater" unicode="&#x3e;" horiz-adv-x="704" 
d="M639 178l-531 -199l-43 135l410 133l-410 147l43 135l531 -213v-138z" />
    <glyph glyph-name="question" unicode="?" horiz-adv-x="556" 
d="M45 553q0 88 60 145t188 57q116 0 167 -43t51 -102q0 -176 -367 -208v-41l90 34h234v-116h-370v229q128 1 200.5 23t72.5 65t-81 43q-57 0 -81.5 -21.5t-24.5 -64.5h-139zM283 -10q-56 0 -89 34t-33 84q0 48 33 81.5t89 33.5q55 0 89.5 -33.5t34.5 -81.5
q0 -49 -34.5 -83.5t-89.5 -34.5z" />
    <glyph glyph-name="at" unicode="@" horiz-adv-x="1126" 
d="M193 278q0 -174 107 -282t274 -88l406 47v-117l-406 -46q-98 -12 -190 18t-162.5 92.5t-113.5 160.5t-43 215q0 121 41.5 217.5t113.5 156t164 91t197 31.5q139 0 246 -48.5t170.5 -147t63.5 -235.5q0 -150 -69 -239t-193 -89h-59q-56 0 -56 69l36 89h-46
q-14 -70 -64 -111.5t-123 -41.5q-100 0 -158 69t-58 189q0 119 58.5 188t157.5 69q73 0 123 -41.5t64 -111.5h46l-36 103v45h139v-399h20q90 0 90 212q0 161 -86.5 237.5t-265.5 76.5q-176 0 -282 -107t-106 -272zM514 136q57 0 78.5 35t21.5 107t-21.5 106.5t-78.5 34.5
t-80 -35.5t-23 -105.5q0 -71 23 -106.5t80 -35.5z" />
    <glyph glyph-name="A" unicode="A" horiz-adv-x="812" 
d="M603 0l-54 206h-286l-54 -206h-194l193 705h395l194 -705h-194zM307 374h197l-75 284h-47z" />
    <glyph glyph-name="B" unicode="B" horiz-adv-x="723" 
d="M55 0v705h272q162 0 230.5 -36.5t68.5 -136.5q0 -26 -5 -47t-12 -34.5t-20.5 -23.5t-24 -15.5t-28.5 -9t-29 -4.5t-31.5 -2t-29.5 -2v-46q102 -5 136 -15q96 -29 96 -146q0 -49 -19.5 -83.5t-49.5 -54.5t-78.5 -31t-94.5 -14.5t-110 -3.5h-271zM246 451h108h16h15.5
t13.5 0.5t12.5 2t9.5 5t8 8t4 11.5t2 16q0 36 -36 42q-10 1 -45 1h-108v-86zM246 168h107h24.5h22.5h19t18 1t15 3t13 5t9 7t7.5 10t4 13.5t1.5 17.5q0 13 -2.5 22.5t-6 16t-12 10.5t-14.5 6t-19.5 3t-22 1t-27.5 -0.5t-30 -0.5h-107v-115z" />
    <glyph glyph-name="C" unicode="C" horiz-adv-x="824" 
d="M45 353q0 157 102.5 259.5t272.5 102.5q152 0 247.5 -75.5t111.5 -206.5h-191q-12 55 -57.5 84.5t-108.5 29.5q-85 0 -135.5 -48.5t-50.5 -145.5q0 -98 50.5 -146.5t135.5 -48.5q63 0 108.5 30t57.5 85h191q-16 -132 -111.5 -207.5t-247.5 -75.5q-170 0 -272.5 102.5
t-102.5 260.5z" />
    <glyph glyph-name="D" unicode="D" horiz-adv-x="770" 
d="M329 705q65 0 117 -7t106.5 -29.5t90.5 -60t59.5 -102.5t23.5 -153t-23.5 -153t-59.5 -102.5t-90.5 -60.5t-106.5 -30t-117 -7h-274v705h274zM329 168q46 0 70.5 2t54.5 11.5t44.5 28.5t25 54.5t10.5 88.5q0 44 -6 75.5t-20 51.5t-28.5 32t-42.5 17t-49 6.5t-59 1.5h-83
v-369h83z" />
    <glyph glyph-name="E" unicode="E" horiz-adv-x="619" 
d="M55 0v705h529v-168h-338v-100h288v-168h-288v-101h338v-168h-529z" />
    <glyph glyph-name="F" unicode="F" horiz-adv-x="609" 
d="M55 0v705h519v-168h-328v-172l315 20v-170l-315 -20v-195h-191z" />
    <glyph glyph-name="G" unicode="G" horiz-adv-x="919" 
d="M45 353q0 161 104 261.5t260 100.5q134 0 234 -74t116 -188h-191q-12 51 -49.5 72.5t-109.5 21.5q-85 0 -129 -44t-44 -150q0 -107 37.5 -151t114.5 -44q60 0 97 26t38 74h-130v142h377q45 0 70 -25.5t25 -71.5v-303h-192v235l37 118h-47q-1 -167 -71 -265t-212 -98
q-158 0 -246.5 98.5t-88.5 264.5z" />
    <glyph glyph-name="H" unicode="H" horiz-adv-x="821" 
d="M575 705h192v-705h-192v257h-329v-257h-191v705h191v-280h329v280z" />
    <glyph glyph-name="I" unicode="I" horiz-adv-x="603" 
d="M558 537h-161v-369h161v-168h-513v168h161v369h-161v168h513v-168z" />
    <glyph glyph-name="J" unicode="J" horiz-adv-x="560" 
d="M200 -10l-185 10v168l185 -10q42 -3 68.5 9t38 38.5t14.5 52t3 66.5v223l-223 -10v168l319 10q46 1 70.5 -23.5t24.5 -71.5v-368q0 -151 -69 -211.5t-246 -50.5z" />
    <glyph glyph-name="K" unicode="K" horiz-adv-x="808" 
d="M794 705l-423 -353l423 -352h-280l-268 228v-228h-191v705h191v-229l268 229h280z" />
    <glyph glyph-name="L" unicode="L" horiz-adv-x="599" 
d="M151 -10q-47 -1 -71.5 23.5t-24.5 70.5v621h191v-547l338 10v-168z" />
    <glyph glyph-name="M" unicode="M" horiz-adv-x="1035" 
d="M55 0v705h375l64 -658h47l64 658h375v-705h-191v542l36 116h-46l-77 -658h-369l-77 658h-47l37 -116v-542h-191z" />
    <glyph glyph-name="N" unicode="N" horiz-adv-x="843" 
d="M55 0v705h375l157 -658h47l-37 116v542h192v-705h-376l-157 658h-47l37 -116v-542h-191z" />
    <glyph glyph-name="O" unicode="O" horiz-adv-x="833" 
d="M45 353q0 157 101 259.5t271 102.5q169 0 270 -102.5t101 -259.5q0 -158 -101 -260.5t-270 -102.5q-170 0 -271 102.5t-101 260.5zM236 353q0 -94 46 -144.5t135 -50.5t134.5 50.5t45.5 144.5q0 93 -45.5 143.5t-134.5 50.5t-135 -50.5t-46 -143.5z" />
    <glyph glyph-name="P" unicode="P" horiz-adv-x="688" 
d="M330 705q60 0 103 -4.5t87 -20t71.5 -42.5t44.5 -74t17 -113t-17 -113t-44.5 -74t-71.5 -42.5t-87 -20t-103 -4.5h-84v-197h-191v705h275zM343 365q70 0 94.5 14.5t24.5 71.5t-24.5 71.5t-94.5 14.5h-97v-172h97z" />
    <glyph glyph-name="Q" unicode="Q" horiz-adv-x="860" 
d="M596 -19q124 11 349 -16v-168q-146 18 -266 20t-212.5 -6.5t-234.5 -29.5l-15 155q6 1 38.5 3.5t45 4t44.5 5t49.5 7t46.5 9.5t49.5 13t45 16.5t45.5 21.5l-27 44q-35 -31 -77 -45.5t-117 -14.5q-129 0 -222 96.5t-93 254.5q0 156 107.5 260t277.5 104q173 0 279 -99.5
t106 -262.5q0 -241 -219 -372zM430 155q91 0 142.5 53t51.5 145q0 91 -51 142.5t-143 51.5t-143 -52.5t-51 -143.5q0 -92 51 -144t143 -52z" />
    <glyph glyph-name="R" unicode="R" horiz-adv-x="737" 
d="M55 0v705h288q330 0 330 -197q0 -43 -17.5 -73t-49.5 -46.5t-62 -24t-69 -11.5v-46h110q46 0 71.5 -26t25.5 -72v-209h-191v234h-245v-234h-191zM246 402h97q83 0 104 7q35 13 35 60q0 17 -3.5 29t-13 19t-17 11.5t-26 6t-29.5 2t-37 0.5h-13h-97v-135z" />
    <glyph glyph-name="S" unicode="S" horiz-adv-x="725" 
d="M700 201q0 -100 -77 -155.5t-237 -55.5q-188 0 -274.5 72t-86.5 213h191q0 -65 37.5 -91t139.5 -26q68 0 92 9t24 28q0 21 -32.5 37t-108.5 43q-19 6 -29 10q-139 48 -186 77q-96 59 -96 161q0 94 74 143t214 49q160 0 243 -68.5t83 -184.5h-191q0 50 -34.5 67.5
t-100.5 17.5q-97 0 -97 -32q0 -16 15.5 -25.5t95.5 -37.5q9 -3 40 -13.5t45 -15.5t44 -16.5t46.5 -19.5t42.5 -21.5t40.5 -25t32.5 -28t27.5 -33t16 -36.5t6.5 -42z" />
    <glyph glyph-name="T" unicode="T" horiz-adv-x="690" 
d="M666 705v-168h-225v-537h-191v537h-225v168h641z" />
    <glyph glyph-name="U" unicode="U" horiz-adv-x="738" 
d="M35 262v443h191v-349v-11q0 -28 0.5 -41t2 -35.5t5 -33t10 -26t17 -22.5t25 -15t35.5 -11t47 -3q30 0 53 5t38.5 12t25.5 22.5t15.5 27.5t8 36.5t3 40t0.5 47.5v7v349h191v-443q0 -132 -86.5 -202t-248.5 -70q-161 0 -247 70t-86 202z" />
    <glyph glyph-name="V" unicode="V" horiz-adv-x="812" 
d="M15 705h194l173 -658h47l174 658h194l-194 -705h-395z" />
    <glyph glyph-name="W" unicode="W" horiz-adv-x="1230" 
d="M15 705h186l99 -658h46l65 658h408l65 -658h46l99 658h186l-109 -705h-398l-70 658h-46l-70 -658h-398z" />
    <glyph glyph-name="X" unicode="X" horiz-adv-x="830" 
d="M15 0l235 330v46l-235 329h220l179 -257l181 257h220l-236 -329v-46l236 -330h-220l-181 258l-179 -258h-220z" />
    <glyph glyph-name="Y" unicode="Y" horiz-adv-x="749" 
d="M529 705h205l-265 -492v-213h-191v213l-263 492h204l131 -273v-104h47v104z" />
    <glyph glyph-name="Z" unicode="Z" horiz-adv-x="673" 
d="M35 0v351l557 176v47l-104 -37h-453v168h603v-351l-557 -176v-47l104 37h453v-168h-603z" />
    <glyph glyph-name="bracketleft" unicode="[" horiz-adv-x="473" 
d="M65 705h343v-116h-202v-623h202v-116h-343v855z" />
    <glyph glyph-name="backslash" unicode="\" horiz-adv-x="574" 
d="M178 814l351 -870l-133 -53l-351 870z" />
    <glyph glyph-name="bracketright" unicode="]" horiz-adv-x="473" 
d="M408 705v-855h-343v116h202v623h-202v116h343z" />
    <glyph glyph-name="asciicircum" unicode="^" horiz-adv-x="582" 
d="M367 359l-52 299h-47l-53 -299h-150l87 346h279l86 -346h-150z" />
    <glyph glyph-name="underscore" unicode="_" horiz-adv-x="655" 
d="M45 -10h565v-142h-565v142z" />
    <glyph glyph-name="grave" unicode="`" horiz-adv-x="584" 
d="M519 680l-31 -134l-423 89l31 134z" />
    <glyph glyph-name="a" unicode="a" horiz-adv-x="665" 
d="M35 138q0 70 48.5 108.5t167.5 50.5l144 16q1 26 -19 38t-66 12q-42 0 -63 -14.5t-21 -36.5h-178q0 99 75 152.5t187 53.5q55 0 102.5 -12t88 -38.5t63.5 -74t23 -111.5v-114h73v-168h-122q-39 0 -61 21.5t-22 60.5l30 63h-46q-15 -72 -62.5 -113.5t-149.5 -41.5
q-58 0 -98.5 15t-59.5 40t-26.5 47.5t-7.5 45.5zM222 171q0 -26 56 -26q49 0 83 21t34 56l-108 -18q-51 -9 -59 -17q-6 -7 -6 -16z" />
    <glyph glyph-name="b" unicode="b" horiz-adv-x="701" 
d="M55 0v735h191v-241l-37 -103h47q12 28 24.5 47t34.5 39t56.5 30.5t80.5 10.5q106 0 160 -75t54 -188q0 -114 -54 -189.5t-160 -75.5q-87 0 -128.5 34t-67.5 94h-47l37 -104v-14h-191zM246 255q0 -51 26 -74t86 -23q61 0 89 23.5t28 73.5t-28 72.5t-89 22.5
q-60 0 -86 -22.5t-26 -72.5z" />
    <glyph glyph-name="c" unicode="c" horiz-adv-x="641" 
d="M35 255q0 128 79 195.5t206 67.5q120 0 201.5 -61.5t85.5 -165.5h-192q-3 22 -28 40.5t-67 18.5q-40 0 -67 -24t-27 -71q0 -48 27.5 -72.5t66.5 -24.5q42 0 67 18.5t28 40.5h192q-4 -104 -85.5 -165.5t-201.5 -61.5q-127 0 -206 68t-79 197z" />
    <glyph glyph-name="d" unicode="d" horiz-adv-x="701" 
d="M646 0h-191v14l37 104h-47q-26 -60 -67.5 -94t-128.5 -34q-106 0 -160 75.5t-54 189.5q0 113 54 188t160 75q46 0 80.5 -10.5t56.5 -30.5t34.5 -39t24.5 -47h47l-37 103v241h191v-735zM455 255q0 50 -26 72.5t-86 22.5q-61 0 -89 -22.5t-28 -72.5t28 -73.5t89 -23.5
q60 0 86 23t26 74z" />
    <glyph glyph-name="e" unicode="e" horiz-adv-x="645" 
d="M35 260q0 118 76.5 188t200.5 70q123 0 201.5 -69t78.5 -178v-49h-379q-2 -39 28.5 -62t88.5 -23q33 0 58.5 12.5t30.5 30.5h191q-2 -29 -21 -60.5t-52 -61t-87.5 -49t-119.5 -19.5q-143 0 -219 77.5t-76 192.5zM213 303h201q0 60 -102 60q-57 0 -78 -16t-21 -44z" />
    <glyph glyph-name="f" unicode="f" horiz-adv-x="486" 
d="M369 567q-30 0 -45 -13.5t-17 -45.5h146v-168h-146v-172h146v-168h-428v168h90v172h-90v168h90q3 227 280 227h86v-168h-112z" />
    <glyph glyph-name="g" unicode="g" horiz-adv-x="724" 
d="M676 508h44v-168h-31q-31 0 -39 -4v-2q1 -3 1.5 -6.5t1.5 -8t1.5 -10.5t0.5 -11q0 -65 -58 -111.5t-166 -81.5q61 1 107.5 -10.5t78.5 -44t32 -82.5q0 -34 -12.5 -60t-34 -44.5t-60.5 -31t-81 -20.5t-108 -12t-130 -5.5t-156 -1.5v168q262 0 325.5 8t63.5 42
q0 10 -5.5 17t-17.5 11.5t-25.5 7t-35 3t-41 0t-47.5 -2.5t-50.5 -4t-54.5 -4.5t-55 -4.5l-18 93q231 2 341 24v47q-61 -20 -130.5 -25.5t-133.5 4t-106 47t-42 98.5q0 95 82.5 145.5t214.5 50.5q137 0 212 -56q26 46 132 46zM345 268q67 0 93 12.5t26 40.5t-26 41t-93 13
t-93 -13t-26 -41t26 -40.5t93 -12.5z" />
    <glyph glyph-name="h" unicode="h" horiz-adv-x="707" 
d="M446 518q102 0 159.5 -67t57.5 -190v-261h-192v230q0 67 -20 93.5t-75 26.5q-65 0 -97.5 -36.5t-32.5 -138.5v-175h-191v735h191v-278l-37 -103h47q16 72 64.5 118t125.5 46z" />
    <glyph glyph-name="i" unicode="i" horiz-adv-x="523" 
d="M258 551q-97 0 -97 82t97 82q47 0 74 -20.5t27 -61.5q0 -82 -101 -82zM35 0v168h140v177l-127 -5v168l222 10q46 2 71.5 -23t25.5 -72v-255h141v-168h-473z" />
    <glyph glyph-name="j" unicode="j" horiz-adv-x="372" 
d="M226 551q-98 0 -98 82t98 82q47 0 73.5 -20.5t26.5 -61.5q0 -82 -100 -82zM5 -207l112 181q17 26 17 68v303l-130 -5v168l235 6q45 2 70 -22.5t25 -70.5v-391q0 -37 -17 -68l-96 -169h-216z" />
    <glyph glyph-name="k" unicode="k" horiz-adv-x="712" 
d="M470 0l-109 180l-115 -50v-130h-191v735h191v-408l222 93l1 88h192l-4 -117q-1 -79 -72 -112l-58 -26l160 -253h-217z" />
    <glyph glyph-name="l" unicode="l" horiz-adv-x="511" 
d="M25 0v168h140v404l-127 -5v168l224 6q45 1 69.5 -23t24.5 -69v-481h141v-168h-472z" />
    <glyph glyph-name="m" unicode="m" horiz-adv-x="975" 
d="M758 518q172 0 172 -272v-246h-191v237q0 71 -12.5 92t-51.5 21q-56 0 -71.5 -43t-15.5 -145v-162h-193l2 4v233q0 71 -12.5 92t-51.5 21q-56 0 -71.5 -43t-15.5 -145v-162h-191v508h191v-37l-37 -104h47q16 73 53.5 112t106.5 39t104 -40t46 -112l1 1h33q16 73 52.5 112
t105.5 39z" />
    <glyph glyph-name="n" unicode="n" horiz-adv-x="707" 
d="M376 350q-65 0 -97.5 -36.5t-32.5 -138.5v-175h-191v508h191v-51l-37 -103h47q16 72 64.5 118t125.5 46q102 0 159.5 -67t57.5 -190v-261h-192v230q0 67 -20 93.5t-75 26.5z" />
    <glyph glyph-name="o" unicode="o" horiz-adv-x="656" 
d="M35 255q0 68 23.5 119.5t64.5 82.5t93 46t113 15q128 0 210.5 -65.5t82.5 -197.5q0 -91 -41.5 -152t-105.5 -87t-146 -26q-129 0 -211.5 65.5t-82.5 199.5zM226 255q0 -97 103 -97q101 0 101 97q0 95 -101 95q-103 0 -103 -95z" />
    <glyph glyph-name="p" unicode="p" horiz-adv-x="701" 
d="M55 508h191v-14l-37 -103h47q17 38 34.5 62t59.5 44.5t103 20.5q105 0 159 -75.5t54 -188.5q0 -114 -54 -189t-159 -75q-88 0 -129.5 34t-67.5 94h-47l37 -104v-208h-191v702zM246 254q0 -52 26 -74t86 -22q61 0 89 22.5t28 73.5t-28 73.5t-89 22.5q-60 0 -86 -22.5
t-26 -73.5z" />
    <glyph glyph-name="q" unicode="q" horiz-adv-x="701" 
d="M646 508v-702h-191v208l37 104h-47q-26 -60 -67.5 -94t-129.5 -34q-105 0 -159 75t-54 189q0 113 54 188.5t159 75.5q61 0 103 -20.5t59.5 -44.5t34.5 -62h47l-37 103v14h191zM455 254q0 51 -26 73.5t-86 22.5q-61 0 -89 -22.5t-28 -73.5t28 -73.5t89 -22.5q60 0 86 22
t26 74z" />
    <glyph glyph-name="r" unicode="r" horiz-adv-x="505" 
d="M55 0v425q0 44 24.5 67.5t68.5 23.5l353 -8v-168l-255 5v-345h-191z" />
    <glyph glyph-name="s" unicode="s" horiz-adv-x="572" 
d="M557 144q0 -154 -251 -154q-143 0 -212 50.5t-69 142.5h191q0 -20 22 -37.5t75 -17.5t53 21q0 9 -13 14.5t-81 29.5q-11 4 -36 12t-39 12.5t-36.5 13.5t-36 17t-30 21t-25.5 27t-15 33.5t-6 41.5q0 71 60.5 109t169.5 38q123 0 192.5 -54t69.5 -135h-191q0 19 -18.5 35
t-49.5 16q-42 0 -42 -18q0 -7 5.5 -12.5t20 -11.5t27 -10t39.5 -12t44 -14q46 -15 71.5 -25.5t55 -29t42.5 -44t13 -59.5z" />
    <glyph glyph-name="t" unicode="t" horiz-adv-x="535" 
d="M320 158l191 10v-168l-290 -10q-44 -1 -68 23t-24 69v258h-124v168h124v82l191 60v-142h171v-168h-171v-182z" />
    <glyph glyph-name="u" unicode="u" horiz-adv-x="697" 
d="M331 158q65 0 97.5 36.5t32.5 138.5v175h192v-508h-192v51l37 103h-47q-15 -72 -64 -118t-126 -46q-102 0 -159 67.5t-57 189.5v261h191v-230q0 -66 20.5 -93t74.5 -27z" />
    <glyph glyph-name="v" unicode="v" horiz-adv-x="634" 
d="M440 508h190l-115 -508h-395l-115 508h189l100 -461h47z" />
    <glyph glyph-name="w" unicode="w" horiz-adv-x="983" 
d="M5 508h183l43 -461h46l14 461h401l14 -461h47l44 461h182l-50 -508h-400l-14 462h-47l-14 -462h-400z" />
    <glyph glyph-name="x" unicode="x" horiz-adv-x="711" 
d="M25 0l194 231v47l-194 230h227l103 -147l103 147h228l-194 -230v-47l194 -231h-228l-103 148l-103 -148h-227z" />
    <glyph glyph-name="y" unicode="y" horiz-adv-x="704" 
d="M472 508h218l-237 -468v-163q0 -47 -24.5 -71.5t-68.5 -22.5l-269 6v168h170v83l-236 468h216l93 -235v-97h46v97z" />
    <glyph glyph-name="z" unicode="z" horiz-adv-x="583" 
d="M35 0v281l467 56v46l-104 -36h-363v161h513v-280l-467 -56v-47l104 37h363v-162h-513z" />
    <glyph glyph-name="braceleft" unicode="{" horiz-adv-x="692" 
d="M392 589l-103 36v-46q131 -39 160 -53q63 -30 75 -88q4 -19 4 -43q0 -51 -35 -115q35 -64 35 -115q0 -42 -9.5 -68.5t-44 -47t-58.5 -29.5t-94 -29q-21 -7 -33 -10v-46l103 36h222v-116h-372v197q40 10 58 15t48 17t43.5 24.5t24.5 32.5t11 46v4q-82 -84 -168 -84
q-82 0 -131.5 46t-49.5 127q0 84 45.5 128.5t135.5 44.5q86 0 168 -84v4q0 26 -11 46t-24.5 32.5t-43.5 24.5t-48 17t-58 15v197h372v-116h-222zM283 211q22 0 50 19.5t51 49.5q-23 30 -51 49.5t-50 19.5q-28 0 -46.5 -17.5t-18.5 -51.5t18.5 -51.5t46.5 -17.5z" />
    <glyph glyph-name="bar" unicode="|" horiz-adv-x="271" 
d="M65 853h141v-1001h-141v1001z" />
    <glyph glyph-name="braceright" unicode="}" horiz-adv-x="666" 
d="M420 107q-86 0 -168 84v-4q0 -26 11 -46t24.5 -32.5t43.5 -24.5t48 -17t58 -15v-197h-372v116h222l103 -36v46q-131 39 -160 53q-63 30 -75 88q-4 19 -4 43q0 51 35 115q-35 64 -35 115q0 42 9.5 68.5t44 47t58.5 29.5t94 29q21 7 33 10v46l-103 -36h-222v116h372v-197
q-40 -10 -58 -15t-48 -17t-43.5 -24.5t-24.5 -32.5t-11 -46v-4q82 84 168 84q90 0 135.5 -44.5t45.5 -128.5q0 -81 -49.5 -127t-131.5 -46zM396 349q-22 0 -50 -19.5t-51 -49.5q23 -30 51 -49.5t50 -19.5q28 0 46.5 17.5t18.5 51.5t-18.5 51.5t-46.5 17.5z" />
    <glyph glyph-name="asciitilde" unicode="~" horiz-adv-x="679" 
d="M65 163q0 104 39 164.5t112 60.5q42 0 85.5 -20t76.5 -39.5t52 -19.5q24 0 33.5 18t9.5 64h141q0 -104 -39 -164t-113 -60q-42 0 -85 19.5t-76.5 39.5t-51.5 20q-24 0 -33.5 -18.5t-9.5 -64.5h-141z" />
    <glyph glyph-name="exclamdown" unicode="&#xa1;" horiz-adv-x="372" 
d="M186 518q55 0 89.5 -34t34.5 -84q0 -48 -35 -81.5t-89 -33.5q-56 0 -89 33t-33 82q0 51 32.5 84.5t89.5 33.5zM91 -197l38 427h115l38 -427h-191z" />
    <glyph glyph-name="cent" unicode="&#xa2;" horiz-adv-x="701" 
d="M395 270q46 18 50 52h192q-4 -93 -71 -153t-171 -72v-245l-88 1v244q-110 12 -176 78.5t-66 184.5q0 116 65.5 182.5t174.5 78.5v232l89 -1v-231q104 -12 171.5 -72t71.5 -153h-192q-2 15 -15 29.5t-36 22.5zM256 360q0 -66 50 -88v174q-50 -22 -50 -86z" />
    <glyph glyph-name="sterling" unicode="&#xa3;" horiz-adv-x="701" 
d="M359 537q-29 1 -46.5 -0.5t-32 -9.5t-14.5 -23t10 -30.5t18 -22.5t29 -25h273v-91h-207q3 -15 3 -32q0 -25 -9.5 -44t-28 -31.5t-41 -21t-53 -13.5t-58.5 -7.5t-63 -5.5q-7 0 -10 -0.5t-8.5 -1t-9.5 -0.5v-47l104 37h421v-168h-571v243q86 18 104 28q30 18 31 64h-135v91
h74q-30 22 -47 48.5t-17 74.5q0 42 29 74.5t74.5 50t95.5 25.5t99 6l263 -10v-168z" />
    <glyph glyph-name="currency" unicode="&#xa4;" horiz-adv-x="775" 
d="M634 358q0 -72 -36 -130l113 -113l-81 -81l-114 114q-53 -32 -124 -32q-73 0 -130 35l-117 -117l-81 81l118 118q-32 56 -32 125t32 124l-118 118l81 81l116 -116q59 35 131 35q69 0 125 -32l113 113l81 -81l-112 -112q35 -60 35 -130zM392 258q43 0 71.5 29.5t28.5 70.5
t-28.5 70.5t-71.5 29.5q-44 0 -72.5 -29.5t-28.5 -70.5t28.5 -70.5t72.5 -29.5z" />
    <glyph glyph-name="yen" unicode="&#xa5;" horiz-adv-x="849" 
d="M784 705l-203 -377h136v-90h-185l-13 -25v-23h198v-91h-198v-99h-191v99h-198v91h198v23l-13 25h-185v90h137l-202 377h204l131 -273v-104h47v104l132 273h205z" />
    <glyph glyph-name="brokenbar" unicode="&#xa6;" horiz-adv-x="271" 
d="M65 483v370h141v-370h-141zM206 222v-370h-141v370h141z" />
    <glyph glyph-name="section" unicode="&#xa7;" horiz-adv-x="630" 
d="M65 354q0 31 23.5 59t73.5 38q-62 25 -84 52t-22 65q0 71 62 109t174 38q127 0 191.5 -53t64.5 -137h-191q0 21 -18 41t-49 20q-43 0 -43 -21q0 -8 6 -14t20 -11.5t27.5 -9.5t39 -11.5t44.5 -13.5q38 -12 57.5 -19.5t47.5 -21t41.5 -27.5t24 -35.5t10.5 -48.5
q0 -31 -23.5 -59t-73.5 -38q62 -25 84 -52t22 -65q0 -71 -62 -109t-174 -38q-127 0 -191.5 53t-64.5 137h191q0 -21 17.5 -40.5t49.5 -19.5q43 0 43 20q0 8 -6 14.5t-20 12t-27.5 9.5t-39 11.5t-44.5 13.5q-38 12 -57.5 19.5t-47.5 21t-41.5 27.5t-24 35.5t-10.5 47.5z
M243 373q0 -25 64 -52q26 -12 53 -10.5t27 22.5q0 8 -3.5 14t-15 13t-18 10t-28.5 13q-26 14 -52.5 13t-26.5 -23z" />
    <glyph glyph-name="dieresis" unicode="&#xa8;" horiz-adv-x="633" 
d="M161 551q-97 0 -97 82t97 82q47 0 74 -20.5t27 -61.5q0 -82 -101 -82zM419 551q-98 0 -98 82t98 82q47 0 73.5 -20.5t26.5 -61.5q0 -82 -100 -82z" />
    <glyph glyph-name="copyright" unicode="&#xa9;" horiz-adv-x="1168" 
d="M584 -238q-119 0 -217.5 40.5t-164 111t-101.5 165t-36 202.5t36 202.5t101.5 165t164 111t217.5 40.5t217.5 -40.5t164 -111t101.5 -165t36 -202.5t-36 -202.5t-101.5 -165t-164 -111t-217.5 -40.5zM584 -122q183 0 293.5 116.5t110.5 286.5t-110.5 286.5t-293.5 116.5
t-293.5 -116.5t-110.5 -286.5t110.5 -286.5t293.5 -116.5zM301 282q0 128 79 196t206 68q120 0 201.5 -62t85.5 -166h-192q-3 22 -28 41t-67 19q-39 0 -66.5 -24.5t-27.5 -71.5q0 -48 27.5 -72.5t66.5 -24.5q42 0 67 19t28 41h192q-4 -104 -85.5 -166t-201.5 -62
q-127 0 -206 68t-79 197z" />
    <glyph glyph-name="guillemotleft" unicode="&#xab;" horiz-adv-x="905" 
d="M502 7l-103 -94l-334 335l334 334l103 -94l-238 -240zM840 7l-103 -94l-334 335l334 334l103 -94l-238 -240z" />
    <glyph glyph-name="logicalnot" unicode="&#xac;" horiz-adv-x="695" 
d="M630 437v-282h-142v140h-423v142h565z" />
    <glyph glyph-name="registered" unicode="&#xae;" horiz-adv-x="764" 
d="M382 196q-147 0 -232 90.5t-85 226.5t85 226.5t232 90.5t232 -90.5t85 -226.5t-85 -226.5t-232 -90.5zM382 281q109 0 170.5 66.5t61.5 165.5t-61.5 165.5t-170.5 66.5t-170.5 -66.5t-61.5 -165.5t61.5 -165.5t170.5 -66.5zM243 367v298h134q25 0 48.5 -3.5t49 -12
t41 -27t15.5 -44.5q0 -38 -25 -52t-67 -18v-22h67q25 0 25 -25v-94h-86v78h-116v-78h-86zM329 532h47q22 0 29.5 0.5t19.5 2t16 6.5t4 14t-4 14t-16 6.5t-19.5 2t-29.5 0.5h-47v-46z" />
    <glyph glyph-name="macron" unicode="&#xaf;" horiz-adv-x="602" 
d="M65 735h473v-140l-473 -2v142z" />
    <glyph glyph-name="degree" unicode="&#xb0;" horiz-adv-x="613" 
d="M307 261q-107 0 -174.5 70.5t-67.5 171.5t67.5 171.5t174.5 70.5t174.5 -70.5t67.5 -171.5t-67.5 -171.5t-174.5 -70.5zM307 403q43 0 71.5 29.5t28.5 70.5t-28.5 70.5t-71.5 29.5q-44 0 -72.5 -29.5t-28.5 -70.5t28.5 -70.5t72.5 -29.5z" />
    <glyph glyph-name="plusminus" unicode="&#xb1;" horiz-adv-x="695" 
d="M418 470h212v-142h-212v-139h-142v139h-211v142h211v137h142v-137zM65 -11v143h565v-143h-565z" />
    <glyph glyph-name="acute" unicode="&#xb4;" horiz-adv-x="584" 
d="M65 680l423 89l31 -134l-423 -89z" />
    <glyph glyph-name="paragraph" unicode="&#xb6;" horiz-adv-x="779" 
d="M371 853h141v-1001h-141v490q-168 0 -237 68t-69 187t69 187.5t237 68.5zM573 853h142v-1001h-142v1001z" />
    <glyph glyph-name="periodcentered" unicode="&#xb7;" horiz-adv-x="371" 
d="M184 132q-56 0 -89 33.5t-33 83.5q0 49 33 82.5t89 33.5q55 0 90 -34t35 -82q0 -49 -35 -83t-90 -34z" />
    <glyph glyph-name="cedilla" unicode="&#xb8;" horiz-adv-x="436" 
d="M277 -40q95 0 95 -64q0 -26 -11.5 -46t-35.5 -32.5t-49.5 -20.5t-64.5 -11.5t-70.5 -4.5t-75.5 -1v103h135q30 3 30 18q0 16 -23 16q-25 0 -81 -16l-58 39l20 60h140l-54 -61q50 21 103 21z" />
    <glyph glyph-name="guillemotright" unicode="&#xbb;" horiz-adv-x="905" 
d="M65 7l238 241l-238 240l103 94l334 -334l-334 -335zM403 7l238 241l-238 240l103 94l334 -334l-334 -335z" />
    <glyph glyph-name="onequarter" unicode="&#xbc;" horiz-adv-x="1280" 
d="M709 814l133 -53l-351 -870l-133 53zM24 614q47 44 59 68.5t22 102.5h260v-495h-140v366l25 82h-35q-12 -204 -130 -253zM827 50v292q162 17 185 153h140q-5 -50 -24 -95t-54 -86.5t-93 -70.5t-134 -39v-36l84 25h117v68h140v-68h68v-143h-68v-50h-140v50h-221z" />
    <glyph glyph-name="onehalf" unicode="&#xbd;" horiz-adv-x="1244" 
d="M709 814l133 -53l-351 -870l-133 53zM24 614q47 44 59 68.5t22 102.5h260v-495h-140v366l25 82h-35q-12 -204 -130 -253zM801 292q0 84 56 148.5t168 64.5q102 0 148 -51t46 -121q0 -43 -17.5 -75.5t-46.5 -53t-75 -35t-93 -22t-111 -13.5v-36l84 18h263v-116h-393v213
q4 1 31.5 3.5t51 6t56 12t55.5 20t39.5 32t16.5 46.5q0 22 -15.5 39t-51.5 17q-44 0 -58 -23.5t-14 -73.5h-140z" />
    <glyph glyph-name="threequarters" unicode="&#xbe;" horiz-adv-x="1343" 
d="M779 814l133 -53l-351 -870l-133 53zM25 480h139q0 -50 23 -65t69 -15q39 0 56.5 9.5t17.5 40.5q0 27 -15 34.5t-50 7.5h-48v115h48q33 0 45.5 7t12.5 31q0 23 -15.5 30.5t-51.5 7.5q-44 0 -64.5 -11t-20.5 -44h-140q0 81 59 126t166 45q104 0 156 -37t52 -95
q0 -28 -9.5 -46.5t-30 -29.5t-38.5 -15.5t-48 -9.5v-36q72 -14 93 -26q39 -23 39 -74q0 -68 -53.5 -107t-160.5 -39q-110 0 -170.5 49t-60.5 147zM890 50v292q162 17 185 153h140q-5 -50 -24 -95t-54 -86.5t-93 -70.5t-134 -39v-36l84 25h117v68h140v-68h68v-143h-68v-50
h-140v50h-221z" />
    <glyph glyph-name="questiondown" unicode="&#xbf;" horiz-adv-x="566" 
d="M283 518q56 0 89 -34t33 -84q0 -48 -33 -81.5t-89 -33.5q-55 0 -90 33.5t-35 81.5q0 50 35 84t90 34zM521 -45q0 -87 -60.5 -144.5t-188.5 -57.5q-115 0 -166 43t-51 103q0 177 366 207v41l-89 -34h-235v117h371v-230q-128 -1 -201 -23t-73 -65q0 -42 81 -42
q57 0 81.5 21.5t24.5 63.5h140z" />
    <glyph glyph-name="Agrave" unicode="&#xc0;" horiz-adv-x="812" 
d="M646 877l-31 -134l-423 89l31 134zM603 0l-54 206h-286l-54 -206h-194l193 705h395l194 -705h-194zM307 374h197l-75 284h-47z" />
    <glyph glyph-name="Aacute" unicode="&#xc1;" horiz-adv-x="812" 
d="M620 832l-423 -89l-31 134l423 89zM603 0l-54 206h-286l-54 -206h-194l193 705h395l194 -705h-194zM307 374h197l-75 284h-47z" />
    <glyph glyph-name="Acircumflex" unicode="&#xc2;" horiz-adv-x="812" 
d="M406 823l-136 -89l-101 93l237 160l238 -160l-101 -93zM603 0l-54 206h-286l-54 -206h-194l193 705h395l194 -705h-194zM307 374h197l-75 284h-47z" />
    <glyph glyph-name="Atilde" unicode="&#xc3;" horiz-adv-x="812" 
d="M328 869q-18 0 -26.5 -13.5t-8.5 -55.5h-141q0 95 43.5 153t120.5 58q33 0 61 -12.5t44 -27t33.5 -27t31.5 -12.5q18 0 26.5 13.5t8.5 55.5h141q0 -95 -43.5 -153t-120.5 -58q-41 0 -74.5 20t-56.5 39.5t-39 19.5zM603 0l-54 206h-286l-54 -206h-194l193 705h395
l194 -705h-194zM307 374h197l-75 284h-47z" />
    <glyph glyph-name="Adieresis" unicode="&#xc4;" horiz-adv-x="812" 
d="M276 748q-97 0 -97 82t97 82q47 0 74 -20.5t27 -61.5q0 -82 -101 -82zM534 748q-98 0 -98 82t98 82q47 0 73.5 -20.5t26.5 -61.5q0 -82 -100 -82zM603 0l-54 206h-286l-54 -206h-194l193 705h395l194 -705h-194zM307 374h197l-75 284h-47z" />
    <glyph glyph-name="Aring" unicode="&#xc5;" horiz-adv-x="812" 
d="M406 750q-172 0 -172 129q0 130 172 130q173 0 173 -130q0 -129 -173 -129zM406 909q-44 0 -44 -30q0 -31 44 -31q45 0 45 31q0 30 -45 30zM603 0l-54 206h-286l-54 -206h-194l193 705h395l194 -705h-194zM307 374h197l-75 284h-47z" />
    <glyph glyph-name="AE" unicode="&#xc6;" horiz-adv-x="1145" 
d="M1110 537h-338v-100h288v-168h-288v-101h338v-168h-529v217h-256l-108 -217h-202l351 705h744v-168zM408 385h173v273h-37z" />
    <glyph glyph-name="Ccedilla" unicode="&#xc7;" horiz-adv-x="824" 
d="M422 158q63 0 108.5 30t57.5 85h191q-14 -119 -95.5 -193t-211.5 -87l-47 -54q50 21 103 21q95 0 95 -64q0 -26 -11.5 -46t-35.5 -32.5t-49.5 -20.5t-64.5 -11.5t-70.5 -4.5t-75.5 -1v103h135q30 3 30 18q0 16 -23 16q-25 0 -81 -16l-58 39l19 57q-136 24 -214.5 121.5
t-78.5 234.5q0 157 102.5 259.5t272.5 102.5q152 0 247.5 -75.5t111.5 -206.5h-191q-12 55 -57.5 84.5t-108.5 29.5q-85 0 -135.5 -48.5t-50.5 -145.5q0 -98 50.5 -146.5t135.5 -48.5z" />
    <glyph glyph-name="Egrave" unicode="&#xc8;" horiz-adv-x="619" 
d="M559 877l-31 -134l-423 89l31 134zM55 0v705h529v-168h-338v-100h288v-168h-288v-101h338v-168h-529z" />
    <glyph glyph-name="Eacute" unicode="&#xc9;" horiz-adv-x="619" 
d="M79 877l423 89l31 -134l-423 -89zM55 0v705h529v-168h-338v-100h288v-168h-288v-101h338v-168h-529z" />
    <glyph glyph-name="Ecircumflex" unicode="&#xca;" horiz-adv-x="619" 
d="M558 827l-101 -93l-137 89l-136 -89l-101 93l237 160zM55 0v705h529v-168h-338v-100h288v-168h-288v-101h338v-168h-529z" />
    <glyph glyph-name="Edieresis" unicode="&#xcb;" horiz-adv-x="619" 
d="M189 748q-97 0 -97 82t97 82q47 0 74 -20.5t27 -61.5q0 -82 -101 -82zM447 748q-98 0 -98 82t98 82q47 0 73.5 -20.5t26.5 -61.5q0 -82 -100 -82zM55 0v705h529v-168h-338v-100h288v-168h-288v-101h338v-168h-529z" />
    <glyph glyph-name="Igrave" unicode="&#xcc;" horiz-adv-x="603" 
d="M541 877l-31 -134l-423 89l31 134zM558 537h-161v-369h161v-168h-513v168h161v369h-161v168h513v-168z" />
    <glyph glyph-name="Iacute" unicode="&#xcd;" horiz-adv-x="603" 
d="M514 832l-423 -89l-31 134l423 89zM558 537h-161v-369h161v-168h-513v168h161v369h-161v168h513v-168z" />
    <glyph glyph-name="Icircumflex" unicode="&#xce;" horiz-adv-x="603" 
d="M301 823l-136 -89l-101 93l237 160l238 -160l-101 -93zM558 537h-161v-369h161v-168h-513v168h161v369h-161v168h513v-168z" />
    <glyph glyph-name="Idieresis" unicode="&#xcf;" horiz-adv-x="603" 
d="M171 748q-97 0 -97 82t97 82q47 0 74 -20.5t27 -61.5q0 -82 -101 -82zM429 748q-98 0 -98 82t98 82q47 0 73.5 -20.5t26.5 -61.5q0 -82 -100 -82zM558 537h-161v-369h161v-168h-513v168h161v369h-161v168h513v-168z" />
    <glyph glyph-name="Eth" unicode="&#xd0;" horiz-adv-x="857" 
d="M416 705q65 0 117 -7t106 -29.5t90.5 -60t59.5 -102.5t23 -153t-23 -153t-59.5 -102.5t-90.5 -60.5t-106 -30t-117 -7h-275v294h-96v142h96v269h275zM416 168q46 0 70.5 2t54.5 11.5t44.5 28.5t25 54.5t10.5 88.5q0 44 -6 75.5t-20 51.5t-28.5 32t-42.5 17t-49 6.5
t-59 1.5h-83v-101h130v-142h-130v-126h83z" />
    <glyph glyph-name="Ntilde" unicode="&#xd1;" horiz-adv-x="843" 
d="M187 800q0 95 43.5 153t120.5 58q33 0 61 -12.5t44 -27t33.5 -27t31.5 -12.5q18 0 26.5 13.5t8.5 55.5h141q0 -95 -43.5 -153t-120.5 -58q-41 0 -74.5 20t-56.5 39.5t-39 19.5q-18 0 -26.5 -13.5t-8.5 -55.5h-141zM55 0v705h375l157 -658h47l-37 116v542h192v-705h-376
l-157 658h-47l37 -116v-542h-191z" />
    <glyph glyph-name="Ograve" unicode="&#xd2;" horiz-adv-x="833" 
d="M656 877l-31 -134l-423 89l31 134zM45 353q0 157 101 259.5t271 102.5q169 0 270 -102.5t101 -259.5q0 -158 -101 -260.5t-270 -102.5q-170 0 -271 102.5t-101 260.5zM236 353q0 -94 46 -144.5t135 -50.5t134.5 50.5t45.5 144.5q0 93 -45.5 143.5t-134.5 50.5t-135 -50.5
t-46 -143.5z" />
    <glyph glyph-name="Oacute" unicode="&#xd3;" horiz-adv-x="833" 
d="M176 877l423 89l31 -134l-423 -89zM45 353q0 157 101 259.5t271 102.5q169 0 270 -102.5t101 -259.5q0 -158 -101 -260.5t-270 -102.5q-170 0 -271 102.5t-101 260.5zM236 353q0 -94 46 -144.5t135 -50.5t134.5 50.5t45.5 144.5q0 93 -45.5 143.5t-134.5 50.5t-135 -50.5
t-46 -143.5z" />
    <glyph glyph-name="Ocircumflex" unicode="&#xd4;" horiz-adv-x="833" 
d="M655 827l-101 -93l-137 89l-136 -89l-101 93l237 160zM45 353q0 157 101 259.5t271 102.5q169 0 270 -102.5t101 -259.5q0 -158 -101 -260.5t-270 -102.5q-170 0 -271 102.5t-101 260.5zM236 353q0 -94 46 -144.5t135 -50.5t134.5 50.5t45.5 144.5q0 93 -45.5 143.5
t-134.5 50.5t-135 -50.5t-46 -143.5z" />
    <glyph glyph-name="Otilde" unicode="&#xd5;" horiz-adv-x="833" 
d="M162 800q0 95 43.5 153t120.5 58q33 0 61 -12.5t44 -27t33.5 -27t31.5 -12.5q18 0 26.5 13.5t8.5 55.5h141q0 -95 -43.5 -153t-120.5 -58q-41 0 -74.5 20t-56.5 39.5t-39 19.5q-18 0 -26.5 -13.5t-8.5 -55.5h-141zM45 353q0 157 101 259.5t271 102.5q169 0 270 -102.5
t101 -259.5q0 -158 -101 -260.5t-270 -102.5q-170 0 -271 102.5t-101 260.5zM236 353q0 -94 46 -144.5t135 -50.5t134.5 50.5t45.5 144.5q0 93 -45.5 143.5t-134.5 50.5t-135 -50.5t-46 -143.5z" />
    <glyph glyph-name="Odieresis" unicode="&#xd6;" horiz-adv-x="833" 
d="M286 748q-97 0 -97 82t97 82q47 0 74 -20.5t27 -61.5q0 -82 -101 -82zM544 748q-98 0 -98 82t98 82q47 0 73.5 -20.5t26.5 -61.5q0 -82 -100 -82zM45 353q0 157 101 259.5t271 102.5q169 0 270 -102.5t101 -259.5q0 -158 -101 -260.5t-270 -102.5q-170 0 -271 102.5
t-101 260.5zM236 353q0 -94 46 -144.5t135 -50.5t134.5 50.5t45.5 144.5q0 93 -45.5 143.5t-134.5 50.5t-135 -50.5t-46 -143.5z" />
    <glyph glyph-name="multiply" unicode="&#xd7;" horiz-adv-x="629" 
d="M565 413l-150 -150l150 -149l-101 -101l-149 150l-150 -150l-101 101l150 149l-150 150l101 100l150 -149l149 149z" />
    <glyph glyph-name="Oslash" unicode="&#xd8;" horiz-adv-x="833" 
d="M651 644q66 -49 101.5 -124.5t35.5 -166.5q0 -158 -101 -260.5t-270 -102.5q-72 0 -134 20l-48 -83l-97 57l44 77q-66 49 -101.5 124.5t-35.5 167.5q0 157 101 259.5t271 102.5q68 0 131 -19l47 82l100 -58zM236 353q0 -85 37 -134l187 325q-20 3 -43 3q-89 0 -135 -50.5
t-46 -143.5zM417 158q89 0 134.5 50.5t45.5 144.5q0 85 -37 134l-189 -325q19 -4 46 -4z" />
    <glyph glyph-name="Ugrave" unicode="&#xd9;" horiz-adv-x="738" 
d="M608 877l-31 -134l-423 89l31 134zM35 262v443h191v-349v-11q0 -28 0.5 -41t2 -35.5t5 -33t10 -26t17 -22.5t25 -15t35.5 -11t47 -3q30 0 53 5t38.5 12t25.5 22.5t15.5 27.5t8 36.5t3 40t0.5 47.5v7v349h191v-443q0 -132 -86.5 -202t-248.5 -70q-161 0 -247 70t-86 202z
" />
    <glyph glyph-name="Uacute" unicode="&#xda;" horiz-adv-x="738" 
d="M127 877l423 89l31 -134l-423 -89zM35 262v443h191v-349v-11q0 -28 0.5 -41t2 -35.5t5 -33t10 -26t17 -22.5t25 -15t35.5 -11t47 -3q30 0 53 5t38.5 12t25.5 22.5t15.5 27.5t8 36.5t3 40t0.5 47.5v7v349h191v-443q0 -132 -86.5 -202t-248.5 -70q-161 0 -247 70t-86 202z
" />
    <glyph glyph-name="Ucircumflex" unicode="&#xdb;" horiz-adv-x="738" 
d="M606 827l-101 -93l-137 89l-136 -89l-101 93l237 160zM35 262v443h191v-349v-11q0 -28 0.5 -41t2 -35.5t5 -33t10 -26t17 -22.5t25 -15t35.5 -11t47 -3q30 0 53 5t38.5 12t25.5 22.5t15.5 27.5t8 36.5t3 40t0.5 47.5v7v349h191v-443q0 -132 -86.5 -202t-248.5 -70
q-161 0 -247 70t-86 202z" />
    <glyph glyph-name="Udieresis" unicode="&#xdc;" horiz-adv-x="738" 
d="M238 748q-97 0 -97 82t97 82q47 0 74 -20.5t27 -61.5q0 -82 -101 -82zM496 748q-98 0 -98 82t98 82q47 0 73.5 -20.5t26.5 -61.5q0 -82 -100 -82zM35 262v443h191v-349v-11q0 -28 0.5 -41t2 -35.5t5 -33t10 -26t17 -22.5t25 -15t35.5 -11t47 -3q30 0 53 5t38.5 12
t25.5 22.5t15.5 27.5t8 36.5t3 40t0.5 47.5v7v349h191v-443q0 -132 -86.5 -202t-248.5 -70q-161 0 -247 70t-86 202z" />
    <glyph glyph-name="Yacute" unicode="&#xdd;" horiz-adv-x="749" 
d="M133 877l423 89l31 -134l-423 -89zM529 705h205l-265 -492v-213h-191v213l-263 492h204l131 -273v-104h47v104z" />
    <glyph glyph-name="Thorn" unicode="&#xde;" horiz-adv-x="688" 
d="M330 607q60 0 103 -4.5t87 -20t71.5 -42.5t44.5 -74t17 -113t-17 -113t-44.5 -74.5t-71.5 -43t-87 -20t-103 -4.5h-84v-98h-191v705h191v-98h84zM343 266h18q61 -1 81 12.5t20 74.5q0 22 -2 36.5t-9 24.5t-12 15t-21 7.5t-24 2.5h-33h-3.5h-3.5h-3.5h-3.5h-4h-97v-173h97
z" />
    <glyph glyph-name="germandbls" unicode="&#xdf;" horiz-adv-x="724" 
d="M302 0v168l131 -9q29 -2 48 -0.5t28 13.5t9 37t-27.5 41t-60 24.5t-60 33.5t-27.5 66q0 31 14.5 56t32 37t32 25.5t14.5 25.5q0 16 -16 22.5t-59 6.5q-115 0 -115 -112v-435h-191v458q0 134 83.5 195.5t222.5 61.5q132 0 199 -45.5t67 -108.5q0 -28 -14.5 -53t-31.5 -40
t-31.5 -36.5t-14.5 -45.5t18 -38t43.5 -23t51 -21.5t43.5 -43t18 -77.5q0 -103 -71 -151.5t-179 -41.5z" />
    <glyph glyph-name="agrave" unicode="&#xe0;" horiz-adv-x="665" 
d="M560 680l-31 -134l-423 89l31 134zM35 138q0 70 48.5 108.5t167.5 50.5l144 16q1 26 -19 38t-66 12q-42 0 -63 -14.5t-21 -36.5h-178q0 99 75 152.5t187 53.5q55 0 102.5 -12t88 -38.5t63.5 -74t23 -111.5v-114h73v-168h-122q-39 0 -61 21.5t-22 60.5l30 63h-46
q-15 -72 -62.5 -113.5t-149.5 -41.5q-58 0 -98.5 15t-59.5 40t-26.5 47.5t-7.5 45.5zM222 171q0 -26 56 -26q49 0 83 21t34 56l-108 -18q-51 -9 -59 -17q-6 -7 -6 -16z" />
    <glyph glyph-name="aacute" unicode="&#xe1;" horiz-adv-x="665" 
d="M79 680l423 89l31 -134l-423 -89zM35 138q0 70 48.5 108.5t167.5 50.5l144 16q1 26 -19 38t-66 12q-42 0 -63 -14.5t-21 -36.5h-178q0 99 75 152.5t187 53.5q55 0 102.5 -12t88 -38.5t63.5 -74t23 -111.5v-114h73v-168h-122q-39 0 -61 21.5t-22 60.5l30 63h-46
q-15 -72 -62.5 -113.5t-149.5 -41.5q-58 0 -98.5 15t-59.5 40t-26.5 47.5t-7.5 45.5zM222 171q0 -26 56 -26q49 0 83 21t34 56l-108 -18q-51 -9 -59 -17q-6 -7 -6 -16z" />
    <glyph glyph-name="acircumflex" unicode="&#xe2;" horiz-adv-x="665" 
d="M558 630l-101 -93l-137 89l-136 -89l-101 93l237 160zM35 138q0 70 48.5 108.5t167.5 50.5l144 16q1 26 -19 38t-66 12q-42 0 -63 -14.5t-21 -36.5h-178q0 99 75 152.5t187 53.5q55 0 102.5 -12t88 -38.5t63.5 -74t23 -111.5v-114h73v-168h-122q-39 0 -61 21.5t-22 60.5
l30 63h-46q-15 -72 -62.5 -113.5t-149.5 -41.5q-58 0 -98.5 15t-59.5 40t-26.5 47.5t-7.5 45.5zM222 171q0 -26 56 -26q49 0 83 21t34 56l-108 -18q-51 -9 -59 -17q-6 -7 -6 -16z" />
    <glyph glyph-name="atilde" unicode="&#xe3;" horiz-adv-x="665" 
d="M65 603q0 95 43.5 153t120.5 58q41 0 74.5 -20t56.5 -39.5t39 -19.5q18 0 26.5 13.5t8.5 55.5h141q0 -95 -43.5 -153t-120.5 -58q-33 0 -61 12.5t-44 27t-33.5 27t-31.5 12.5q-18 0 -26.5 -13.5t-8.5 -55.5h-141zM35 138q0 70 48.5 108.5t167.5 50.5l144 16q1 26 -19 38
t-66 12q-42 0 -63 -14.5t-21 -36.5h-178q0 99 75 152.5t187 53.5q55 0 102.5 -12t88 -38.5t63.5 -74t23 -111.5v-114h73v-168h-122q-39 0 -61 21.5t-22 60.5l30 63h-46q-15 -72 -62.5 -113.5t-149.5 -41.5q-58 0 -98.5 15t-59.5 40t-26.5 47.5t-7.5 45.5zM222 171
q0 -26 56 -26q49 0 83 21t34 56l-108 -18q-51 -9 -59 -17q-6 -7 -6 -16z" />
    <glyph glyph-name="adieresis" unicode="&#xe4;" horiz-adv-x="665" 
d="M190 551q-97 0 -97 82t97 82q47 0 74 -20.5t27 -61.5q0 -82 -101 -82zM448 551q-98 0 -98 82t98 82q47 0 73.5 -20.5t26.5 -61.5q0 -82 -100 -82zM35 138q0 70 48.5 108.5t167.5 50.5l144 16q1 26 -19 38t-66 12q-42 0 -63 -14.5t-21 -36.5h-178q0 99 75 152.5t187 53.5
q55 0 102.5 -12t88 -38.5t63.5 -74t23 -111.5v-114h73v-168h-122q-39 0 -61 21.5t-22 60.5l30 63h-46q-15 -72 -62.5 -113.5t-149.5 -41.5q-58 0 -98.5 15t-59.5 40t-26.5 47.5t-7.5 45.5zM222 171q0 -26 56 -26q49 0 83 21t34 56l-108 -18q-51 -9 -59 -17q-6 -7 -6 -16z
" />
    <glyph glyph-name="aring" unicode="&#xe5;" horiz-adv-x="665" 
d="M319 553q-172 0 -172 129q0 130 172 130q173 0 173 -130q0 -129 -173 -129zM319 651q45 0 45 31q0 30 -45 30q-44 0 -44 -30q0 -31 44 -31zM35 138q0 70 48.5 108.5t167.5 50.5l144 16q1 26 -19 38t-66 12q-42 0 -63 -14.5t-21 -36.5h-178q0 99 75 152.5t187 53.5
q55 0 102.5 -12t88 -38.5t63.5 -74t23 -111.5v-114h73v-168h-122q-39 0 -61 21.5t-22 60.5l30 63h-46q-15 -72 -62.5 -113.5t-149.5 -41.5q-58 0 -98.5 15t-59.5 40t-26.5 47.5t-7.5 45.5zM222 171q0 -26 56 -26q49 0 83 21t34 56l-108 -18q-51 -9 -59 -17q-6 -7 -6 -16z
" />
    <glyph glyph-name="ae" unicode="&#xe6;" horiz-adv-x="1067" 
d="M841 180h192q-6 -65 -81.5 -127.5t-199.5 -62.5q-103 0 -172 42t-100 113h-46q-31 -155 -207 -155q-58 0 -98.5 15t-59.5 40t-26.5 47.5t-7.5 45.5q0 68 47.5 102.5t168.5 52.5l144 24q1 24 -18.5 35t-66.5 11q-42 0 -63 -14.5t-21 -36.5h-178q0 99 75 152.5t187 53.5
q144 0 203 -93q77 93 221 93q123 0 201.5 -69t78.5 -178v-49h-379q-2 -39 29 -62t88 -23q34 0 59 12.5t30 30.5zM734 363q-57 0 -78 -16t-21 -44h201q0 60 -102 60zM276 150q50 0 84.5 18.5t34.5 53.5l-108 -18q-48 -8 -56 -16q-5 -7 -5 -16q0 -22 50 -22z" />
    <glyph glyph-name="ccedilla" unicode="&#xe7;" horiz-adv-x="641" 
d="M320 158q42 0 67 18.5t28 40.5h192q-3 -89 -65 -147.5t-158 -74.5l-50 -56q50 21 103 21q95 0 95 -64q0 -26 -11.5 -46t-35.5 -32.5t-49.5 -20.5t-64.5 -11.5t-70.5 -4.5t-75.5 -1v103h135q30 3 30 18q0 16 -23 16q-25 0 -81 -16l-58 39l19 56q-97 18 -154.5 84
t-57.5 175q0 128 79 195.5t206 67.5q120 0 201.5 -61.5t85.5 -165.5h-192q-3 22 -28 40.5t-67 18.5q-40 0 -67 -24t-27 -71q0 -48 27.5 -72.5t66.5 -24.5z" />
    <glyph glyph-name="egrave" unicode="&#xe8;" horiz-adv-x="645" 
d="M562 680l-31 -134l-423 89l31 134zM35 260q0 118 76.5 188t200.5 70q123 0 201.5 -69t78.5 -178v-49h-379q-2 -39 28.5 -62t88.5 -23q33 0 58.5 12.5t30.5 30.5h191q-2 -29 -21 -60.5t-52 -61t-87.5 -49t-119.5 -19.5q-143 0 -219 77.5t-76 192.5zM213 303h201
q0 60 -102 60q-57 0 -78 -16t-21 -44z" />
    <glyph glyph-name="eacute" unicode="&#xe9;" horiz-adv-x="645" 
d="M82 680l423 89l31 -134l-423 -89zM35 260q0 118 76.5 188t200.5 70q123 0 201.5 -69t78.5 -178v-49h-379q-2 -39 28.5 -62t88.5 -23q33 0 58.5 12.5t30.5 30.5h191q-2 -29 -21 -60.5t-52 -61t-87.5 -49t-119.5 -19.5q-143 0 -219 77.5t-76 192.5zM213 303h201
q0 60 -102 60q-57 0 -78 -16t-21 -44z" />
    <glyph glyph-name="ecircumflex" unicode="&#xea;" horiz-adv-x="645" 
d="M561 630l-101 -93l-137 89l-136 -89l-101 93l237 160zM35 260q0 118 76.5 188t200.5 70q123 0 201.5 -69t78.5 -178v-49h-379q-2 -39 28.5 -62t88.5 -23q33 0 58.5 12.5t30.5 30.5h191q-2 -29 -21 -60.5t-52 -61t-87.5 -49t-119.5 -19.5q-143 0 -219 77.5t-76 192.5z
M213 303h201q0 60 -102 60q-57 0 -78 -16t-21 -44z" />
    <glyph glyph-name="edieresis" unicode="&#xeb;" horiz-adv-x="645" 
d="M192 551q-97 0 -97 82t97 82q47 0 74 -20.5t27 -61.5q0 -82 -101 -82zM450 551q-98 0 -98 82t98 82q47 0 73.5 -20.5t26.5 -61.5q0 -82 -100 -82zM35 260q0 118 76.5 188t200.5 70q123 0 201.5 -69t78.5 -178v-49h-379q-2 -39 28.5 -62t88.5 -23q33 0 58.5 12.5
t30.5 30.5h191q-2 -29 -21 -60.5t-52 -61t-87.5 -49t-119.5 -19.5q-143 0 -219 77.5t-76 192.5zM213 303h201q0 60 -102 60q-57 0 -78 -16t-21 -44z" />
    <glyph glyph-name="igrave" unicode="&#xec;" horiz-adv-x="523" 
d="M481 680l-31 -134l-423 89l31 134zM35 0v168h143v177l-130 -5v168l221 10q44 2 69.5 -21.5t25.5 -68.5v-260h144v-168h-473z" />
    <glyph glyph-name="iacute" unicode="&#xed;" horiz-adv-x="548" 
d="M41 680l423 89l31 -134l-423 -89zM60 0v168h144v177l-131 -5v168l221 10q45 2 70.5 -21.5t25.5 -68.5v-260h143v-168h-473z" />
    <glyph glyph-name="icircumflex" unicode="&#xee;" horiz-adv-x="544" 
d="M502 630l-101 -93l-136 89l-137 -89l-100 93l237 160zM56 0v168h144v177l-131 -5v168l221 10q45 2 70.5 -21.5t25.5 -68.5v-260h143v-168h-473z" />
    <glyph glyph-name="idieresis" unicode="&#xef;" horiz-adv-x="548" 
d="M125 551q-98 0 -98 82t98 82q47 0 73.5 -20.5t26.5 -61.5q0 -82 -100 -82zM382 551q-98 0 -98 82t98 82q47 0 73.5 -20.5t26.5 -61.5q0 -82 -100 -82zM60 0v168h144v177l-131 -5v168l221 10q45 2 70.5 -21.5t25.5 -68.5v-260h143v-168h-473z" />
    <glyph glyph-name="eth" unicode="&#xf0;" horiz-adv-x="723" 
d="M542 665q146 -117 146 -346q0 -154 -88 -241.5t-241 -87.5q-146 0 -235 73.5t-89 188.5q0 114 77.5 190t209.5 76q118 0 179.5 -69.5t68.5 -185.5h46l-36 105q-9 78 -52 127.5t-121 78.5l-70 -48l-129 49l53 36l-86 12v168q156 -16 260 -62l61 42l129 -49zM364 158
q69 0 101.5 22.5t32.5 71.5q0 57 -30.5 77.5t-103.5 20.5q-74 0 -106 -21t-32 -77q0 -45 35 -69.5t103 -24.5z" />
    <glyph glyph-name="ntilde" unicode="&#xf1;" horiz-adv-x="707" 
d="M117 603q0 95 43.5 153t120.5 58q41 0 74.5 -20t56.5 -39.5t39 -19.5q18 0 26.5 13.5t8.5 55.5h141q0 -95 -43.5 -153t-120.5 -58q-33 0 -61 12.5t-44 27t-33.5 27t-31.5 12.5q-18 0 -26.5 -13.5t-8.5 -55.5h-141zM376 350q-65 0 -97.5 -36.5t-32.5 -138.5v-175h-191v508
h191v-51l-37 -103h47q16 72 64.5 118t125.5 46q102 0 159.5 -67t57.5 -190v-261h-192v230q0 67 -20 93.5t-75 26.5z" />
    <glyph glyph-name="ograve" unicode="&#xf2;" horiz-adv-x="656" 
d="M568 680l-31 -134l-423 89l31 134zM35 255q0 68 23.5 119.5t64.5 82.5t93 46t113 15q128 0 210.5 -65.5t82.5 -197.5q0 -91 -41.5 -152t-105.5 -87t-146 -26q-129 0 -211.5 65.5t-82.5 199.5zM226 255q0 -97 103 -97q101 0 101 97q0 95 -101 95q-103 0 -103 -95z" />
    <glyph glyph-name="oacute" unicode="&#xf3;" horiz-adv-x="656" 
d="M88 680l423 89l31 -134l-423 -89zM35 255q0 68 23.5 119.5t64.5 82.5t93 46t113 15q128 0 210.5 -65.5t82.5 -197.5q0 -91 -41.5 -152t-105.5 -87t-146 -26q-129 0 -211.5 65.5t-82.5 199.5zM226 255q0 -97 103 -97q101 0 101 97q0 95 -101 95q-103 0 -103 -95z" />
    <glyph glyph-name="ocircumflex" unicode="&#xf4;" horiz-adv-x="656" 
d="M566 630l-101 -93l-137 89l-136 -89l-101 93l237 160zM35 255q0 68 23.5 119.5t64.5 82.5t93 46t113 15q128 0 210.5 -65.5t82.5 -197.5q0 -91 -41.5 -152t-105.5 -87t-146 -26q-129 0 -211.5 65.5t-82.5 199.5zM226 255q0 -97 103 -97q101 0 101 97q0 95 -101 95
q-103 0 -103 -95z" />
    <glyph glyph-name="otilde" unicode="&#xf5;" horiz-adv-x="656" 
d="M74 603q0 95 43.5 153t120.5 58q41 0 74.5 -20t56.5 -39.5t39 -19.5q18 0 26.5 13.5t8.5 55.5h141q0 -95 -43.5 -153t-120.5 -58q-33 0 -61 12.5t-44 27t-33.5 27t-31.5 12.5q-18 0 -26.5 -13.5t-8.5 -55.5h-141zM35 255q0 68 23.5 119.5t64.5 82.5t93 46t113 15
q128 0 210.5 -65.5t82.5 -197.5q0 -91 -41.5 -152t-105.5 -87t-146 -26q-129 0 -211.5 65.5t-82.5 199.5zM226 255q0 -97 103 -97q101 0 101 97q0 95 -101 95q-103 0 -103 -95z" />
    <glyph glyph-name="odieresis" unicode="&#xf6;" horiz-adv-x="656" 
d="M198 551q-97 0 -97 82t97 82q47 0 74 -20.5t27 -61.5q0 -82 -101 -82zM456 551q-98 0 -98 82t98 82q47 0 73.5 -20.5t26.5 -61.5q0 -82 -100 -82zM35 255q0 68 23.5 119.5t64.5 82.5t93 46t113 15q128 0 210.5 -65.5t82.5 -197.5q0 -91 -41.5 -152t-105.5 -87t-146 -26
q-129 0 -211.5 65.5t-82.5 199.5zM226 255q0 -97 103 -97q101 0 101 97q0 95 -101 95q-103 0 -103 -95z" />
    <glyph glyph-name="divide" unicode="&#xf7;" horiz-adv-x="695" 
d="M346 375q-56 0 -89 34t-33 84q0 49 33 82.5t89 33.5q55 0 89.5 -34t34.5 -82q0 -49 -34.5 -83.5t-89.5 -34.5zM65 347h565v-142h-565v142zM346 -67q-56 0 -89 34t-33 84q0 48 33 81.5t89 33.5q55 0 89.5 -33.5t34.5 -81.5q0 -49 -34.5 -83.5t-89.5 -34.5z" />
    <glyph glyph-name="oslash" unicode="&#xf8;" horiz-adv-x="656" 
d="M508 476q114 -68 114 -220q0 -133 -82.5 -199t-210.5 -66q-49 0 -98 11l-44 -75l-76 44l37 64q-113 68 -113 221q0 68 23.5 120t64.5 82.5t93 46t113 15.5q51 0 94 -10l43 75l79 -45zM226 256q0 -36 15 -59l90 155h-2q-103 0 -103 -96zM329 159q101 0 101 97q0 36 -16 60
l-91 -157h6z" />
    <glyph glyph-name="ugrave" unicode="&#xf9;" horiz-adv-x="697" 
d="M585 680l-31 -134l-423 89l31 134zM331 158q65 0 97.5 36.5t32.5 138.5v175h192v-508h-192v51l37 103h-47q-15 -72 -64 -118t-126 -46q-102 0 -159 67.5t-57 189.5v261h191v-230q0 -66 20.5 -93t74.5 -27z" />
    <glyph glyph-name="uacute" unicode="&#xfa;" horiz-adv-x="697" 
d="M104 680l423 89l31 -134l-423 -89zM331 158q65 0 97.5 36.5t32.5 138.5v175h192v-508h-192v51l37 103h-47q-15 -72 -64 -118t-126 -46q-102 0 -159 67.5t-57 189.5v261h191v-230q0 -66 20.5 -93t74.5 -27z" />
    <glyph glyph-name="ucircumflex" unicode="&#xfb;" horiz-adv-x="697" 
d="M583 630l-101 -93l-137 89l-136 -89l-101 93l237 160zM331 158q65 0 97.5 36.5t32.5 138.5v175h192v-508h-192v51l37 103h-47q-15 -72 -64 -118t-126 -46q-102 0 -159 67.5t-57 189.5v261h191v-230q0 -66 20.5 -93t74.5 -27z" />
    <glyph glyph-name="udieresis" unicode="&#xfc;" horiz-adv-x="697" 
d="M215 551q-97 0 -97 82t97 82q47 0 74 -20.5t27 -61.5q0 -82 -101 -82zM473 551q-98 0 -98 82t98 82q47 0 73.5 -20.5t26.5 -61.5q0 -82 -100 -82zM331 158q65 0 97.5 36.5t32.5 138.5v175h192v-508h-192v51l37 103h-47q-15 -72 -64 -118t-126 -46q-102 0 -159 67.5
t-57 189.5v261h191v-230q0 -66 20.5 -93t74.5 -27z" />
    <glyph glyph-name="yacute" unicode="&#xfd;" horiz-adv-x="704" 
d="M570 635l-423 -89l-31 134l423 89zM472 508h218l-237 -468v-163q0 -47 -24.5 -71.5t-68.5 -22.5l-269 6v168h170v83l-236 468h216l93 -235v-97h46v97z" />
    <glyph glyph-name="thorn" unicode="&#xfe;" horiz-adv-x="701" 
d="M453 518q105 0 159 -75.5t54 -188.5q0 -114 -54 -189t-159 -75q-88 0 -129.5 34t-67.5 94h-47l37 -104v-208h-191v929h191v-241l-37 -103h47q17 38 34.5 62t59.5 44.5t103 20.5zM358 158q61 0 89 22.5t28 73.5t-28 73.5t-89 22.5q-60 0 -86 -22.5t-26 -73.5q0 -52 26 -74
t86 -22z" />
    <glyph glyph-name="ydieresis" unicode="&#xff;" horiz-adv-x="704" 
d="M226 551q-97 0 -97 82t97 82q47 0 74 -20.5t27 -61.5q0 -82 -101 -82zM484 551q-98 0 -98 82t98 82q47 0 73.5 -20.5t26.5 -61.5q0 -82 -100 -82zM472 508h218l-237 -468v-163q0 -47 -24.5 -71.5t-68.5 -22.5l-269 6v168h170v83l-236 468h216l93 -235v-97h46v97z" />
    <glyph glyph-name="Amacron" unicode="&#x100;" horiz-adv-x="812" 
d="M643 932v-140l-473 -2v142h473zM603 0l-54 206h-286l-54 -206h-194l193 705h395l194 -705h-194zM307 374h197l-75 284h-47z" />
    <glyph glyph-name="amacron" unicode="&#x101;" horiz-adv-x="665" 
d="M84 735h473v-140l-473 -2v142zM35 138q0 70 48.5 108.5t167.5 50.5l144 16q1 26 -19 38t-66 12q-42 0 -63 -14.5t-21 -36.5h-178q0 99 75 152.5t187 53.5q55 0 102.5 -12t88 -38.5t63.5 -74t23 -111.5v-114h73v-168h-122q-39 0 -61 21.5t-22 60.5l30 63h-46
q-15 -72 -62.5 -113.5t-149.5 -41.5q-58 0 -98.5 15t-59.5 40t-26.5 47.5t-7.5 45.5zM222 171q0 -26 56 -26q49 0 83 21t34 56l-108 -18q-51 -9 -59 -17q-6 -7 -6 -16z" />
    <glyph glyph-name="Abreve" unicode="&#x102;" horiz-adv-x="812" 
d="M406 749q-54 0 -93 18.5t-60 49.5t-30.5 66.5t-9.5 75.5h141q0 -48 13.5 -64.5t38.5 -16.5t39 16.5t14 64.5h141q0 -40 -9.5 -75.5t-30.5 -66.5t-60.5 -49.5t-93.5 -18.5zM603 0l-54 206h-286l-54 -206h-194l193 705h395l194 -705h-194zM307 374h197l-75 284h-47z" />
    <glyph glyph-name="abreve" unicode="&#x103;" horiz-adv-x="665" 
d="M514 762q0 -40 -9.5 -75.5t-30.5 -66.5t-60.5 -49.5t-93.5 -18.5t-93 18.5t-60 49.5t-30.5 66.5t-9.5 75.5h141q0 -48 13.5 -64.5t38.5 -16.5t39 16.5t14 64.5h141zM35 138q0 70 48.5 108.5t167.5 50.5l144 16q1 26 -19 38t-66 12q-42 0 -63 -14.5t-21 -36.5h-178
q0 99 75 152.5t187 53.5q55 0 102.5 -12t88 -38.5t63.5 -74t23 -111.5v-114h73v-168h-122q-39 0 -61 21.5t-22 60.5l30 63h-46q-15 -72 -62.5 -113.5t-149.5 -41.5q-58 0 -98.5 15t-59.5 40t-26.5 47.5t-7.5 45.5zM222 171q0 -26 56 -26q49 0 83 21t34 56l-108 -18
q-51 -9 -59 -17q-6 -7 -6 -16z" />
    <glyph glyph-name="Aogonek" unicode="&#x104;" horiz-adv-x="812" 
d="M771 -60l115 12v-142l-179 -14q-60 -4 -93 36.5t-5 81.5l59 86h-65l-54 206h-286l-54 -206h-194l193 705h395l194 -704v-1zM307 374h197l-75 284h-47z" />
    <glyph glyph-name="aogonek" unicode="&#x105;" horiz-adv-x="665" 
d="M634 -60l115 12v-142l-179 -14q-60 -4 -93 36.5t-5 81.5l59 86q-76 5 -76 82l30 63h-46q-15 -72 -62.5 -113.5t-149.5 -41.5q-58 0 -98.5 15t-59.5 40t-26.5 47.5t-7.5 45.5q0 70 48.5 108.5t167.5 50.5l144 16q1 26 -19 38t-66 12q-42 0 -63 -14.5t-21 -36.5h-178
q0 99 75 152.5t187 53.5q55 0 102.5 -12t88 -38.5t63.5 -74t23 -111.5v-114h73v-168zM278 145q49 0 83 21t34 56l-108 -18q-51 -9 -59 -17q-6 -7 -6 -16q0 -26 56 -26z" />
    <glyph glyph-name="Cacute" unicode="&#x106;" horiz-adv-x="824" 
d="M176 877l423 89l31 -134l-423 -89zM45 353q0 157 102.5 259.5t272.5 102.5q152 0 247.5 -75.5t111.5 -206.5h-191q-12 55 -57.5 84.5t-108.5 29.5q-85 0 -135.5 -48.5t-50.5 -145.5q0 -98 50.5 -146.5t135.5 -48.5q63 0 108.5 30t57.5 85h191q-16 -132 -111.5 -207.5
t-247.5 -75.5q-170 0 -272.5 102.5t-102.5 260.5z" />
    <glyph glyph-name="cacute" unicode="&#x107;" horiz-adv-x="641" 
d="M79 680l423 89l31 -134l-423 -89zM35 255q0 128 79 195.5t206 67.5q120 0 201.5 -61.5t85.5 -165.5h-192q-3 22 -28 40.5t-67 18.5q-40 0 -67 -24t-27 -71q0 -48 27.5 -72.5t66.5 -24.5q42 0 67 18.5t28 40.5h192q-4 -104 -85.5 -165.5t-201.5 -61.5q-127 0 -206 68
t-79 197z" />
    <glyph glyph-name="Cdotaccent" unicode="&#x10a;" horiz-adv-x="824" 
d="M414 748q-97 0 -97 82t97 82q47 0 74 -20.5t27 -61.5q0 -82 -101 -82zM45 353q0 157 102.5 259.5t272.5 102.5q152 0 247.5 -75.5t111.5 -206.5h-191q-12 55 -57.5 84.5t-108.5 29.5q-85 0 -135.5 -48.5t-50.5 -145.5q0 -98 50.5 -146.5t135.5 -48.5q63 0 108.5 30
t57.5 85h191q-16 -132 -111.5 -207.5t-247.5 -75.5q-170 0 -272.5 102.5t-102.5 260.5z" />
    <glyph glyph-name="cdotaccent" unicode="&#x10b;" horiz-adv-x="641" 
d="M317 551q-97 0 -97 82t97 82q47 0 74 -20.5t27 -61.5q0 -82 -101 -82zM35 255q0 128 79 195.5t206 67.5q120 0 201.5 -61.5t85.5 -165.5h-192q-3 22 -28 40.5t-67 18.5q-40 0 -67 -24t-27 -71q0 -48 27.5 -72.5t66.5 -24.5q42 0 67 18.5t28 40.5h192
q-4 -104 -85.5 -165.5t-201.5 -61.5q-127 0 -206 68t-79 197z" />
    <glyph glyph-name="Ccaron" unicode="&#x10c;" horiz-adv-x="824" 
d="M655 902l-238 -160l-237 160l101 93l136 -89l137 89zM45 353q0 157 102.5 259.5t272.5 102.5q152 0 247.5 -75.5t111.5 -206.5h-191q-12 55 -57.5 84.5t-108.5 29.5q-85 0 -135.5 -48.5t-50.5 -145.5q0 -98 50.5 -146.5t135.5 -48.5q63 0 108.5 30t57.5 85h191
q-16 -132 -111.5 -207.5t-247.5 -75.5q-170 0 -272.5 102.5t-102.5 260.5z" />
    <glyph glyph-name="ccaron" unicode="&#x10d;" horiz-adv-x="641" 
d="M557 705l-238 -160l-237 160l101 93l136 -89l137 89zM35 255q0 128 79 195.5t206 67.5q120 0 201.5 -61.5t85.5 -165.5h-192q-3 22 -28 40.5t-67 18.5q-40 0 -67 -24t-27 -71q0 -48 27.5 -72.5t66.5 -24.5q42 0 67 18.5t28 40.5h192q-4 -104 -85.5 -165.5t-201.5 -61.5
q-127 0 -206 68t-79 197z" />
    <glyph glyph-name="Dcaron" unicode="&#x10e;" horiz-adv-x="770" 
d="M557 902l-238 -160l-237 160l101 93l136 -89l137 89zM329 705q65 0 117 -7t106.5 -29.5t90.5 -60t59.5 -102.5t23.5 -153t-23.5 -153t-59.5 -102.5t-90.5 -60.5t-106.5 -30t-117 -7h-274v705h274zM329 168q46 0 70.5 2t54.5 11.5t44.5 28.5t25 54.5t10.5 88.5
q0 44 -6 75.5t-20 51.5t-28.5 32t-42.5 17t-49 6.5t-59 1.5h-83v-369h83z" />
    <glyph glyph-name="dcaron" unicode="&#x10f;" horiz-adv-x="909" 
d="M746 788h140v-346h-140v346zM646 0h-191v14l37 104h-47q-26 -60 -67.5 -94t-128.5 -34q-106 0 -160 75.5t-54 189.5q0 113 54 188t160 75q46 0 80.5 -10.5t56.5 -30.5t34.5 -39t24.5 -47h47l-37 103v241h191v-735zM455 255q0 50 -26 72.5t-86 22.5q-61 0 -89 -22.5
t-28 -72.5t28 -73.5t89 -23.5q60 0 86 23t26 74z" />
    <glyph glyph-name="Dcroat" unicode="&#x110;" horiz-adv-x="857" 
d="M416 705q65 0 117 -7t106 -29.5t90.5 -60t59.5 -102.5t23 -153t-23 -153t-59.5 -102.5t-90.5 -60.5t-106 -30t-117 -7h-275v294h-96v142h96v269h275zM416 168q46 0 70.5 2t54.5 11.5t44.5 28.5t25 54.5t10.5 88.5q0 44 -6 75.5t-20 51.5t-28.5 32t-42.5 17t-49 6.5
t-59 1.5h-83v-101h130v-142h-130v-126h83z" />
    <glyph glyph-name="dcroat" unicode="&#x111;" horiz-adv-x="731" 
d="M706 691v-142h-60v-549h-191v14l37 104h-47q-26 -60 -67.5 -94t-128.5 -34q-106 0 -160 75.5t-54 189.5q0 113 54 188t160 75q46 0 80.5 -10.5t56.5 -30.5t34.5 -39t24.5 -47h47l-37 103v55h-141v142h141v44h191v-44h60zM343 158q60 0 86 23t26 74q0 50 -26 72.5
t-86 22.5q-61 0 -89 -22.5t-28 -72.5t28 -73.5t89 -23.5z" />
    <glyph glyph-name="Emacron" unicode="&#x112;" horiz-adv-x="619" 
d="M84 932h473v-140l-473 -2v142zM55 0v705h529v-168h-338v-100h288v-168h-288v-101h338v-168h-529z" />
    <glyph glyph-name="emacron" unicode="&#x113;" horiz-adv-x="645" 
d="M87 735h473v-140l-473 -2v142zM35 260q0 118 76.5 188t200.5 70q123 0 201.5 -69t78.5 -178v-49h-379q-2 -39 28.5 -62t88.5 -23q33 0 58.5 12.5t30.5 30.5h191q-2 -29 -21 -60.5t-52 -61t-87.5 -49t-119.5 -19.5q-143 0 -219 77.5t-76 192.5zM213 303h201q0 60 -102 60
q-57 0 -78 -16t-21 -44z" />
    <glyph glyph-name="Edotaccent" unicode="&#x116;" horiz-adv-x="619" 
d="M317 748q-97 0 -97 82t97 82q47 0 74 -20.5t27 -61.5q0 -82 -101 -82zM55 0v705h529v-168h-338v-100h288v-168h-288v-101h338v-168h-529z" />
    <glyph glyph-name="edotaccent" unicode="&#x117;" horiz-adv-x="645" 
d="M320 551q-97 0 -97 82t97 82q47 0 74 -20.5t27 -61.5q0 -82 -101 -82zM35 260q0 118 76.5 188t200.5 70q123 0 201.5 -69t78.5 -178v-49h-379q-2 -39 28.5 -62t88.5 -23q33 0 58.5 12.5t30.5 30.5h191q-2 -29 -21 -60.5t-52 -61t-87.5 -49t-119.5 -19.5q-143 0 -219 77.5
t-76 192.5zM213 303h201q0 60 -102 60q-57 0 -78 -16t-21 -44z" />
    <glyph glyph-name="Eogonek" unicode="&#x118;" horiz-adv-x="619" 
d="M584 537h-338v-100h288v-168h-288v-101h338v-168h-99l-26 -60l115 12v-142l-179 -14q-60 -4 -93 36.5t-5 81.5l59 86h-301v705h529v-168z" />
    <glyph glyph-name="eogonek" unicode="&#x119;" horiz-adv-x="645" 
d="M610 180q-4 -52 -56 -106t-138 -74l-25 -60l115 12v-142l-179 -14q-60 -4 -93 36.5t-5 81.5l54 78q-121 14 -184.5 89t-63.5 179q0 118 76.5 188t200.5 70q123 0 201.5 -69t78.5 -178v-49h-379q-2 -39 28.5 -62t88.5 -23q33 0 58.5 12.5t30.5 30.5h191zM312 363
q-57 0 -78 -16t-21 -44h201q0 60 -102 60z" />
    <glyph glyph-name="Ecaron" unicode="&#x11a;" horiz-adv-x="619" 
d="M558 902l-238 -160l-237 160l101 93l136 -89l137 89zM55 0v705h529v-168h-338v-100h288v-168h-288v-101h338v-168h-529z" />
    <glyph glyph-name="ecaron" unicode="&#x11b;" horiz-adv-x="645" 
d="M561 705l-238 -160l-237 160l101 93l136 -89l137 89zM35 260q0 118 76.5 188t200.5 70q123 0 201.5 -69t78.5 -178v-49h-379q-2 -39 28.5 -62t88.5 -23q33 0 58.5 12.5t30.5 30.5h191q-2 -29 -21 -60.5t-52 -61t-87.5 -49t-119.5 -19.5q-143 0 -219 77.5t-76 192.5z
M213 303h201q0 60 -102 60q-57 0 -78 -16t-21 -44z" />
    <glyph glyph-name="Gbreve" unicode="&#x11e;" horiz-adv-x="919" 
d="M604 959q0 -40 -9.5 -75.5t-30.5 -66.5t-60.5 -49.5t-93.5 -18.5t-93 18.5t-60 49.5t-30.5 66.5t-9.5 75.5h141q0 -48 13.5 -64.5t38.5 -16.5t39 16.5t14 64.5h141zM45 353q0 161 104 261.5t260 100.5q134 0 234 -74t116 -188h-191q-12 51 -49.5 72.5t-109.5 21.5
q-85 0 -129 -44t-44 -150q0 -107 37.5 -151t114.5 -44q60 0 97 26t38 74h-130v142h377q45 0 70 -25.5t25 -71.5v-303h-192v235l37 118h-47q-1 -167 -71 -265t-212 -98q-158 0 -246.5 98.5t-88.5 264.5z" />
    <glyph glyph-name="gbreve" unicode="&#x11f;" horiz-adv-x="724" 
d="M345 552q-54 0 -93 18.5t-60 49.5t-30.5 66.5t-9.5 75.5h141q0 -48 13.5 -64.5t38.5 -16.5t39 16.5t14 64.5h141q0 -40 -9.5 -75.5t-30.5 -66.5t-60.5 -49.5t-93.5 -18.5zM676 508h44v-168h-31q-31 0 -39 -4v-2q1 -3 1.5 -6.5t1.5 -8t1.5 -10.5t0.5 -11q0 -65 -58 -111.5
t-166 -81.5q61 1 107.5 -10.5t78.5 -44t32 -82.5q0 -34 -12.5 -60t-34 -44.5t-60.5 -31t-81 -20.5t-108 -12t-130 -5.5t-156 -1.5v168q262 0 325.5 8t63.5 42q0 10 -5.5 17t-17.5 11.5t-25.5 7t-35 3t-41 0t-47.5 -2.5t-50.5 -4t-54.5 -4.5t-55 -4.5l-18 93q231 2 341 24v47
q-61 -20 -130.5 -25.5t-133.5 4t-106 47t-42 98.5q0 95 82.5 145.5t214.5 50.5q137 0 212 -56q26 46 132 46zM345 268q67 0 93 12.5t26 40.5t-26 41t-93 13t-93 -13t-26 -41t26 -40.5t93 -12.5z" />
    <glyph glyph-name="Gdotaccent" unicode="&#x120;" horiz-adv-x="919" 
d="M408 748q-97 0 -97 82t97 82q47 0 74 -20.5t27 -61.5q0 -82 -101 -82zM45 353q0 161 104 261.5t260 100.5q134 0 234 -74t116 -188h-191q-12 51 -49.5 72.5t-109.5 21.5q-85 0 -129 -44t-44 -150q0 -107 37.5 -151t114.5 -44q60 0 97 26t38 74h-130v142h377
q45 0 70 -25.5t25 -71.5v-303h-192v235l37 118h-47q-1 -167 -71 -265t-212 -98q-158 0 -246.5 98.5t-88.5 264.5z" />
    <glyph glyph-name="gdotaccent" unicode="&#x121;" horiz-adv-x="724" 
d="M343 551q-97 0 -97 82t97 82q47 0 74 -20.5t27 -61.5q0 -82 -101 -82zM676 508h44v-168h-31q-31 0 -39 -4v-2q1 -3 1.5 -6.5t1.5 -8t1.5 -10.5t0.5 -11q0 -65 -58 -111.5t-166 -81.5q61 1 107.5 -10.5t78.5 -44t32 -82.5q0 -34 -12.5 -60t-34 -44.5t-60.5 -31t-81 -20.5
t-108 -12t-130 -5.5t-156 -1.5v168q262 0 325.5 8t63.5 42q0 10 -5.5 17t-17.5 11.5t-25.5 7t-35 3t-41 0t-47.5 -2.5t-50.5 -4t-54.5 -4.5t-55 -4.5l-18 93q231 2 341 24v47q-61 -20 -130.5 -25.5t-133.5 4t-106 47t-42 98.5q0 95 82.5 145.5t214.5 50.5q137 0 212 -56
q26 46 132 46zM345 268q67 0 93 12.5t26 40.5t-26 41t-93 13t-93 -13t-26 -41t26 -40.5t93 -12.5z" />
    <glyph glyph-name="uni0122" unicode="&#x122;" horiz-adv-x="919" 
d="M45 353q0 161 104 261.5t260 100.5q134 0 234 -74t116 -188h-191q-12 51 -49.5 72.5t-109.5 21.5q-85 0 -129 -44t-44 -150q0 -107 37.5 -151t114.5 -44q60 0 97 26t38 74h-130v142h377q45 0 70 -25.5t25 -71.5v-303h-192v235l37 118h-47q-1 -167 -71 -265t-212 -98
q-158 0 -246.5 98.5t-88.5 264.5zM311 -49l133 -44l-66 -173l-132 44z" />
    <glyph glyph-name="uni0123" unicode="&#x123;" horiz-adv-x="724" 
d="M477 778l-80 -232l-135 36l79 232zM676 508h44v-168h-31q-31 0 -39 -4v-2q1 -3 1.5 -6.5t1.5 -8t1.5 -10.5t0.5 -11q0 -65 -58 -111.5t-166 -81.5q61 1 107.5 -10.5t78.5 -44t32 -82.5q0 -34 -12.5 -60t-34 -44.5t-60.5 -31t-81 -20.5t-108 -12t-130 -5.5t-156 -1.5v168
q262 0 325.5 8t63.5 42q0 10 -5.5 17t-17.5 11.5t-25.5 7t-35 3t-41 0t-47.5 -2.5t-50.5 -4t-54.5 -4.5t-55 -4.5l-18 93q231 2 341 24v47q-61 -20 -130.5 -25.5t-133.5 4t-106 47t-42 98.5q0 95 82.5 145.5t214.5 50.5q137 0 212 -56q26 46 132 46zM345 268q67 0 93 12.5
t26 40.5t-26 41t-93 13t-93 -13t-26 -41t26 -40.5t93 -12.5z" />
    <glyph glyph-name="Hbar" unicode="&#x126;" horiz-adv-x="881" 
d="M857 633v-142h-60v-491h-192v257h-329v-257h-191v491h-60v142h60v72h191v-72h329v72h192v-72h60zM605 425v66h-329v-66h329z" />
    <glyph glyph-name="hbar" unicode="&#x127;" horiz-adv-x="751" 
d="M489 518q103 0 160 -67t57 -190v-261h-191v230q0 67 -20.5 93.5t-75.5 26.5q-65 0 -97.5 -36.5t-32.5 -138.5v-175h-191v549h-63v142h63v44h191v-44h137v-142h-137v-92l-36 -103h46q16 72 64.5 118t125.5 46z" />
    <glyph glyph-name="Imacron" unicode="&#x12a;" horiz-adv-x="603" 
d="M538 932v-140l-473 -2v142h473zM558 537h-161v-369h161v-168h-513v168h161v369h-161v168h513v-168z" />
    <glyph glyph-name="imacron" unicode="&#x12b;" horiz-adv-x="543" 
d="M40 735h473v-140l-473 -2v142zM55 0v168h143v177l-130 -5v168l221 10q44 2 69.5 -21.5t25.5 -68.5v-260h144v-168h-473z" />
    <glyph glyph-name="Iogonek" unicode="&#x12e;" horiz-adv-x="603" 
d="M558 537h-161v-369h161v-168h-96l-26 -60l115 12v-142l-179 -14q-60 -4 -93 36.5t-5 81.5l59 86h-288v168h161v369h-161v168h513v-168z" />
    <glyph glyph-name="iogonek" unicode="&#x12f;" horiz-adv-x="523" 
d="M239 551q-97 0 -97 82t97 82q47 0 74 -20.5t27 -61.5q0 -82 -101 -82zM508 0h-99l-26 -60l115 12v-142l-179 -14q-60 -4 -93 36.5t-5 81.5l59 86h-245v168h143v177l-130 -5v168l221 10q44 2 69.5 -21.5t25.5 -68.5v-260h144v-168z" />
    <glyph glyph-name="Idotaccent" unicode="&#x130;" horiz-adv-x="603" 
d="M299 748q-97 0 -97 82t97 82q47 0 74 -20.5t27 -61.5q0 -82 -101 -82zM558 537h-161v-369h161v-168h-513v168h161v369h-161v168h513v-168z" />
    <glyph glyph-name="dotlessi" unicode="&#x131;" horiz-adv-x="523" 
d="M35 0v168h143v177l-130 -5v168l221 10q44 2 69.5 -21.5t25.5 -68.5v-260h144v-168h-473z" />
    <glyph glyph-name="uni0136" unicode="&#x136;" horiz-adv-x="808" 
d="M794 705l-423 -353l423 -352h-280l-268 228v-228h-191v705h191v-229l268 229h280zM249 -222l65 173l133 -44l-66 -173z" />
    <glyph glyph-name="uni0137" unicode="&#x137;" horiz-adv-x="712" 
d="M527 253l160 -253h-217l-109 180l-115 -50v-130h-191v735h191v-408l222 93l1 88h192l-4 -117q-1 -79 -72 -112zM216 -222l65 173l133 -44l-66 -173z" />
    <glyph glyph-name="Lacute" unicode="&#x139;" horiz-adv-x="608" 
d="M54 877l423 89l32 -135l-423 -89zM160 -10q-47 -1 -71.5 23.5t-24.5 70.5v621h191v-547l338 10v-168z" />
    <glyph glyph-name="lacute" unicode="&#x13a;" horiz-adv-x="541" 
d="M23 907l423 89l31 -135l-423 -89zM54 0v168h140v404l-127 -5v168l224 6q45 1 70 -23t25 -69v-481h140v-168h-472z" />
    <glyph glyph-name="uni013B" unicode="&#x13b;" horiz-adv-x="599" 
d="M151 -10q-47 -1 -71.5 23.5t-24.5 70.5v621h191v-547l338 10v-168zM267 -49l133 -44l-66 -173l-132 44z" />
    <glyph glyph-name="uni013C" unicode="&#x13c;" horiz-adv-x="511" 
d="M25 0v168h140v404l-127 -5v168l224 6q45 1 69.5 -23t24.5 -69v-481h141v-168h-472zM181 -49l133 -44l-66 -173l-132 44z" />
    <glyph glyph-name="Lcaron" unicode="&#x13d;" horiz-adv-x="609" 
d="M367 788h140v-346h-140v346zM151 -10q-47 -1 -71.5 23.5t-24.5 70.5v621h191v-547l338 10v-168z" />
    <glyph glyph-name="lcaron" unicode="&#x13e;" horiz-adv-x="576" 
d="M423 788h140v-346h-140v346zM25 0v168h140v404l-127 -5v168l224 6q45 1 69.5 -23t24.5 -69v-481h141v-168h-472z" />
    <glyph glyph-name="Lslash" unicode="&#x141;" horiz-adv-x="703" 
d="M340 158l338 10v-168l-433 -10q-47 -1 -71.5 23.5t-24.5 70.5v211l-79 -21l-35 135l114 31v265h191v-214l166 45l35 -134l-201 -55v-189z" />
    <glyph glyph-name="lslash" unicode="&#x142;" horiz-adv-x="511" 
d="M356 168h141v-168h-472v168h140v99l-90 -25l-35 135l125 34v161l-127 -5v168l224 6q45 1 69.5 -23t24.5 -69v-185l90 25l35 -136l-125 -34v-151z" />
    <glyph glyph-name="Nacute" unicode="&#x143;" horiz-adv-x="843" 
d="M201 877l423 89l31 -134l-423 -89zM55 0v705h375l157 -658h47l-37 116v542h192v-705h-376l-157 658h-47l37 -116v-542h-191z" />
    <glyph glyph-name="nacute" unicode="&#x144;" horiz-adv-x="707" 
d="M131 680l423 89l31 -134l-423 -89zM376 350q-65 0 -97.5 -36.5t-32.5 -138.5v-175h-191v508h191v-51l-37 -103h47q16 72 64.5 118t125.5 46q102 0 159.5 -67t57.5 -190v-261h-192v230q0 67 -20 93.5t-75 26.5z" />
    <glyph glyph-name="uni0145" unicode="&#x145;" horiz-adv-x="843" 
d="M55 0v705h375l157 -658h47l-37 116v542h192v-705h-376l-157 658h-47l37 -116v-542h-191zM349 -49l133 -44l-66 -173l-132 44z" />
    <glyph glyph-name="uni0146" unicode="&#x146;" horiz-adv-x="707" 
d="M376 350q-65 0 -97.5 -36.5t-32.5 -138.5v-175h-191v508h191v-51l-37 -103h47q16 72 64.5 118t125.5 46q102 0 159.5 -67t57.5 -190v-261h-192v230q0 67 -20 93.5t-75 26.5zM292 -49l133 -44l-66 -173l-132 44z" />
    <glyph glyph-name="Ncaron" unicode="&#x147;" horiz-adv-x="843" 
d="M679 902l-238 -160l-237 160l101 93l136 -89l137 89zM55 0v705h375l157 -658h47l-37 116v542h192v-705h-376l-157 658h-47l37 -116v-542h-191z" />
    <glyph glyph-name="ncaron" unicode="&#x148;" horiz-adv-x="707" 
d="M610 705l-238 -160l-237 160l101 93l136 -89l137 89zM376 350q-65 0 -97.5 -36.5t-32.5 -138.5v-175h-191v508h191v-51l-37 -103h47q16 72 64.5 118t125.5 46q102 0 159.5 -67t57.5 -190v-261h-192v230q0 67 -20 93.5t-75 26.5z" />
    <glyph glyph-name="Eng" unicode="&#x14a;" horiz-adv-x="843" 
d="M597 705h192v-813q0 -47 -25 -72t-70 -23l-267 6v168l170 -5v34h-184l-157 658h-47l37 -116v-542h-191v705h375l157 -658h47l-37 116v542z" />
    <glyph glyph-name="eng" unicode="&#x14b;" horiz-adv-x="707" 
d="M446 518q102 0 159.5 -67t57.5 -190v-371q0 -47 -24.5 -71t-68.5 -22l-269 6v168l170 -5v264q0 67 -20 93.5t-75 26.5q-65 0 -97.5 -36.5t-32.5 -138.5v-175h-191v508h191v-51l-37 -103h47q16 72 64.5 118t125.5 46z" />
    <glyph glyph-name="Omacron" unicode="&#x14c;" horiz-adv-x="833" 
d="M181 932h473v-140l-473 -2v142zM45 353q0 157 101 259.5t271 102.5q169 0 270 -102.5t101 -259.5q0 -158 -101 -260.5t-270 -102.5q-170 0 -271 102.5t-101 260.5zM236 353q0 -94 46 -144.5t135 -50.5t134.5 50.5t45.5 144.5q0 93 -45.5 143.5t-134.5 50.5t-135 -50.5
t-46 -143.5z" />
    <glyph glyph-name="omacron" unicode="&#x14d;" horiz-adv-x="656" 
d="M92 735h473v-140l-473 -2v142zM35 255q0 68 23.5 119.5t64.5 82.5t93 46t113 15q128 0 210.5 -65.5t82.5 -197.5q0 -91 -41.5 -152t-105.5 -87t-146 -26q-129 0 -211.5 65.5t-82.5 199.5zM226 255q0 -97 103 -97q101 0 101 97q0 95 -101 95q-103 0 -103 -95z" />
    <glyph glyph-name="Ohungarumlaut" unicode="&#x150;" horiz-adv-x="833" 
d="M148 840l223 182l99 -92l-223 -182zM432 840l223 182l99 -92l-223 -182zM45 353q0 157 101 259.5t271 102.5q169 0 270 -102.5t101 -259.5q0 -158 -101 -260.5t-270 -102.5q-170 0 -271 102.5t-101 260.5zM236 353q0 -94 46 -144.5t135 -50.5t134.5 50.5t45.5 144.5
q0 93 -45.5 143.5t-134.5 50.5t-135 -50.5t-46 -143.5z" />
    <glyph glyph-name="ohungarumlaut" unicode="&#x151;" horiz-adv-x="656" 
d="M59 643l223 182l99 -92l-223 -182zM343 643l223 182l99 -92l-223 -182zM35 255q0 68 23.5 119.5t64.5 82.5t93 46t113 15q128 0 210.5 -65.5t82.5 -197.5q0 -91 -41.5 -152t-105.5 -87t-146 -26q-129 0 -211.5 65.5t-82.5 199.5zM226 255q0 -97 103 -97q101 0 101 97
q0 95 -101 95q-103 0 -103 -95z" />
    <glyph glyph-name="OE" unicode="&#x152;" horiz-adv-x="1171" 
d="M1137 537h-339v-100h289v-168h-289v-101h339v-168h-530v34q-83 -44 -190 -44q-170 0 -271 102.5t-101 260.5q0 157 101 259.5t271 102.5q107 0 190 -44v34h530v-168zM417 158q89 0 134.5 50.5t45.5 144.5q0 93 -45.5 143.5t-134.5 50.5t-135 -50.5t-46 -143.5
q0 -94 46 -144.5t135 -50.5z" />
    <glyph glyph-name="oe" unicode="&#x153;" horiz-adv-x="1091" 
d="M865 180h191q-6 -65 -81.5 -127.5t-198.5 -62.5q-142 0 -222 80q-77 -80 -225 -80q-129 0 -211.5 65.5t-82.5 199.5q0 68 23.5 119.5t64.5 82.5t93 46t113 15q143 0 222 -76q76 76 207 76q123 0 201.5 -69t78.5 -178v-49h-379q-2 -39 28.5 -62t88.5 -23q33 0 58.5 12.5
t30.5 30.5zM758 363q-58 0 -78.5 -16t-20.5 -44h200q0 60 -101 60zM329 158q101 0 101 97q0 95 -101 95q-103 0 -103 -95q0 -97 103 -97z" />
    <glyph glyph-name="Racute" unicode="&#x154;" horiz-adv-x="737" 
d="M112 877l423 89l31 -134l-423 -89zM55 0v705h288q330 0 330 -197q0 -43 -17.5 -73t-49.5 -46.5t-62 -24t-69 -11.5v-46h110q46 0 71.5 -26t25.5 -72v-209h-191v234h-245v-234h-191zM246 402h97q83 0 104 7q35 13 35 60q0 17 -3.5 29t-13 19t-17 11.5t-26 6t-29.5 2
t-37 0.5h-13h-97v-135z" />
    <glyph glyph-name="racute" unicode="&#x155;" horiz-adv-x="521" 
d="M47 680l423 89l32 -134l-424 -89zM71 0v425q0 44 24.5 67.5t68.5 23.5l353 -8v-168l-255 5v-345h-191z" />
    <glyph glyph-name="uni0156" unicode="&#x156;" horiz-adv-x="737" 
d="M55 0v705h288q330 0 330 -197q0 -43 -17.5 -73t-49.5 -46.5t-62 -24t-69 -11.5v-46h110q46 0 71.5 -26t25.5 -72v-209h-191v234h-245v-234h-191zM246 402h97q83 0 104 7q35 13 35 60q0 17 -3.5 29t-13 19t-17 11.5t-26 6t-29.5 2t-37 0.5h-13h-97v-135zM310 -49l133 -44
l-66 -173l-132 44z" />
    <glyph glyph-name="uni0157" unicode="&#x157;" horiz-adv-x="491" 
d="M40 0v425q0 44 24.5 67.5t68.5 23.5l353 -8v-168l-255 5v-345h-191zM65 -49l133 -44l-66 -173l-132 44z" />
    <glyph glyph-name="Rcaron" unicode="&#x158;" horiz-adv-x="737" 
d="M591 902l-238 -160l-237 160l101 93l136 -89l137 89zM55 0v705h288q330 0 330 -197q0 -43 -17.5 -73t-49.5 -46.5t-62 -24t-69 -11.5v-46h110q46 0 71.5 -26t25.5 -72v-209h-191v234h-245v-234h-191zM246 402h97q83 0 104 7q35 13 35 60q0 17 -3.5 29t-13 19t-17 11.5
t-26 6t-29.5 2t-37 0.5h-13h-97v-135z" />
    <glyph glyph-name="rcaron" unicode="&#x159;" horiz-adv-x="525" 
d="M522 705l-238 -160l-237 160l101 93l136 -89l137 89zM67 0v425q0 44 24.5 67.5t68.5 23.5l353 -8v-168l-255 5v-345h-191z" />
    <glyph glyph-name="Sacute" unicode="&#x15a;" horiz-adv-x="725" 
d="M122 877l423 89l31 -134l-423 -89zM700 201q0 -100 -77 -155.5t-237 -55.5q-188 0 -274.5 72t-86.5 213h191q0 -65 37.5 -91t139.5 -26q68 0 92 9t24 28q0 21 -32.5 37t-108.5 43q-19 6 -29 10q-139 48 -186 77q-96 59 -96 161q0 94 74 143t214 49q160 0 243 -68.5
t83 -184.5h-191q0 50 -34.5 67.5t-100.5 17.5q-97 0 -97 -32q0 -16 15.5 -25.5t95.5 -37.5q9 -3 40 -13.5t45 -15.5t44 -16.5t46.5 -19.5t42.5 -21.5t40.5 -25t32.5 -28t27.5 -33t16 -36.5t6.5 -42z" />
    <glyph glyph-name="sacute" unicode="&#x15b;" horiz-adv-x="572" 
d="M50 680l423 89l31 -134l-423 -89zM557 144q0 -154 -251 -154q-143 0 -212 50.5t-69 142.5h191q0 -20 22 -37.5t75 -17.5t53 21q0 9 -13 14.5t-81 29.5q-11 4 -36 12t-39 12.5t-36.5 13.5t-36 17t-30 21t-25.5 27t-15 33.5t-6 41.5q0 71 60.5 109t169.5 38
q123 0 192.5 -54t69.5 -135h-191q0 19 -18.5 35t-49.5 16q-42 0 -42 -18q0 -7 5.5 -12.5t20 -11.5t27 -10t39.5 -12t44 -14q46 -15 71.5 -25.5t55 -29t42.5 -44t13 -59.5z" />
    <glyph glyph-name="Scedilla" unicode="&#x15e;" horiz-adv-x="725" 
d="M700 201q0 -94 -68.5 -149t-209.5 -61l-46 -52q50 21 103 21q95 0 95 -64q0 -26 -11.5 -46t-35.5 -32.5t-49.5 -20.5t-64.5 -11.5t-70.5 -4.5t-75.5 -1v103h135q30 3 30 18q0 16 -23 16q-25 0 -81 -16l-58 39l19 56q-137 18 -200.5 87.5t-63.5 191.5h191q0 -65 37.5 -91
t139.5 -26q68 0 92 9t24 28q0 21 -32.5 37t-108.5 43q-19 6 -29 10q-139 48 -186 77q-96 59 -96 161q0 94 74 143t214 49q160 0 243 -68.5t83 -184.5h-191q0 50 -34.5 67.5t-100.5 17.5q-97 0 -97 -32q0 -16 15.5 -25.5t95.5 -37.5q9 -3 40 -13.5t45 -15.5t44 -16.5
t46.5 -19.5t42.5 -21.5t40.5 -25t32.5 -28t27.5 -33t16 -36.5t6.5 -42z" />
    <glyph glyph-name="scedilla" unicode="&#x15f;" horiz-adv-x="572" 
d="M557 144q0 -139 -206 -153l-46 -52q50 21 103 21q95 0 95 -64q0 -26 -11.5 -46t-35.5 -32.5t-49.5 -20.5t-64.5 -11.5t-70.5 -4.5t-75.5 -1v103h135q30 3 30 18q0 16 -23 16q-25 0 -81 -16l-58 39l19 56q-193 29 -193 187h191q0 -20 22 -37.5t75 -17.5t53 21
q0 9 -13 14.5t-81 29.5q-11 4 -36 12t-39 12.5t-36.5 13.5t-36 17t-30 21t-25.5 27t-15 33.5t-6 41.5q0 71 60.5 109t169.5 38q123 0 192.5 -54t69.5 -135h-191q0 19 -18.5 35t-49.5 16q-42 0 -42 -18q0 -7 5.5 -12.5t20 -11.5t27 -10t39.5 -12t44 -14q46 -15 71.5 -25.5
t55 -29t42.5 -44t13 -59.5z" />
    <glyph glyph-name="Scaron" unicode="&#x160;" horiz-adv-x="725" 
d="M601 902l-238 -160l-237 160l101 93l136 -89l137 89zM700 201q0 -100 -77 -155.5t-237 -55.5q-188 0 -274.5 72t-86.5 213h191q0 -65 37.5 -91t139.5 -26q68 0 92 9t24 28q0 21 -32.5 37t-108.5 43q-19 6 -29 10q-139 48 -186 77q-96 59 -96 161q0 94 74 143t214 49
q160 0 243 -68.5t83 -184.5h-191q0 50 -34.5 67.5t-100.5 17.5q-97 0 -97 -32q0 -16 15.5 -25.5t95.5 -37.5q9 -3 40 -13.5t45 -15.5t44 -16.5t46.5 -19.5t42.5 -21.5t40.5 -25t32.5 -28t27.5 -33t16 -36.5t6.5 -42z" />
    <glyph glyph-name="scaron" unicode="&#x161;" horiz-adv-x="572" 
d="M529 705l-238 -160l-237 160l101 93l136 -89l137 89zM557 144q0 -154 -251 -154q-143 0 -212 50.5t-69 142.5h191q0 -20 22 -37.5t75 -17.5t53 21q0 9 -13 14.5t-81 29.5q-11 4 -36 12t-39 12.5t-36.5 13.5t-36 17t-30 21t-25.5 27t-15 33.5t-6 41.5q0 71 60.5 109
t169.5 38q123 0 192.5 -54t69.5 -135h-191q0 19 -18.5 35t-49.5 16q-42 0 -42 -18q0 -7 5.5 -12.5t20 -11.5t27 -10t39.5 -12t44 -14q46 -15 71.5 -25.5t55 -29t42.5 -44t13 -59.5z" />
    <glyph glyph-name="uni0162" unicode="&#x162;" horiz-adv-x="690" 
d="M441 0h-28l-54 -61q50 21 103 21q95 0 95 -64q0 -26 -11.5 -46t-35.5 -32.5t-49.5 -20.5t-64.5 -11.5t-70.5 -4.5t-75.5 -1v103h135q30 3 30 18q0 16 -23 16q-25 0 -81 -16l-58 39l20 60h-23v537h-225v168h641v-168h-225v-537z" />
    <glyph glyph-name="uni0163" unicode="&#x163;" horiz-adv-x="535" 
d="M434 -40q95 0 95 -64q0 -26 -11.5 -46t-35.5 -32.5t-49.5 -20.5t-64.5 -11.5t-70.5 -4.5t-75.5 -1v103h135q30 3 30 18q0 16 -23 16q-25 0 -81 -16l-58 39l17 51l-21 -1q-44 -1 -68 23t-24 69v258h-124v168h124v82l191 60v-142h171v-168h-171v-182l191 10v-168l-130 -4
l-50 -57q50 21 103 21z" />
    <glyph glyph-name="Tcaron" unicode="&#x164;" horiz-adv-x="690" 
d="M583 902l-238 -160l-237 160l101 93l136 -89l137 89zM666 705v-168h-225v-537h-191v537h-225v168h641z" />
    <glyph glyph-name="tcaron" unicode="&#x165;" horiz-adv-x="535" 
d="M388 735h139v-180h-139v180zM320 340v-182l191 10v-168l-290 -10q-44 -1 -68 23t-24 69v258h-124v168h124v82l191 60v-142h171v-168h-171z" />
    <glyph glyph-name="Tbar" unicode="&#x166;" horiz-adv-x="690" 
d="M666 537h-225v-141h147v-142h-147v-254h-191v254h-149v142h149v141h-225v168h641v-168z" />
    <glyph glyph-name="tbar" unicode="&#x167;" horiz-adv-x="535" 
d="M320 158l191 10v-168l-290 -10q-44 -1 -68 23t-24 69v111h-104v116h104v31h-124v168h124v82l191 60v-142h171v-168h-171v-31h154v-116h-154v-35z" />
    <glyph glyph-name="Umacron" unicode="&#x16a;" horiz-adv-x="738" 
d="M132 932h473v-140l-473 -2v142zM35 262v443h191v-349v-11q0 -28 0.5 -41t2 -35.5t5 -33t10 -26t17 -22.5t25 -15t35.5 -11t47 -3q30 0 53 5t38.5 12t25.5 22.5t15.5 27.5t8 36.5t3 40t0.5 47.5v7v349h191v-443q0 -132 -86.5 -202t-248.5 -70q-161 0 -247 70t-86 202z" />
    <glyph glyph-name="umacron" unicode="&#x16b;" horiz-adv-x="697" 
d="M109 735h473v-140l-473 -2v142zM331 158q65 0 97.5 36.5t32.5 138.5v175h192v-508h-192v51l37 103h-47q-15 -72 -64 -118t-126 -46q-102 0 -159 67.5t-57 189.5v261h191v-230q0 -66 20.5 -93t74.5 -27z" />
    <glyph glyph-name="Uring" unicode="&#x16e;" horiz-adv-x="738" 
d="M367 750q-172 0 -172 129q0 130 172 130q173 0 173 -130q0 -129 -173 -129zM367 848q45 0 45 31q0 30 -45 30q-44 0 -44 -30q0 -31 44 -31zM35 262v443h191v-349v-11q0 -28 0.5 -41t2 -35.5t5 -33t10 -26t17 -22.5t25 -15t35.5 -11t47 -3q30 0 53 5t38.5 12t25.5 22.5
t15.5 27.5t8 36.5t3 40t0.5 47.5v7v349h191v-443q0 -132 -86.5 -202t-248.5 -70q-161 0 -247 70t-86 202z" />
    <glyph glyph-name="uring" unicode="&#x16f;" horiz-adv-x="697" 
d="M344 553q-172 0 -172 129q0 130 172 130q173 0 173 -130q0 -129 -173 -129zM344 651q45 0 45 31q0 30 -45 30q-44 0 -44 -30q0 -31 44 -31zM331 158q65 0 97.5 36.5t32.5 138.5v175h192v-508h-192v51l37 103h-47q-15 -72 -64 -118t-126 -46q-102 0 -159 67.5t-57 189.5
v261h191v-230q0 -66 20.5 -93t74.5 -27z" />
    <glyph glyph-name="Uhungarumlaut" unicode="&#x170;" horiz-adv-x="738" 
d="M99 840l223 182l99 -92l-223 -182zM383 840l223 182l99 -92l-223 -182zM35 262v443h191v-349v-11q0 -28 0.5 -41t2 -35.5t5 -33t10 -26t17 -22.5t25 -15t35.5 -11t47 -3q30 0 53 5t38.5 12t25.5 22.5t15.5 27.5t8 36.5t3 40t0.5 47.5v7v349h191v-443q0 -132 -86.5 -202
t-248.5 -70q-161 0 -247 70t-86 202z" />
    <glyph glyph-name="uhungarumlaut" unicode="&#x171;" horiz-adv-x="697" 
d="M76 643l223 182l99 -92l-223 -182zM360 643l223 182l99 -92l-223 -182zM331 158q65 0 97.5 36.5t32.5 138.5v175h192v-508h-192v51l37 103h-47q-15 -72 -64 -118t-126 -46q-102 0 -159 67.5t-57 189.5v261h191v-230q0 -66 20.5 -93t74.5 -27z" />
    <glyph glyph-name="Uogonek" unicode="&#x172;" horiz-adv-x="738" 
d="M512 705h191v-443q0 -108 -58.5 -175t-169.5 -88l-25 -59l115 12v-142l-179 -14q-60 -4 -93 36.5t-5 81.5l53 77q-148 5 -227 75t-79 196v443h191v-349v-11q0 -28 0.5 -41t2 -35.5t5 -33t10 -26t17 -22.5t25 -15t35.5 -11t47 -3q30 0 53 5t38.5 12t25.5 22.5t15.5 27.5
t8 36.5t3 40t0.5 47.5v7v349z" />
    <glyph glyph-name="uogonek" unicode="&#x173;" horiz-adv-x="697" 
d="M627 -60l115 12v-142l-179 -14q-60 -4 -93 36.5t-5 81.5l59 86h-63v51l37 103h-47q-15 -72 -64 -118t-126 -46q-102 0 -159 67.5t-57 189.5v261h191v-230q0 -66 20.5 -93t74.5 -27q65 0 97.5 36.5t32.5 138.5v175h192v-508z" />
    <glyph glyph-name="Wcircumflex" unicode="&#x174;" horiz-adv-x="1230" 
d="M853 827l-101 -93l-137 89l-136 -89l-101 93l237 160zM15 705h186l99 -658h46l65 658h408l65 -658h46l99 658h186l-109 -705h-398l-70 658h-46l-70 -658h-398z" />
    <glyph glyph-name="wcircumflex" unicode="&#x175;" horiz-adv-x="983" 
d="M729 630l-101 -93l-137 89l-136 -89l-101 93l237 160zM5 508h183l43 -461h46l14 461h401l14 -461h47l44 461h182l-50 -508h-400l-14 462h-47l-14 -462h-400z" />
    <glyph glyph-name="Ycircumflex" unicode="&#x176;" horiz-adv-x="749" 
d="M611 827l-101 -93l-137 89l-136 -89l-101 93l237 160zM529 705h205l-265 -492v-213h-191v213l-263 492h204l131 -273v-104h47v104z" />
    <glyph glyph-name="ycircumflex" unicode="&#x177;" horiz-adv-x="704" 
d="M357 626l-136 -89l-101 93l237 160l238 -160l-101 -93zM472 508h218l-237 -468v-163q0 -47 -24.5 -71.5t-68.5 -22.5l-269 6v168h170v83l-236 468h216l93 -235v-97h46v97z" />
    <glyph glyph-name="Ydieresis" unicode="&#x178;" horiz-adv-x="749" 
d="M243 748q-97 0 -97 82t97 82q47 0 74 -20.5t27 -61.5q0 -82 -101 -82zM501 748q-98 0 -98 82t98 82q47 0 73.5 -20.5t26.5 -61.5q0 -82 -100 -82zM529 705h205l-265 -492v-213h-191v213l-263 492h204l131 -273v-104h47v104z" />
    <glyph glyph-name="Zacute" unicode="&#x179;" horiz-adv-x="673" 
d="M96 877l423 89l31 -134l-423 -89zM35 0v351l557 176v47l-104 -37h-453v168h603v-351l-557 -176v-47l104 37h453v-168h-603z" />
    <glyph glyph-name="zacute" unicode="&#x17a;" horiz-adv-x="583" 
d="M51 680l423 89l31 -134l-423 -89zM35 0v281l467 56v46l-104 -36h-363v161h513v-280l-467 -56v-47l104 37h363v-162h-513z" />
    <glyph glyph-name="Zdotaccent" unicode="&#x17b;" horiz-adv-x="673" 
d="M334 748q-97 0 -97 82t97 82q47 0 74 -20.5t27 -61.5q0 -82 -101 -82zM35 0v351l557 176v47l-104 -37h-453v168h603v-351l-557 -176v-47l104 37h453v-168h-603z" />
    <glyph glyph-name="zdotaccent" unicode="&#x17c;" horiz-adv-x="583" 
d="M289 551q-97 0 -97 82t97 82q47 0 74 -20.5t27 -61.5q0 -82 -101 -82zM35 0v281l467 56v46l-104 -36h-363v161h513v-280l-467 -56v-47l104 37h363v-162h-513z" />
    <glyph glyph-name="Zcaron" unicode="&#x17d;" horiz-adv-x="673" 
d="M575 902l-238 -160l-237 160l101 93l136 -89l137 89zM35 0v351l557 176v47l-104 -37h-453v168h603v-351l-557 -176v-47l104 37h453v-168h-603z" />
    <glyph glyph-name="zcaron" unicode="&#x17e;" horiz-adv-x="583" 
d="M530 705l-238 -160l-237 160l101 93l136 -89l137 89zM35 0v281l467 56v46l-104 -36h-363v161h513v-280l-467 -56v-47l104 37h363v-162h-513z" />
    <glyph glyph-name="uni0218" unicode="&#x218;" horiz-adv-x="725" 
d="M700 201q0 -100 -77 -155.5t-237 -55.5q-188 0 -274.5 72t-86.5 213h191q0 -65 37.5 -91t139.5 -26q68 0 92 9t24 28q0 21 -32.5 37t-108.5 43q-19 6 -29 10q-139 48 -186 77q-96 59 -96 161q0 94 74 143t214 49q160 0 243 -68.5t83 -184.5h-191q0 50 -34.5 67.5
t-100.5 17.5q-97 0 -97 -32q0 -16 15.5 -25.5t95.5 -37.5q9 -3 40 -13.5t45 -15.5t44 -16.5t46.5 -19.5t42.5 -21.5t40.5 -25t32.5 -28t27.5 -33t16 -36.5t6.5 -42zM290 -49l133 -44l-66 -173l-132 44z" />
    <glyph glyph-name="uni0219" unicode="&#x219;" horiz-adv-x="572" 
d="M557 144q0 -154 -251 -154q-143 0 -212 50.5t-69 142.5h191q0 -20 22 -37.5t75 -17.5t53 21q0 9 -13 14.5t-81 29.5q-11 4 -36 12t-39 12.5t-36.5 13.5t-36 17t-30 21t-25.5 27t-15 33.5t-6 41.5q0 71 60.5 109t169.5 38q123 0 192.5 -54t69.5 -135h-191q0 19 -18.5 35
t-49.5 16q-42 0 -42 -18q0 -7 5.5 -12.5t20 -11.5t27 -10t39.5 -12t44 -14q46 -15 71.5 -25.5t55 -29t42.5 -44t13 -59.5zM218 -49l133 -44l-66 -173l-132 44z" />
    <glyph glyph-name="uni021A" unicode="&#x21a;" horiz-adv-x="690" 
d="M666 705v-168h-225v-537h-191v537h-225v168h641zM208 -222l65 173l133 -44l-66 -173z" />
    <glyph glyph-name="uni021B" unicode="&#x21b;" horiz-adv-x="535" 
d="M320 158l191 10v-168l-290 -10q-44 -1 -68 23t-24 69v258h-124v168h124v82l191 60v-142h171v-168h-171v-182zM180 -222l65 173l133 -44l-66 -173z" />
    <glyph glyph-name="circumflex" unicode="&#x2c6;" horiz-adv-x="605" 
d="M540 630l-101 -93l-137 89l-136 -89l-101 93l237 160z" />
    <glyph glyph-name="caron" unicode="&#x2c7;" horiz-adv-x="605" 
d="M540 705l-238 -160l-237 160l101 93l136 -89l137 89z" />
    <glyph glyph-name="breve" unicode="&#x2d8;" horiz-adv-x="517" 
d="M452 762q0 -40 -9.5 -75.5t-30.5 -66.5t-60.5 -49.5t-93.5 -18.5t-93 18.5t-60 49.5t-30.5 66.5t-9.5 75.5h141q0 -48 13.5 -64.5t38.5 -16.5t39 16.5t14 64.5h141z" />
    <glyph glyph-name="dotaccent" unicode="&#x2d9;" horiz-adv-x="351" 
d="M161 551q-97 0 -97 82t97 82q47 0 74 -20.5t27 -61.5q0 -82 -101 -82z" />
    <glyph glyph-name="ring" unicode="&#x2da;" horiz-adv-x="459" 
d="M237 553q-172 0 -172 129q0 130 172 130q173 0 173 -130q0 -129 -173 -129zM237 651q45 0 45 31q0 30 -45 30q-44 0 -44 -30q0 -31 44 -31z" />
    <glyph glyph-name="ogonek" unicode="&#x2db;" horiz-adv-x="418" 
d="M354 -48v-142l-179 -14q-60 -4 -93 36.5t-5 81.5l60 87h128l-26 -61z" />
    <glyph glyph-name="tilde" unicode="&#x2dc;" horiz-adv-x="640" 
d="M65 590q0 95 43.5 153t120.5 58q33 0 61 -12.5t44 -27t33.5 -27t31.5 -12.5q18 0 26.5 13.5t8.5 55.5h141q0 -95 -43.5 -153t-120.5 -58q-41 0 -74.5 20t-56.5 39.5t-39 19.5q-18 0 -26.5 -13.5t-8.5 -55.5h-141z" />
    <glyph glyph-name="hungarumlaut" unicode="&#x2dd;" horiz-adv-x="735" 
d="M65 643l223 182l99 -92l-223 -182zM349 643l223 182l99 -92l-223 -182z" />
    <glyph glyph-name="gravecomb" unicode="&#x300;" horiz-adv-x="0" 
d="M-65 680l-31 -134l-423 89l31 134z" />
    <glyph glyph-name="acutecomb" unicode="&#x301;" horiz-adv-x="0" 
d="M-519 680l423 89l31 -134l-423 -89z" />
    <glyph glyph-name="uni0302" unicode="&#x302;" horiz-adv-x="0" 
d="M-65 630l-101 -93l-137 89l-136 -89l-101 93l237 160z" />
    <glyph glyph-name="tildecomb" unicode="&#x303;" horiz-adv-x="0" 
d="M-575 590q0 95 43.5 153t120.5 58q33 0 61 -12.5t44 -27t33.5 -27t31.5 -12.5q18 0 26.5 13.5t8.5 55.5h141q0 -95 -43.5 -153t-120.5 -58q-41 0 -74.5 20t-56.5 39.5t-39 19.5q-18 0 -26.5 -13.5t-8.5 -55.5h-141z" />
    <glyph glyph-name="uni0304" unicode="&#x304;" horiz-adv-x="0" 
d="M-537 735h473v-140l-473 -2v142z" />
    <glyph glyph-name="uni0306" unicode="&#x306;" horiz-adv-x="0" 
d="M-65 762q0 -40 -9.5 -75.5t-30.5 -66.5t-60.5 -49.5t-93.5 -18.5t-93 18.5t-60 49.5t-30.5 66.5t-9.5 75.5h141q0 -48 13.5 -64.5t38.5 -16.5t39 16.5t14 64.5h141z" />
    <glyph glyph-name="uni0307" unicode="&#x307;" horiz-adv-x="0" 
d="M-164 551q-97 0 -97 82t97 82q47 0 74 -20.5t27 -61.5q0 -82 -101 -82z" />
    <glyph glyph-name="uni0308" unicode="&#x308;" horiz-adv-x="0" 
d="M-421 551q-97 0 -97 82t97 82q47 0 74 -20.5t27 -61.5q0 -82 -101 -82zM-163 551q-98 0 -98 82t98 82q47 0 73.5 -20.5t26.5 -61.5q0 -82 -100 -82z" />
    <glyph glyph-name="uni030A" unicode="&#x30a;" horiz-adv-x="0" 
d="M-238 553q-172 0 -172 129q0 130 172 130q173 0 173 -130q0 -129 -173 -129zM-238 651q45 0 45 31q0 30 -45 30q-44 0 -44 -30q0 -31 44 -31z" />
    <glyph glyph-name="uni030B" unicode="&#x30b;" horiz-adv-x="0" 
d="M-670 643l223 182l99 -92l-223 -182zM-386 643l223 182l99 -92l-223 -182z" />
    <glyph glyph-name="uni030C" unicode="&#x30c;" horiz-adv-x="0" 
d="M-65 705l-238 -160l-237 160l101 93l136 -89l137 89z" />
    <glyph glyph-name="uni0312" unicode="&#x312;" horiz-adv-x="0" 
d="M-200 814l136 -36l-80 -232l-135 36z" />
    <glyph glyph-name="uni0326" unicode="&#x326;" horiz-adv-x="0" 
d="M-203 -49l133 -44l-66 -173l-132 44z" />
    <glyph glyph-name="uni0327" unicode="&#x327;" horiz-adv-x="0" 
d="M-159 -40q95 0 95 -64q0 -26 -11.5 -46t-35.5 -32.5t-49.5 -20.5t-64.5 -11.5t-70.5 -4.5t-75.5 -1v103h135q30 3 30 18q0 16 -23 16q-25 0 -81 -16l-58 39l20 60h140l-54 -61q50 21 103 21z" />
    <glyph glyph-name="uni0328" unicode="&#x328;" horiz-adv-x="0" 
d="M-64 -48v-142l-179 -14q-60 -4 -93 36.5t-5 81.5l60 87h128l-26 -61z" />
    <glyph glyph-name="uni0400" unicode="&#x400;" horiz-adv-x="619" 
d="M559 877l-31 -134l-423 89l31 134zM55 0v705h529v-168h-338v-100h288v-168h-288v-101h338v-168h-529z" />
    <glyph glyph-name="uni0401" unicode="&#x401;" horiz-adv-x="619" 
d="M189 748q-97 0 -97 82t97 82q47 0 74 -20.5t27 -61.5q0 -82 -101 -82zM447 748q-98 0 -98 82t98 82q47 0 73.5 -20.5t26.5 -61.5q0 -82 -100 -82zM55 0v705h529v-168h-338v-100h288v-168h-288v-101h338v-168h-529z" />
    <glyph glyph-name="uni0402" unicode="&#x402;" horiz-adv-x="891" 
d="M544 446q68 11 125.5 6.5t99 -24t64.5 -65t23 -115.5q0 -58 -20.5 -103t-52.5 -72t-77.5 -44t-89.5 -23t-94 -6v168q67 0 105 18t38 48q0 39 -36.5 47t-87.5 -3l-124 -18v-260h-191v537h-211v168h613v-168h-211v-109z" />
    <glyph glyph-name="uni0403" unicode="&#x403;" horiz-adv-x="605" 
d="M91 877l423 89l31 -134l-423 -89zM55 0v705h526v-168h-335v-537h-191z" />
    <glyph glyph-name="uni0404" unicode="&#x404;" horiz-adv-x="824" 
d="M422 158q63 0 108.5 30t57.5 85h191q-16 -132 -111.5 -207.5t-247.5 -75.5q-170 0 -272.5 102.5t-102.5 260.5q0 157 102.5 259.5t272.5 102.5q152 0 247.5 -75.5t111.5 -206.5h-191q-12 55 -57.5 84.5t-108.5 29.5q-67 0 -113.5 -30.5t-63.5 -92.5h238v-142h-238
q17 -62 63.5 -93t113.5 -31z" />
    <glyph glyph-name="uni0405" unicode="&#x405;" horiz-adv-x="725" 
d="M700 201q0 -100 -77 -155.5t-237 -55.5q-188 0 -274.5 72t-86.5 213h191q0 -65 37.5 -91t139.5 -26q68 0 92 9t24 28q0 21 -32.5 37t-108.5 43q-19 6 -29 10q-139 48 -186 77q-96 59 -96 161q0 94 74 143t214 49q160 0 243 -68.5t83 -184.5h-191q0 50 -34.5 67.5
t-100.5 17.5q-97 0 -97 -32q0 -16 15.5 -25.5t95.5 -37.5q9 -3 40 -13.5t45 -15.5t44 -16.5t46.5 -19.5t42.5 -21.5t40.5 -25t32.5 -28t27.5 -33t16 -36.5t6.5 -42z" />
    <glyph glyph-name="uni0406" unicode="&#x406;" horiz-adv-x="603" 
d="M558 537h-161v-369h161v-168h-513v168h161v369h-161v168h513v-168z" />
    <glyph glyph-name="uni0407" unicode="&#x407;" horiz-adv-x="603" 
d="M171 748q-97 0 -97 82t97 82q47 0 74 -20.5t27 -61.5q0 -82 -101 -82zM429 748q-98 0 -98 82t98 82q47 0 73.5 -20.5t26.5 -61.5q0 -82 -100 -82zM558 537h-161v-369h161v-168h-513v168h161v369h-161v168h513v-168z" />
    <glyph glyph-name="uni0408" unicode="&#x408;" horiz-adv-x="560" 
d="M200 -10l-185 10v168l185 -10q42 -3 68.5 9t38 38.5t14.5 52t3 66.5v223l-223 -10v168l319 10q46 1 70.5 -23.5t24.5 -71.5v-368q0 -151 -69 -211.5t-246 -50.5z" />
    <glyph glyph-name="uni0409" unicode="&#x409;" horiz-adv-x="1141" 
d="M777 488q58 0 99.5 -4t88 -18.5t75.5 -40t48 -71.5t19 -110t-19 -110.5t-48 -71.5t-75.5 -39.5t-88 -18.5t-99.5 -4h-269v537h-157q-1 -72 -5 -127.5t-14 -114t-25.5 -100.5t-41 -80.5t-59.5 -62.5t-82.5 -38t-108.5 -14v168q35 0 60.5 14.5t41 53t25 74t13 111
t4.5 127.5t1 157h540v-217h77zM777 168q87 0 112.5 12.5t25.5 63.5t-25.5 63.5t-112.5 12.5h-77v-152h77z" />
    <glyph glyph-name="uni040A" unicode="&#x40a;" horiz-adv-x="1208" 
d="M844 488q58 0 99.5 -4t88 -18.5t75.5 -40t48 -71.5t19 -110t-19 -110.5t-48 -71.5t-75.5 -39.5t-88 -18.5t-99.5 -4h-269v257h-329v-257h-191v705h191v-280h329v280h192v-217h77zM844 168q87 0 112.5 12.5t25.5 63.5t-25.5 63.5t-112.5 12.5h-77v-152h77z" />
    <glyph glyph-name="uni040B" unicode="&#x40b;" horiz-adv-x="879" 
d="M730 511q45 2 69.5 -20.5t24.5 -67.5v-423h-191v338l-279 -15v-323h-191v537h-148v168h560v-168h-221v-46z" />
    <glyph glyph-name="uni040C" unicode="&#x40c;" horiz-adv-x="724" 
d="M562 832l-423 -89l-31 134l423 89zM483 0l-184 250q-24 -22 -53 -33v-217h-191v705h191v-245l175 193q48 52 117 52h145v-168h-121l-139 -151l287 -386h-227z" />
    <glyph glyph-name="uni040D" unicode="&#x40d;" horiz-adv-x="844" 
d="M688 877l-31 -134l-423 89l31 134zM789 0h-192v542l37 116h-47l-157 -658h-375v705h191v-542l-37 -116h47l157 658h376v-705z" />
    <glyph glyph-name="uni040F" unicode="&#x40f;" horiz-adv-x="781" 
d="M535 705h192v-705h-241v-143h-191v143h-240v705h191v-537h289v537z" />
    <glyph glyph-name="uni0410" unicode="&#x410;" horiz-adv-x="812" 
d="M603 0l-54 206h-286l-54 -206h-194l193 705h395l194 -705h-194zM307 374h197l-75 284h-47z" />
    <glyph glyph-name="uni0411" unicode="&#x411;" horiz-adv-x="698" 
d="M323 488q58 0 99.5 -4t88 -18.5t75.5 -40t48 -71.5t19 -110t-19 -110.5t-48 -71.5t-75.5 -39.5t-88 -18.5t-99.5 -4h-268v705h511v-168h-320v-49h77zM323 168q88 0 113.5 12.5t25.5 63.5t-25.5 63.5t-113.5 12.5h-77v-152h77z" />
    <glyph glyph-name="uni0412" unicode="&#x412;" horiz-adv-x="723" 
d="M55 0v705h272q162 0 230.5 -36.5t68.5 -136.5q0 -26 -5 -47t-12 -34.5t-20.5 -23.5t-24 -15.5t-28.5 -9t-29 -4.5t-31.5 -2t-29.5 -2v-46q102 -5 136 -15q96 -29 96 -146q0 -49 -19.5 -83.5t-49.5 -54.5t-78.5 -31t-94.5 -14.5t-110 -3.5h-271zM246 451h108h16h15.5
t13.5 0.5t12.5 2t9.5 5t8 8t4 11.5t2 16q0 36 -36 42q-10 1 -45 1h-108v-86zM246 168h107h24.5h22.5h19t18 1t15 3t13 5t9 7t7.5 10t4 13.5t1.5 17.5q0 13 -2.5 22.5t-6 16t-12 10.5t-14.5 6t-19.5 3t-22 1t-27.5 -0.5t-30 -0.5h-107v-115z" />
    <glyph glyph-name="uni0413" unicode="&#x413;" horiz-adv-x="605" 
d="M55 0v705h526v-168h-335v-537h-191z" />
    <glyph glyph-name="uni0414" unicode="&#x414;" horiz-adv-x="795" 
d="M714 168h66v-311h-191v143h-383v-143h-191v311h66q50 40 80 180.5t30 356.5h523v-537zM272 168h251v369h-146q-10 -147 -38 -242.5t-67 -126.5z" />
    <glyph glyph-name="uni0415" unicode="&#x415;" horiz-adv-x="619" 
d="M55 0v705h529v-168h-338v-100h288v-168h-288v-101h338v-168h-529z" />
    <glyph glyph-name="uni0416" unicode="&#x416;" horiz-adv-x="1095" 
d="M1080 537h-121l-162 -177l283 -360h-237l-171 231q-9 -6 -29 -14v-217h-191v217q-20 8 -29 14l-171 -231h-237l283 360l-162 177h-121v168h145q69 0 117 -52l175 -193v245h191v-245l175 193q48 52 117 52h145v-168z" />
    <glyph glyph-name="uni0417" unicode="&#x417;" horiz-adv-x="753" 
d="M45 269h191q0 -67 33.5 -89t112.5 -22q69 0 102 14t33 48q0 28 -22 45t-60 17h-98v155h98q72 0 72 50q0 60 -125 60q-76 0 -106 -17.5t-30 -66.5h-191q0 70 26 120t73.5 78t105.5 41t129 13q88 0 155.5 -18.5t110.5 -60.5t43 -103q0 -41 -14 -69t-43 -44t-54.5 -23
t-67.5 -14v-47q90 -9 122 -23q67 -31 67 -124q0 -101 -90 -150t-229 -49q-344 0 -344 279z" />
    <glyph glyph-name="uni0418" unicode="&#x418;" horiz-adv-x="844" 
d="M789 0h-192v542l37 116h-47l-157 -658h-375v705h191v-542l-37 -116h47l157 658h376v-705z" />
    <glyph glyph-name="uni0419" unicode="&#x419;" horiz-adv-x="844" 
d="M642 959q0 -40 -9.5 -75.5t-30.5 -66.5t-60.5 -49.5t-93.5 -18.5t-93 18.5t-60 49.5t-30.5 66.5t-9.5 75.5h141q0 -48 13.5 -64.5t38.5 -16.5t39 16.5t14 64.5h141zM789 0h-192v542l37 116h-47l-157 -658h-375v705h191v-542l-37 -116h47l157 658h376v-705z" />
    <glyph glyph-name="uni041A" unicode="&#x41a;" horiz-adv-x="724" 
d="M483 0l-184 250q-24 -22 -53 -33v-217h-191v705h191v-245l175 193q48 52 117 52h145v-168h-121l-139 -151l287 -386h-227z" />
    <glyph glyph-name="uni041B" unicode="&#x41b;" horiz-adv-x="754" 
d="M700 705v-705h-192v537h-157q-1 -72 -5 -127.5t-14 -114t-25.5 -100.5t-41 -80.5t-59.5 -62.5t-82.5 -38t-108.5 -14v168q35 0 60.5 14.5t41 53t25 74t13 111t4.5 127.5t1 157h540z" />
    <glyph glyph-name="uni041C" unicode="&#x41c;" horiz-adv-x="1035" 
d="M55 0v705h375l64 -658h47l64 658h375v-705h-191v542l36 116h-46l-77 -658h-369l-77 658h-47l37 -116v-542h-191z" />
    <glyph glyph-name="uni041D" unicode="&#x41d;" horiz-adv-x="821" 
d="M575 705h192v-705h-192v257h-329v-257h-191v705h191v-280h329v280z" />
    <glyph glyph-name="uni041E" unicode="&#x41e;" horiz-adv-x="833" 
d="M45 353q0 157 101 259.5t271 102.5q169 0 270 -102.5t101 -259.5q0 -158 -101 -260.5t-270 -102.5q-170 0 -271 102.5t-101 260.5zM236 353q0 -94 46 -144.5t135 -50.5t134.5 50.5t45.5 144.5q0 93 -45.5 143.5t-134.5 50.5t-135 -50.5t-46 -143.5z" />
    <glyph glyph-name="uni041F" unicode="&#x41f;" horiz-adv-x="755" 
d="M700 705v-705h-191v537h-263v-537h-191v705h645z" />
    <glyph glyph-name="uni0420" unicode="&#x420;" horiz-adv-x="688" 
d="M330 705q60 0 103 -4.5t87 -20t71.5 -42.5t44.5 -74t17 -113t-17 -113t-44.5 -74t-71.5 -42.5t-87 -20t-103 -4.5h-84v-197h-191v705h275zM343 365q70 0 94.5 14.5t24.5 71.5t-24.5 71.5t-94.5 14.5h-97v-172h97z" />
    <glyph glyph-name="uni0421" unicode="&#x421;" horiz-adv-x="824" 
d="M45 353q0 157 102.5 259.5t272.5 102.5q152 0 247.5 -75.5t111.5 -206.5h-191q-12 55 -57.5 84.5t-108.5 29.5q-85 0 -135.5 -48.5t-50.5 -145.5q0 -98 50.5 -146.5t135.5 -48.5q63 0 108.5 30t57.5 85h191q-16 -132 -111.5 -207.5t-247.5 -75.5q-170 0 -272.5 102.5
t-102.5 260.5z" />
    <glyph glyph-name="uni0422" unicode="&#x422;" horiz-adv-x="690" 
d="M666 705v-168h-225v-537h-191v537h-225v168h641z" />
    <glyph glyph-name="uni0423" unicode="&#x423;" horiz-adv-x="711" 
d="M491 705h205l-240 -482v-139q0 -47 -24.5 -71.5t-68.5 -22.5l-259 6v168l161 -5v64l-240 482h203l109 -245v-97h47v97z" />
    <glyph glyph-name="uni0424" unicode="&#x424;" horiz-adv-x="890" 
d="M865 351q0 -125 -89 -196.5t-248 -86.5v-68h-165v67q-161 15 -249.5 86.5t-88.5 197.5q0 125 88.5 196.5t249.5 86.5v71h165v-72q160 -14 248.5 -85.5t88.5 -196.5zM216 351q0 -61 35.5 -86t111.5 -31v233q-76 -6 -111.5 -30.5t-35.5 -85.5zM528 234q75 6 110.5 31
t35.5 86t-35 85.5t-111 30.5v-233z" />
    <glyph glyph-name="uni0425" unicode="&#x425;" horiz-adv-x="830" 
d="M15 0l235 330v46l-235 329h220l179 -257l181 257h220l-236 -329v-46l236 -330h-220l-181 258l-179 -258h-220z" />
    <glyph glyph-name="uni0426" unicode="&#x426;" horiz-adv-x="935" 
d="M815 168q95 0 95 -95v-216h-191v143h-664v705h191v-537h263v537h191v-537h115z" />
    <glyph glyph-name="uni0427" unicode="&#x427;" horiz-adv-x="771" 
d="M525 705h191v-705h-191v214l-376 -20q-45 -2 -69.5 20.5t-24.5 67.5v423h191v-338l279 15v323z" />
    <glyph glyph-name="uni0428" unicode="&#x428;" horiz-adv-x="1019" 
d="M773 705h191v-705h-909v705h191v-537h168v537h191v-537h168v537z" />
    <glyph glyph-name="uni0429" unicode="&#x429;" horiz-adv-x="1199" 
d="M1079 168q95 0 95 -95v-216h-191v143h-928v705h191v-537h168v537h191v-537h168v537h191v-537h115z" />
    <glyph glyph-name="uni042A" unicode="&#x42a;" horiz-adv-x="814" 
d="M450 488q58 0 99.5 -4t88 -18.5t75.5 -40t48 -71.5t19 -110t-19 -110.5t-48 -71.5t-75.5 -39.5t-88 -18.5t-99.5 -4h-269v537h-166v168h358v-217h77zM450 168q87 0 112.5 12.5t25.5 63.5t-25.5 63.5t-112.5 12.5h-77v-152h77z" />
    <glyph glyph-name="uni042B" unicode="&#x42b;" horiz-adv-x="984" 
d="M246 705v-217h77q58 0 99.5 -4t88 -18.5t75.5 -40t48 -71.5t19 -110t-19 -110.5t-48 -71.5t-75.5 -39.5t-88 -18.5t-99.5 -4h-268v705h191zM738 705h192v-705h-192v705zM246 168h77q88 0 113.5 12.5t25.5 63.5t-25.5 63.5t-113.5 12.5h-77v-152z" />
    <glyph glyph-name="uni042C" unicode="&#x42c;" horiz-adv-x="688" 
d="M246 705v-217h77q58 0 99.5 -4t88 -18.5t75.5 -40t48 -71.5t19 -110t-19 -110.5t-48 -71.5t-75.5 -39.5t-88 -18.5t-99.5 -4h-268v705h191zM246 168h77q88 0 113.5 12.5t25.5 63.5t-25.5 63.5t-113.5 12.5h-77v-152z" />
    <glyph glyph-name="uni042D" unicode="&#x42d;" horiz-adv-x="824" 
d="M404 715q170 0 272.5 -102.5t102.5 -259.5q0 -158 -102.5 -260.5t-272.5 -102.5q-152 0 -247.5 75.5t-111.5 207.5h191q12 -55 57.5 -85t108.5 -30q67 0 113.5 31t63.5 93h-238v142h238q-17 62 -63.5 92.5t-113.5 30.5q-63 0 -108.5 -29.5t-57.5 -84.5h-191
q16 131 111.5 206.5t247.5 75.5z" />
    <glyph glyph-name="uni042E" unicode="&#x42e;" horiz-adv-x="1063" 
d="M664 715q171 0 263 -97.5t92 -264.5q0 -168 -92 -265.5t-263 -97.5q-149 0 -238.5 74t-110.5 205h-69v-269h-191v705h191v-268h69q21 130 110.5 204t238.5 74zM664 158q78 0 120.5 45t42.5 150q0 104 -42.5 149t-120.5 45q-79 0 -121.5 -45t-42.5 -149q0 -105 42.5 -150
t121.5 -45z" />
    <glyph glyph-name="uni042F" unicode="&#x42f;" horiz-adv-x="708" 
d="M653 705v-705h-191v277h-44l-126 -208q-38 -69 -112 -69h-165v168h126l78 116q-200 31 -200 207q0 61 23 104t65.5 66.5t94.5 33.5t120 10h331zM462 432v118h-167q-85 0 -85 -59t85 -59h167z" />
    <glyph glyph-name="uni0430" unicode="&#x430;" horiz-adv-x="665" 
d="M35 138q0 70 48.5 108.5t167.5 50.5l144 16q1 26 -19 38t-66 12q-42 0 -63 -14.5t-21 -36.5h-178q0 99 75 152.5t187 53.5q55 0 102.5 -12t88 -38.5t63.5 -74t23 -111.5v-114h73v-168h-122q-39 0 -61 21.5t-22 60.5l30 63h-46q-15 -72 -62.5 -113.5t-149.5 -41.5
q-58 0 -98.5 15t-59.5 40t-26.5 47.5t-7.5 45.5zM222 171q0 -26 56 -26q49 0 83 21t34 56l-108 -18q-51 -9 -59 -17q-6 -7 -6 -16z" />
    <glyph glyph-name="uni0431" unicode="&#x431;" horiz-adv-x="718" 
d="M45 329q0 152 65.5 234t192.5 124q98 32 133 52.5t42 48.5h213q-5 -46 -26.5 -82t-50 -59t-70.5 -41.5t-78 -28t-83 -18.5q-103 -20 -152.5 -58.5t-67.5 -113.5l-46 -103h46q17 113 80.5 173.5t166.5 60.5q116 0 192.5 -73.5t76.5 -183.5q0 -122 -78.5 -196.5
t-238.5 -74.5q-152 0 -234.5 89t-82.5 250zM236 257q0 -54 32 -76.5t94 -22.5q126 0 126 95q0 97 -133 97q-119 0 -119 -93z" />
    <glyph glyph-name="uni0432" unicode="&#x432;" horiz-adv-x="593" 
d="M55 0v508h257q107 0 163.5 -26t56.5 -92q0 -27 -9 -47t-20.5 -30.5t-29.5 -17t-30 -8.5t-28 -3v-46q30 0 53 -4t48 -14t39 -32.5t14 -56.5q0 -131 -220 -131h-294zM233 323h79q27 0 34 4t7 23t-7.5 24t-33.5 5h-79v-56zM233 129h116q24 0 32.5 8t8.5 26q0 19 -7.5 24.5
t-33.5 5.5h-116v-64z" />
    <glyph glyph-name="uni0433" unicode="&#x433;" horiz-adv-x="520" 
d="M55 0v508h460v-168h-269v-340h-191z" />
    <glyph glyph-name="uni0434" unicode="&#x434;" horiz-adv-x="735" 
d="M624 168h66v-311h-191v143h-273v-143h-191v311h66q41 43 57.5 118.5t16.5 221.5h449v-340zM292 168h141v172h-75q-14 -117 -66 -172z" />
    <glyph glyph-name="uni0435" unicode="&#x435;" horiz-adv-x="645" 
d="M35 260q0 118 76.5 188t200.5 70q123 0 201.5 -69t78.5 -178v-49h-379q-2 -39 28.5 -62t88.5 -23q33 0 58.5 12.5t30.5 30.5h191q-2 -29 -21 -60.5t-52 -61t-87.5 -49t-119.5 -19.5q-143 0 -219 77.5t-76 192.5zM213 303h201q0 60 -102 60q-57 0 -78 -16t-21 -44z" />
    <glyph glyph-name="uni0436" unicode="&#x436;" horiz-adv-x="916" 
d="M901 340h-81l-51 -66l132 -274h-204l-82 178h-4h-57v-178h-192v178h-57h-4l-82 -178h-204l132 274l-51 66h-81v168h94q87 0 120 -42l89 -120h44v162h192v-162h44l89 120q33 42 120 42h94v-168z" />
    <glyph glyph-name="uni0437" unicode="&#x437;" horiz-adv-x="607" 
d="M45 194h178q0 -49 19.5 -62t69.5 -13q72 0 72 37q0 18 -11 26.5t-22 9.5t-36 1h-44v129h44q59 0 59 35q0 21 -15 26.5t-51 5.5q-46 0 -60.5 -8t-14.5 -39h-178q0 176 253 176q117 0 180.5 -38t63.5 -103q0 -54 -32.5 -76.5t-77.5 -19.5v-47q47 3 83.5 -21t36.5 -80
q0 -65 -66 -104t-184 -39q-267 0 -267 204z" />
    <glyph glyph-name="uni0438" unicode="&#x438;" horiz-adv-x="727" 
d="M693 0h-179v362l37 100h-47l-102 -462h-347v508h178v-355l-36 -106h46l103 461h347v-508z" />
    <glyph glyph-name="uni0439" unicode="&#x439;" horiz-adv-x="727" 
d="M574 762q0 -40 -9.5 -75.5t-30.5 -66.5t-60.5 -49.5t-93.5 -18.5t-93 18.5t-60 49.5t-30.5 66.5t-9.5 75.5h141q0 -48 13.5 -64.5t38.5 -16.5t39 16.5t14 64.5h141zM693 0h-179v362l37 100h-47l-102 -462h-347v508h178v-355l-36 -106h46l103 461h347v-508z" />
    <glyph glyph-name="uni043A" unicode="&#x43a;" horiz-adv-x="632" 
d="M617 0h-205l-82 179q-9 -1 -27 -1h-57v-178h-191v508h191v-162h45l89 120q32 42 119 42h95v-168h-81l-37 -48z" />
    <glyph glyph-name="uni043B" unicode="&#x43b;" horiz-adv-x="644" 
d="M590 508v-508h-192v340h-76q-4 -87 -17.5 -145t-44.5 -104.5t-86.5 -68.5t-138.5 -22v168q33 0 51 12.5t29.5 52.5t15 102t3.5 173h456z" />
    <glyph glyph-name="uni043C" unicode="&#x43c;" horiz-adv-x="938" 
d="M55 0v508h365l25 -461h47l25 461h366v-508h-178v355l36 107h-46l-54 -462h-346l-52 462h-47l37 -107v-355h-178z" />
    <glyph glyph-name="uni043D" unicode="&#x43d;" horiz-adv-x="713" 
d="M467 508h192v-508h-192v171h-221v-171h-191v508h191v-169h221v169z" />
    <glyph glyph-name="uni043E" unicode="&#x43e;" horiz-adv-x="656" 
d="M35 255q0 68 23.5 119.5t64.5 82.5t93 46t113 15q128 0 210.5 -65.5t82.5 -197.5q0 -91 -41.5 -152t-105.5 -87t-146 -26q-129 0 -211.5 65.5t-82.5 199.5zM226 255q0 -97 103 -97q101 0 101 97q0 95 -101 95q-103 0 -103 -95z" />
    <glyph glyph-name="uni043F" unicode="&#x43f;" horiz-adv-x="665" 
d="M610 508v-508h-191v340h-173v-340h-191v508h555z" />
    <glyph glyph-name="uni0440" unicode="&#x440;" horiz-adv-x="701" 
d="M55 508h191v-14l-37 -103h47q17 38 34.5 62t59.5 44.5t103 20.5q105 0 159 -75.5t54 -188.5q0 -114 -54 -189t-159 -75q-88 0 -129.5 34t-67.5 94h-47l37 -104v-208h-191v702zM246 254q0 -52 26 -74t86 -22q61 0 89 22.5t28 73.5t-28 73.5t-89 22.5q-60 0 -86 -22.5
t-26 -73.5z" />
    <glyph glyph-name="uni0441" unicode="&#x441;" horiz-adv-x="641" 
d="M35 255q0 128 79 195.5t206 67.5q120 0 201.5 -61.5t85.5 -165.5h-192q-3 22 -28 40.5t-67 18.5q-40 0 -67 -24t-27 -71q0 -48 27.5 -72.5t66.5 -24.5q42 0 67 18.5t28 40.5h192q-4 -104 -85.5 -165.5t-201.5 -61.5q-127 0 -206 68t-79 197z" />
    <glyph glyph-name="uni0442" unicode="&#x442;" horiz-adv-x="623" 
d="M598 508v-168h-191v-340h-191v340h-191v168h573z" />
    <glyph glyph-name="uni0443" unicode="&#x443;" horiz-adv-x="704" 
d="M472 508h218l-237 -468v-163q0 -47 -24.5 -71.5t-68.5 -22.5l-269 6v168h170v83l-236 468h216l93 -235v-97h46v97z" />
    <glyph glyph-name="uni0444" unicode="&#x444;" horiz-adv-x="836" 
d="M802 256q0 -118 -80.5 -183t-220.5 -79v-174h-165v174q-141 14 -221 79t-80 183q0 115 80.5 179.5t220.5 78.5v161h165v-161q140 -14 220.5 -78.5t80.5 -179.5zM501 161q54 7 81.5 28t27.5 67q0 45 -27.5 65t-81.5 26v-186zM226 256q0 -46 28 -67t82 -28v186
q-54 -6 -82 -26.5t-28 -64.5z" />
    <glyph glyph-name="uni0445" unicode="&#x445;" horiz-adv-x="711" 
d="M25 0l194 231v47l-194 230h227l103 -147l103 147h228l-194 -230v-47l194 -231h-228l-103 148l-103 -148h-227z" />
    <glyph glyph-name="uni0446" unicode="&#x446;" horiz-adv-x="809" 
d="M700 168q46 0 70.5 -24.5t24.5 -70.5v-216h-192v143h-548v508h191v-340h173v340h191v-340h90z" />
    <glyph glyph-name="uni0447" unicode="&#x447;" horiz-adv-x="681" 
d="M435 508h191v-508h-191v180l-285 -19q-44 -3 -69.5 20t-25.5 68v259h191v-177l189 17v160z" />
    <glyph glyph-name="uni0448" unicode="&#x448;" horiz-adv-x="839" 
d="M593 508h191v-508h-729v508h191v-340h78v340h191v-340h78v340z" />
    <glyph glyph-name="uni0449" unicode="&#x449;" horiz-adv-x="983" 
d="M874 168q46 0 70.5 -24.5t24.5 -70.5v-216h-192v143h-722v508h191v-340h78v340h191v-340h78v340h191v-340h90z" />
    <glyph glyph-name="uni044A" unicode="&#x44a;" horiz-adv-x="692" 
d="M401 413q256 0 256 -207q0 -206 -256 -206h-251v340h-135v168h326v-95h60zM391 168q46 0 60.5 7t14.5 31t-14.5 31.5t-60.5 7.5h-50v-77h50z" />
    <glyph glyph-name="uni044B" unicode="&#x44b;" horiz-adv-x="888" 
d="M306 413q256 0 256 -207q0 -206 -256 -206h-251v508h191v-95h60zM642 0v508h191v-508h-191zM246 168h50q46 0 60.5 7t14.5 31t-14.5 31.5t-60.5 7.5h-50v-77z" />
    <glyph glyph-name="uni044C" unicode="&#x44c;" horiz-adv-x="597" 
d="M306 413q256 0 256 -207q0 -206 -256 -206h-251v508h191v-95h60zM246 168h50q46 0 60.5 7t14.5 31t-14.5 31.5t-60.5 7.5h-50v-77z" />
    <glyph glyph-name="uni044D" unicode="&#x44d;" horiz-adv-x="641" 
d="M321 518q127 0 206.5 -67.5t79.5 -195.5q0 -129 -79.5 -197t-206.5 -68q-119 0 -201 61.5t-85 165.5h191q3 -22 28.5 -40.5t66.5 -18.5q63 0 85 51h-123v91h123q-21 50 -85 50q-41 0 -66.5 -18.5t-28.5 -40.5h-191q3 104 85 165.5t201 61.5z" />
    <glyph glyph-name="uni044E" unicode="&#x44e;" horiz-adv-x="853" 
d="M559 518q125 0 192 -71t67 -192q0 -122 -67 -193.5t-192 -71.5q-103 0 -167 48t-85 133h-61v-171h-191v508h191v-169h62q21 85 84.5 132t166.5 47zM559 158q36 0 52 21.5t16 75.5q0 53 -16 74t-52 21q-37 0 -53.5 -21t-16.5 -74q0 -55 16.5 -76t53.5 -21z" />
    <glyph glyph-name="uni044F" unicode="&#x44f;" horiz-adv-x="574" 
d="M519 508v-508h-191v193h-32l-103 -133q-24 -32 -50.5 -46t-63.5 -14h-74v155h74l40 43q-110 18 -110 153q0 81 58.5 119t136.5 38h315zM328 310v82h-69q-59 0 -59 -41t59 -41h69z" />
    <glyph glyph-name="uni0450" unicode="&#x450;" horiz-adv-x="645" 
d="M562 680l-31 -134l-423 89l31 134zM35 260q0 118 76.5 188t200.5 70q123 0 201.5 -69t78.5 -178v-49h-379q-2 -39 28.5 -62t88.5 -23q33 0 58.5 12.5t30.5 30.5h191q-2 -29 -21 -60.5t-52 -61t-87.5 -49t-119.5 -19.5q-143 0 -219 77.5t-76 192.5zM213 303h201
q0 60 -102 60q-57 0 -78 -16t-21 -44z" />
    <glyph glyph-name="uni0451" unicode="&#x451;" horiz-adv-x="645" 
d="M192 551q-97 0 -97 82t97 82q47 0 74 -20.5t27 -61.5q0 -82 -101 -82zM450 551q-98 0 -98 82t98 82q47 0 73.5 -20.5t26.5 -61.5q0 -82 -100 -82zM35 260q0 118 76.5 188t200.5 70q123 0 201.5 -69t78.5 -178v-49h-379q-2 -39 28.5 -62t88.5 -23q33 0 58.5 12.5
t30.5 30.5h191q-2 -29 -21 -60.5t-52 -61t-87.5 -49t-119.5 -19.5q-143 0 -219 77.5t-76 192.5zM213 303h201q0 60 -102 60q-57 0 -78 -16t-21 -44z" />
    <glyph glyph-name="uni0452" unicode="&#x452;" horiz-adv-x="764" 
d="M503 518q102 0 159 -67t57 -190v-371q0 -47 -24 -71t-69 -22l-269 6v168l171 -5v264q0 67 -20.5 93.5t-74.5 26.5q-65 0 -97.5 -36.5t-32.5 -138.5v-175h-192v549h-63v142h63v44h192v-44h137v-142h-137v-92l-37 -103h47q15 72 63.5 118t126.5 46z" />
    <glyph glyph-name="uni0453" unicode="&#x453;" horiz-adv-x="529" 
d="M54 680l423 89l31 -134l-423 -89zM64 0v508h461v-168h-270v-340h-191z" />
    <glyph glyph-name="uni0454" unicode="&#x454;" horiz-adv-x="642" 
d="M320 158q42 0 67 18.5t28 40.5h192q-4 -104 -85.5 -165.5t-201.5 -61.5q-127 0 -206 68t-79 197q0 128 79 195.5t206 67.5q120 0 201.5 -61.5t85.5 -165.5h-192q-3 22 -28 40.5t-67 18.5q-64 0 -85 -50h123v-91h-123q23 -51 85 -51z" />
    <glyph glyph-name="uni0455" unicode="&#x455;" horiz-adv-x="572" 
d="M557 144q0 -154 -251 -154q-143 0 -212 50.5t-69 142.5h191q0 -20 22 -37.5t75 -17.5t53 21q0 9 -13 14.5t-81 29.5q-11 4 -36 12t-39 12.5t-36.5 13.5t-36 17t-30 21t-25.5 27t-15 33.5t-6 41.5q0 71 60.5 109t169.5 38q123 0 192.5 -54t69.5 -135h-191q0 19 -18.5 35
t-49.5 16q-42 0 -42 -18q0 -7 5.5 -12.5t20 -11.5t27 -10t39.5 -12t44 -14q46 -15 71.5 -25.5t55 -29t42.5 -44t13 -59.5z" />
    <glyph glyph-name="uni0456" unicode="&#x456;" horiz-adv-x="523" 
d="M258 551q-97 0 -97 82t97 82q47 0 74 -20.5t27 -61.5q0 -82 -101 -82zM35 0v168h140v177l-127 -5v168l222 10q46 2 71.5 -23t25.5 -72v-255h141v-168h-473z" />
    <glyph glyph-name="uni0457" unicode="&#x457;" horiz-adv-x="548" 
d="M127 551q-98 0 -98 82t98 82q47 0 73.5 -20.5t26.5 -61.5q0 -82 -100 -82zM384 551q-98 0 -98 82t98 82q47 0 73.5 -20.5t26.5 -61.5q0 -82 -100 -82zM60 0v168h144v177l-131 -5v168l221 10q45 2 70.5 -21.5t25.5 -68.5v-260h143v-168h-473z" />
    <glyph glyph-name="uni0458" unicode="&#x458;" horiz-adv-x="372" 
d="M226 551q-98 0 -98 82t98 82q47 0 73.5 -20.5t26.5 -61.5q0 -82 -100 -82zM5 -207l112 181q17 26 17 68v303l-130 -5v168l235 6q45 2 70 -22.5t25 -70.5v-391q0 -37 -17 -68l-96 -169h-216z" />
    <glyph glyph-name="uni0459" unicode="&#x459;" horiz-adv-x="940" 
d="M649 413q257 0 257 -207q0 -206 -257 -206h-251v340h-76q-4 -87 -17.5 -145t-44.5 -104.5t-86.5 -68.5t-138.5 -22v168q33 0 51 12.5t29.5 52.5t15 102t3.5 173h456v-95h59zM639 168q47 0 61 7t14 31t-14.5 31.5t-60.5 7.5h-49v-77h49z" />
    <glyph glyph-name="uni045A" unicode="&#x45a;" horiz-adv-x="1009" 
d="M718 413q257 0 257 -207q0 -206 -257 -206h-251v171h-221v-171h-191v508h191v-169h221v169h192v-95h59zM708 168q47 0 61 7t14 31t-14.5 31.5t-60.5 7.5h-49v-77h49z" />
    <glyph glyph-name="uni045B" unicode="&#x45b;" horiz-adv-x="751" 
d="M489 518q103 0 160 -67t57 -190v-261h-191v230q0 67 -20.5 93.5t-75.5 26.5q-65 0 -97.5 -36.5t-32.5 -138.5v-175h-191v549h-63v142h63v44h191v-44h137v-142h-137v-92l-36 -103h46q16 72 64.5 118t125.5 46z" />
    <glyph glyph-name="uni045C" unicode="&#x45c;" horiz-adv-x="632" 
d="M556 635l-423 -89l-31 134l423 89zM617 0h-205l-82 179q-9 -1 -27 -1h-57v-178h-191v508h191v-162h45l89 120q32 42 119 42h95v-168h-81l-37 -48z" />
    <glyph glyph-name="uni045F" unicode="&#x45f;" horiz-adv-x="708" 
d="M462 495h191v-495h-203v-143h-192v143h-203v495h191v-327h216v327z" />
    <glyph glyph-name="uni0490" unicode="&#x490;" horiz-adv-x="585" 
d="M389 822h192v-285h-335v-537h-191v705h334v117z" />
    <glyph glyph-name="uni0491" unicode="&#x491;" horiz-adv-x="520" 
d="M324 634h191v-294h-269v-340h-191v508h269v126z" />
    <glyph glyph-name="Wgrave" unicode="&#x1e80;" horiz-adv-x="1230" 
d="M854 877l-31 -134l-423 89l31 134zM15 705h186l99 -658h46l65 658h408l65 -658h46l99 658h186l-109 -705h-398l-70 658h-46l-70 -658h-398z" />
    <glyph glyph-name="wgrave" unicode="&#x1e81;" horiz-adv-x="983" 
d="M731 680l-31 -134l-423 89l31 134zM5 508h183l43 -461h46l14 461h401l14 -461h47l44 461h182l-50 -508h-400l-14 462h-47l-14 -462h-400z" />
    <glyph glyph-name="Wacute" unicode="&#x1e82;" horiz-adv-x="1230" 
d="M374 877l423 89l31 -134l-423 -89zM15 705h186l99 -658h46l65 658h408l65 -658h46l99 658h186l-109 -705h-398l-70 658h-46l-70 -658h-398z" />
    <glyph glyph-name="wacute" unicode="&#x1e83;" horiz-adv-x="983" 
d="M251 680l423 89l31 -134l-423 -89zM5 508h183l43 -461h46l14 461h401l14 -461h47l44 461h182l-50 -508h-400l-14 462h-47l-14 -462h-400z" />
    <glyph glyph-name="Wdieresis" unicode="&#x1e84;" horiz-adv-x="1230" 
d="M484 748q-97 0 -97 82t97 82q47 0 74 -20.5t27 -61.5q0 -82 -101 -82zM742 748q-98 0 -98 82t98 82q47 0 73.5 -20.5t26.5 -61.5q0 -82 -100 -82zM15 705h186l99 -658h46l65 658h408l65 -658h46l99 658h186l-109 -705h-398l-70 658h-46l-70 -658h-398z" />
    <glyph glyph-name="wdieresis" unicode="&#x1e85;" horiz-adv-x="983" 
d="M361 551q-97 0 -97 82t97 82q47 0 74 -20.5t27 -61.5q0 -82 -101 -82zM619 551q-98 0 -98 82t98 82q47 0 73.5 -20.5t26.5 -61.5q0 -82 -100 -82zM5 508h183l43 -461h46l14 461h401l14 -461h47l44 461h182l-50 -508h-400l-14 462h-47l-14 -462h-400z" />
    <glyph glyph-name="uni1E9E" unicode="&#x1e9e;" horiz-adv-x="746" 
d="M302 0v168l111 -9q63 -4 90 8t27 42q0 39 -27.5 56.5t-69 5.5t-76.5 -50l-55 228l150 34q0 64 -88 64q-56 0 -87 -27t-31 -92v-428h-191v457q0 111 89.5 184.5t219.5 73.5q43 0 88.5 -15t89.5 -45t72.5 -85.5t28.5 -126.5l-273 -86l9 -44q50 37 111 47t112 -6t85.5 -62
t34.5 -112q0 -108 -72.5 -156t-236.5 -34z" />
    <glyph glyph-name="Ygrave" unicode="&#x1ef2;" horiz-adv-x="749" 
d="M613 877l-31 -134l-423 89l31 134zM529 705h205l-265 -492v-213h-191v213l-263 492h204l131 -273v-104h47v104z" />
    <glyph glyph-name="ygrave" unicode="&#x1ef3;" horiz-adv-x="704" 
d="M596 680l-31 -134l-423 89l31 134zM472 508h218l-237 -468v-163q0 -47 -24.5 -71.5t-68.5 -22.5l-269 6v168h170v83l-236 468h216l93 -235v-97h46v97z" />
    <glyph glyph-name="endash" unicode="&#x2013;" horiz-adv-x="908" 
d="M65 348h778v-142h-778v142z" />
    <glyph glyph-name="emdash" unicode="&#x2014;" horiz-adv-x="1108" 
d="M65 348h978v-142h-978v142z" />
    <glyph glyph-name="quoteleft" unicode="&#x2018;" horiz-adv-x="353" 
d="M198 791l90 -334l-135 -37l-90 335z" />
    <glyph glyph-name="quoteright" unicode="&#x2019;" horiz-adv-x="353" 
d="M155 791l135 -36l-90 -335l-135 37z" />
    <glyph glyph-name="quotesinglbase" unicode="&#x201a;" horiz-adv-x="369" 
d="M169 190l135 -36l-104 -381l-135 37z" />
    <glyph glyph-name="quotedblleft" unicode="&#x201c;" horiz-adv-x="569" 
d="M198 791l90 -334l-135 -37l-90 335zM414 791l90 -334l-135 -37l-90 335z" />
    <glyph glyph-name="quotedblright" unicode="&#x201d;" horiz-adv-x="569" 
d="M155 791l135 -36l-90 -335l-135 37zM371 791l135 -36l-90 -335l-135 37z" />
    <glyph glyph-name="quotedblbase" unicode="&#x201e;" horiz-adv-x="586" 
d="M169 190l135 -36l-104 -381l-135 37zM386 190l135 -36l-104 -381l-135 37z" />
    <glyph glyph-name="dagger" unicode="&#x2020;" horiz-adv-x="589" 
d="M525 697v-142h-160v-404h-141v404h-159v142h159v156h141v-156h160z" />
    <glyph glyph-name="daggerdbl" unicode="&#x2021;" horiz-adv-x="589" 
d="M525 555h-160v-106h160v-142h-160v-156h-141v156h-159v142h159v106h-159v142h159v156h141v-156h160v-142z" />
    <glyph glyph-name="bullet" unicode="&#x2022;" horiz-adv-x="836" 
d="M414 -107q-163 0 -259.5 99.5t-96.5 245.5q0 142 96.5 240t259.5 98q160 0 262 -99t102 -239q0 -144 -101.5 -244.5t-262.5 -100.5z" />
    <glyph glyph-name="ellipsis" unicode="&#x2026;" horiz-adv-x="948" 
d="M184 -10q-56 0 -89 34t-33 84q0 48 33 81.5t89 33.5q55 0 90 -33.5t35 -81.5q0 -49 -35 -83.5t-90 -34.5zM473 -10q-56 0 -89 34t-33 84q0 49 33 82t89 33q54 0 89 -33.5t35 -81.5q0 -49 -35 -83.5t-89 -34.5zM761 -10q-56 0 -89 34t-33 84q0 48 33 81.5t89 33.5
q55 0 89.5 -33.5t34.5 -81.5q0 -49 -34.5 -83.5t-89.5 -34.5z" />
    <glyph glyph-name="perthousand" unicode="&#x2030;" horiz-adv-x="1788" 
d="M744 801l134 -53l-351 -870l-134 52zM307 261q-107 0 -174.5 70.5t-67.5 171.5t67.5 171.5t174.5 70.5t174.5 -70.5t67.5 -171.5t-67.5 -171.5t-174.5 -70.5zM307 403q43 0 71.5 29.5t28.5 70.5t-28.5 70.5t-71.5 29.5q-44 0 -72.5 -29.5t-28.5 -70.5t28.5 -70.5
t72.5 -29.5zM958 -90q-107 0 -174.5 70.5t-67.5 171.5t67.5 171.5t174.5 70.5t174.5 -70.5t67.5 -171.5t-67.5 -171.5t-174.5 -70.5zM1481 -90q-107 0 -174.5 70.5t-67.5 171.5t67.5 171.5t174.5 70.5t174.5 -70.5t67.5 -171.5t-67.5 -171.5t-174.5 -70.5zM958 52
q43 0 72 29.5t29 70.5t-29 70.5t-72 29.5t-72 -29.5t-29 -70.5t29 -70.5t72 -29.5zM1481 52q43 0 72 29.5t29 70.5t-29 70.5t-72 29.5t-72 -29.5t-29 -70.5t29 -70.5t72 -29.5z" />
    <glyph glyph-name="guilsinglleft" unicode="&#x2039;" horiz-adv-x="567" 
d="M502 7l-103 -94l-334 335l334 334l103 -94l-238 -240z" />
    <glyph glyph-name="guilsinglright" unicode="&#x203a;" horiz-adv-x="567" 
d="M65 7l238 241l-238 240l103 94l334 -334l-334 -335z" />
    <glyph glyph-name="fraction" unicode="&#x2044;" horiz-adv-x="454" 
d="M336 814l133 -53l-351 -870l-133 53z" />
    <glyph glyph-name="Euro" unicode="&#x20ac;" horiz-adv-x="889" 
d="M510 158q49 0 82 17.5t43 70.5h189q-16 -122 -99 -189t-215 -67q-134 0 -220.5 65.5t-116.5 176.5h-108v91h94q-1 10 -1 30q0 19 1 28h-94v91h108q30 112 116 177.5t221 65.5q132 0 215 -66.5t99 -188.5h-191q-7 37 -27.5 57t-42 25t-53.5 5q-53 0 -88 -15t-54 -60h188
v-91h-206q-1 -9 -1 -28q0 -21 1 -30h206v-91h-188q20 -44 55 -59t87 -15z" />
    <glyph glyph-name="trademark" unicode="&#x2122;" horiz-adv-x="1000" 
d="M376 705v-105h-97v-229h-115v229h-99v105h311zM703 705h232v-334h-115v197l31 90h-36l-31 -287h-237l-32 287h-36l31 -90v-197h-115v334h233l26 -287h23z" />
    <glyph glyph-name="oneeighth" unicode="&#x215b;" horiz-adv-x="1257" 
d="M709 814l133 -53l-351 -870l-133 53zM24 614q47 44 59 68.5t22 102.5h260v-495h-140v366l25 82h-35q-12 -204 -130 -253zM806 125q0 99 144 120v23q-21 3 -39.5 9t-38 17.5t-31.5 33t-12 50.5q0 60 47 93.5t143 33.5q95 0 142 -33.5t47 -93.5q0 -29 -12 -50.5t-31.5 -33
t-38 -17.5t-38.5 -9v-23q144 -21 144 -120q0 -63 -56 -99t-157 -36t-157 36t-56 99zM969 355q0 -11 2.5 -18.5t14 -14.5t33.5 -7t33.5 7t13.5 14.5t2 18.5q0 10 -2 16t-13.5 12t-33.5 6t-33.5 -5.5t-14 -12t-2.5 -16.5zM946 151q0 -45 73 -45t73 45q0 47 -73 47t-73 -47z
" />
    <glyph glyph-name="threeeighths" unicode="&#x215c;" horiz-adv-x="1285" 
d="M747 814l133 -53l-351 -870l-133 53zM25 480h139q0 -50 23 -65t69 -15q39 0 56.5 9.5t17.5 40.5q0 27 -15 34.5t-50 7.5h-48v115h48q33 0 45.5 7t12.5 31q0 23 -15.5 30.5t-51.5 7.5q-44 0 -64.5 -11t-20.5 -44h-140q0 81 59 126t166 45q104 0 156 -37t52 -95
q0 -28 -9.5 -46.5t-30 -29.5t-38.5 -15.5t-48 -9.5v-36q72 -14 93 -26q39 -23 39 -74q0 -68 -53.5 -107t-160.5 -39q-110 0 -170.5 49t-60.5 147zM835 125q0 99 144 120v23q-21 3 -39.5 9t-38 17.5t-31.5 33t-12 50.5q0 60 47 93.5t143 33.5q95 0 142 -33.5t47 -93.5
q0 -29 -12 -50.5t-31.5 -33t-38 -17.5t-38.5 -9v-23q144 -21 144 -120q0 -63 -56 -99t-157 -36t-157 36t-56 99zM997 355q0 -40 51 -40q22 0 33.5 7t13.5 14.5t2 18.5q0 10 -2 16t-13.5 12t-33.5 6t-34 -5.5t-14.5 -12t-2.5 -16.5zM974 151q0 -25 18.5 -35t55.5 -10
q73 0 73 45q0 47 -73 47q-74 0 -74 -47z" />
    <glyph glyph-name="fiveeighths" unicode="&#x215d;" horiz-adv-x="1277" 
d="M739 814l133 -53l-351 -870l-133 53zM25 451h139q0 -25 21.5 -38t51.5 -13q81 0 81 58q0 71 -54 71q-42 0 -77 -55l-153 48v268h399v-116h-260v-84l-19 -49l23 -13q11 53 47.5 85.5t98.5 32.5q70 0 102.5 -49.5t32.5 -123.5q0 -80 -53.5 -134.5t-161.5 -54.5
q-105 0 -161.5 42.5t-56.5 124.5zM827 125q0 99 144 120v23q-21 3 -39.5 9t-38 17.5t-31.5 33t-12 50.5q0 60 47 93.5t143 33.5q95 0 142 -33.5t47 -93.5q0 -29 -12 -50.5t-31.5 -33t-38 -17.5t-38.5 -9v-23q144 -21 144 -120q0 -63 -56 -99t-157 -36t-157 36t-56 99z
M989 355q0 -11 2.5 -18.5t14.5 -14.5t34 -7q31 0 40 11t9 29q0 10 -2.5 16.5t-14 12t-32.5 5.5q-22 0 -34 -5.5t-14.5 -12t-2.5 -16.5zM966 151q0 -25 18.5 -35t55.5 -10q73 0 73 45q0 47 -73 47q-74 0 -74 -47z" />
    <glyph glyph-name="seveneighths" unicode="&#x215e;" horiz-adv-x="1208" 
d="M675 814l133 -53l-351 -870l-133 53zM78 290q0 160 70.5 237.5t221.5 105.5v36h-345v116h392v-234q-115 -31 -157 -89t-42 -172h-140zM758 125q0 99 144 120v23q-21 3 -39.5 9t-38 17.5t-31.5 33t-12 50.5q0 60 47 93.5t143 33.5q95 0 142 -33.5t47 -93.5
q0 -29 -12 -50.5t-31.5 -33t-38 -17.5t-38.5 -9v-23q144 -21 144 -120q0 -63 -56 -99t-157 -36t-157 36t-56 99zM920 355q0 -40 51 -40q22 0 33.5 7t13.5 14.5t2 18.5q0 10 -2 16t-13.5 12t-33.5 6t-34 -5.5t-14.5 -12t-2.5 -16.5zM897 151q0 -25 18.5 -35t55.5 -10
q73 0 73 45q0 47 -73 47q-74 0 -74 -47z" />
    <glyph glyph-name="arrowleft" unicode="&#x2190;" horiz-adv-x="920" 
d="M855 318v-141h-521l168 -170l-103 -94l-334 335l334 334l103 -94l-169 -170h522z" />
    <glyph glyph-name="arrowup" unicode="&#x2191;" horiz-adv-x="798" 
d="M734 304l-94 -103l-171 168v-521h-141v522l-170 -169l-94 103l334 334z" />
    <glyph glyph-name="arrowright" unicode="&#x2192;" horiz-adv-x="920" 
d="M521 582l334 -334l-334 -335l-103 94l168 170h-521v141h522l-169 170z" />
    <glyph glyph-name="arrowdown" unicode="&#x2193;" horiz-adv-x="798" 
d="M640 280l94 -103l-336 -335l-334 335l94 103l170 -169v522h141v-521z" />
    <glyph glyph-name="arrowboth" unicode="&#x2194;" horiz-adv-x="1449" 
d="M1050 676l335 -335l-335 -335l-103 94l168 170h-521v142h521l-168 170zM502 395l-169 -170h522v-141h-521l168 -171l-103 -94l-334 336l334 334z" />
    <glyph glyph-name="arrowupdn" unicode="&#x2195;" horiz-adv-x="991" 
d="M318 104v522l-170 -169l-94 103l334 334l336 -334l-94 -103l-171 168v-521h-141zM843 24l94 -103l-335 -334l-334 334l93 103l170 -168v521h142v-521z" />
    <glyph glyph-name="uni2196" unicode="&#x2196;" horiz-adv-x="738" 
d="M673 56l-100 -100l-369 369l-1 -240l-139 6v474h473l7 -140l-239 -1z" />
    <glyph glyph-name="uni2197" unicode="&#x2197;" horiz-adv-x="738" 
d="M674 91l-140 -6l-1 239l-369 -368l-100 100l369 368l-239 1l6 140h473z" />
    <glyph glyph-name="uni2198" unicode="&#x2198;" horiz-adv-x="738" 
d="M534 397l140 -6l-1 -474h-473l-6 140l239 1l-369 368l100 100l369 -368z" />
    <glyph glyph-name="uni2199" unicode="&#x2199;" horiz-adv-x="738" 
d="M673 426l-368 -368l239 -1l-7 -140h-473v474l139 6l1 -240l369 369z" />
    <glyph glyph-name="partialdiff" unicode="&#x2202;" horiz-adv-x="784" 
d="M718 319q0 -154 -88 -241.5t-241 -87.5q-146 0 -235 73.5t-89 188.5q0 114 77.5 190t209.5 76q118 0 179.5 -69.5t68.5 -185.5h46l-36 105q-7 63 -36 107.5t-83 73t-121 45.5t-165 29v168q118 -12 208 -42.5t160.5 -85t107.5 -141.5t37 -203zM528 252q0 57 -30.5 77.5
t-103.5 20.5q-74 0 -106 -21t-32 -77q0 -45 35 -69.5t103 -24.5q69 0 101.5 22.5t32.5 71.5z" />
    <glyph glyph-name="emptyset" unicode="&#x2205;" horiz-adv-x="991" 
d="M772 618q73 -60 113.5 -147.5t40.5 -189.5q0 -182 -120.5 -306.5t-310.5 -124.5q-79 0 -151 25l-51 -88l-124 71l50 86q-73 60 -113.5 147.5t-40.5 189.5q0 182 120 306.5t310 124.5q80 0 152 -25l51 88l124 -71zM206 281q0 -125 86 -209l282 488q-36 10 -79 10
q-126 0 -207.5 -84.5t-81.5 -204.5zM495 -8q126 0 208 84.5t82 204.5q0 125 -86 209l-282 -488q34 -10 78 -10z" />
    <glyph glyph-name="product" unicode="&#x220f;" horiz-adv-x="844" 
d="M779 705v-142h-152v-743h-140v743h-130v-743h-139v743h-153v142h714z" />
    <glyph glyph-name="summation" unicode="&#x2211;" horiz-adv-x="676" 
d="M65 -179v287l296 132v46l-296 132v287h546v-142h-407l-104 36v-46l406 -204v-172l-406 -204v-46l104 36h407v-142h-546z" />
    <glyph glyph-name="minus" unicode="&#x2212;" horiz-adv-x="695" 
d="M65 348h565v-142h-565v142z" />
    <glyph glyph-name="radical" unicode="&#x221a;" horiz-adv-x="845" 
d="M476 621q18 84 105 84h199v-142h-182l-161 -743h-297l-75 385h140l60 -338h47z" />
    <glyph glyph-name="infinity" unicode="&#x221e;" horiz-adv-x="1105" 
d="M65 300q0 116 68.5 191t159.5 75q35 0 67 -10t54 -23t45 -36t35.5 -38.5t32 -42.5t26.5 -36q8 10 27 36t31 42t35.5 39t45 36t53.5 23t67 10q91 0 160 -75t69 -191t-69 -191t-160 -75q-35 0 -67 10t-53.5 23t-45 36t-35.5 39t-31 42t-27 36q-7 -9 -26.5 -36t-32 -42.5
t-35.5 -38.5t-45 -36t-54 -23t-67 -10q-91 0 -159.5 75t-68.5 191zM204 300q0 -57 34.5 -90.5t93.5 -33.5q23 0 41 5.5t33 19.5t24 25t26 35.5t28 38.5q-11 14 -28 38.5t-26 35.5t-24 25t-33 19.5t-41 5.5q-59 0 -93.5 -33.5t-34.5 -90.5zM621 300q10 -13 27.5 -38.5
t26.5 -36t24.5 -24.5t33.5 -19.5t41 -5.5q59 0 93 33.5t34 90.5t-34 90.5t-93 33.5q-23 0 -41 -5.5t-33.5 -19.5t-24.5 -24.5t-26.5 -36t-27.5 -38.5z" />
    <glyph glyph-name="integral" unicode="&#x222b;" horiz-adv-x="763" 
d="M65 -180v142h189l179 663q21 80 107 80h158v-142h-136l-179 -663q-21 -80 -107 -80h-211z" />
    <glyph glyph-name="approxequal" unicode="&#x2248;" horiz-adv-x="679" 
d="M65 277q0 104 39 164t112 60q42 0 85.5 -19.5t76.5 -39.5t52 -20q24 0 33.5 18.5t9.5 64.5h141q0 -104 -39 -164.5t-113 -60.5q-42 0 -85 20t-76.5 39.5t-51.5 19.5q-24 0 -33.5 -18t-9.5 -64h-141zM65 23q0 104 39 164.5t112 60.5q42 0 85.5 -20t76.5 -39.5t52 -19.5
q24 0 33.5 18t9.5 64h141q0 -104 -39 -164t-113 -60q-42 0 -85 19.5t-76.5 39.5t-51.5 20q-24 0 -33.5 -18.5t-9.5 -64.5h-141z" />
    <glyph glyph-name="notequal" unicode="&#x2260;" horiz-adv-x="695" 
d="M630 320h-192l-49 -85h241v-142h-323l-93 -162l-99 58l60 104h-110v142h192l49 85h-241v142h323l93 162l99 -58l-60 -104h110v-142z" />
    <glyph glyph-name="lessequal" unicode="&#x2264;" horiz-adv-x="704" 
d="M65 364v139l531 213l43 -135l-410 -147l410 -133l-43 -135zM639 132v-143h-565v143h565z" />
    <glyph glyph-name="greaterequal" unicode="&#x2265;" horiz-adv-x="704" 
d="M639 364l-531 -198l-43 135l410 133l-410 147l43 135l531 -213v-139zM65 132h565v-143h-565v143z" />
    <glyph glyph-name="uni2460" unicode="&#x2460;" 
d="M564 -192q-119 0 -217.5 41t-164 111.5t-101.5 165t-36 202.5q0 221 141.5 370t377.5 149t377.5 -149t141.5 -370q0 -108 -36 -202.5t-101.5 -165t-164 -111.5t-217.5 -41zM564 -76q123 0 216 56t140.5 147t47.5 201t-47.5 201t-140.5 147t-216 56t-216 -56t-140.5 -147
t-47.5 -201t47.5 -201t140.5 -147t216 -56zM355 404q47 43 59 67.5t22 102.5h260v-495h-140v366l25 83h-35q-12 -204 -130 -253z" />
    <glyph glyph-name="uni2461" unicode="&#x2461;" 
d="M564 -192q-119 0 -217.5 41t-164 111.5t-101.5 165t-36 202.5q0 221 141.5 370t377.5 149t377.5 -149t141.5 -370q0 -108 -36 -202.5t-101.5 -165t-164 -111.5t-217.5 -41zM564 -76q123 0 216 56t140.5 147t47.5 201t-47.5 201t-140.5 147t-216 56t-216 -56t-140.5 -147
t-47.5 -201t47.5 -201t140.5 -147t216 -56zM348 397q0 85 56 149.5t168 64.5q102 0 148 -51t46 -121q0 -53 -25 -90t-75.5 -58.5t-106 -32.5t-136.5 -18v-36l84 18h263v-116h-393v213q1 0 31 3t51.5 6t55.5 11.5t56.5 20.5t39 32.5t16.5 46.5q0 22 -15.5 38.5t-51.5 16.5
q-44 0 -58 -23.5t-14 -73.5h-140z" />
    <glyph glyph-name="uni2462" unicode="&#x2462;" 
d="M564 -192q-119 0 -217.5 41t-164 111.5t-101.5 165t-36 202.5q0 221 141.5 370t377.5 149t377.5 -149t141.5 -370q0 -108 -36 -202.5t-101.5 -165t-164 -111.5t-217.5 -41zM564 -76q123 0 216 56t140.5 147t47.5 201t-47.5 201t-140.5 147t-216 56t-216 -56t-140.5 -147
t-47.5 -201t47.5 -201t140.5 -147t216 -56zM342 267h140q0 -50 22.5 -65t68.5 -15q39 0 56.5 9.5t17.5 40.5q0 27 -15 34.5t-50 7.5h-47v115h47q33 0 45.5 6.5t12.5 31.5q0 23 -15 30t-52 7q-43 0 -64 -10.5t-21 -43.5h-140q0 81 59 126t166 45q105 0 156.5 -37t51.5 -95
q0 -28 -9.5 -46.5t-30 -29.5t-38 -16t-47.5 -10v-36q72 -13 93 -26q38 -23 38 -74q0 -68 -53 -106.5t-161 -38.5q-110 0 -170.5 49t-60.5 147z" />
    <glyph glyph-name="uni2463" unicode="&#x2463;" 
d="M564 -192q-119 0 -217.5 41t-164 111.5t-101.5 165t-36 202.5q0 221 141.5 370t377.5 149t377.5 -149t141.5 -370q0 -108 -36 -202.5t-101.5 -165t-164 -111.5t-217.5 -41zM564 -76q123 0 216 56t140.5 147t47.5 201t-47.5 201t-140.5 147t-216 56t-216 -56t-140.5 -147
t-47.5 -201t47.5 -201t140.5 -147t216 -56zM349 134v292q162 17 185 153h139q-4 -49 -23 -94.5t-54 -87t-93 -70.5t-134 -39v-36l83 25h118v68h140v-68h67v-143h-67v-50h-140v50h-221z" />
    <glyph glyph-name="uni2464" unicode="&#x2464;" 
d="M564 -192q-119 0 -217.5 41t-164 111.5t-101.5 165t-36 202.5q0 221 141.5 370t377.5 149t377.5 -149t141.5 -370q0 -108 -36 -202.5t-101.5 -165t-164 -111.5t-217.5 -41zM564 -76q123 0 216 56t140.5 147t47.5 201t-47.5 201t-140.5 147t-216 56t-216 -56t-140.5 -147
t-47.5 -201t47.5 -201t140.5 -147t216 -56zM362 214h139q0 -25 21.5 -37.5t51.5 -12.5q81 0 81 58q0 71 -54 71q-42 0 -77 -55l-153 48v268h399v-116h-260v-85l-19 -49l23 -12q11 52 47.5 84.5t98.5 32.5q70 0 102.5 -49t32.5 -124q0 -80 -53.5 -134t-161.5 -54
q-105 0 -161.5 42.5t-56.5 123.5z" />
    <glyph glyph-name="uni2465" unicode="&#x2465;" 
d="M564 -192q-119 0 -217.5 41t-164 111.5t-101.5 165t-36 202.5q0 221 141.5 370t377.5 149t377.5 -149t141.5 -370q0 -108 -36 -202.5t-101.5 -165t-164 -111.5t-217.5 -41zM564 -76q123 0 216 56t140.5 147t47.5 201t-47.5 201t-140.5 147t-216 56t-216 -56t-140.5 -147
t-47.5 -201t47.5 -201t140.5 -147t216 -56zM340 308q0 65 12 114.5t42 92.5t89 61.5t144 8.5l80 -10v-117l-90 10q-103 11 -142.5 -17.5t-39.5 -93.5l-37 -83h36q12 54 52.5 94.5t115.5 40.5q67 0 113.5 -38t46.5 -129q0 -93 -56.5 -132.5t-141.5 -39.5q-112 0 -168 56.5
t-56 181.5zM480 240q0 -32 16 -43t55 -11q38 0 54.5 12t16.5 41t-18 41.5t-57 12.5q-38 0 -52.5 -11.5t-14.5 -41.5z" />
    <glyph glyph-name="uni2466" unicode="&#x2466;" 
d="M564 -192q-119 0 -217.5 41t-164 111.5t-101.5 165t-36 202.5q0 221 141.5 370t377.5 149t377.5 -149t141.5 -370q0 -108 -36 -202.5t-101.5 -165t-164 -111.5t-217.5 -41zM564 -76q123 0 216 56t140.5 147t47.5 201t-47.5 201t-140.5 147t-216 56t-216 -56t-140.5 -147
t-47.5 -201t47.5 -201t140.5 -147t216 -56zM432 58q0 160 70.5 237.5t221.5 105.5v36h-346v116h393v-234q-115 -31 -157 -88.5t-42 -172.5h-140z" />
    <glyph glyph-name="uni2467" unicode="&#x2467;" 
d="M564 -192q-119 0 -217.5 41t-164 111.5t-101.5 165t-36 202.5q0 221 141.5 370t377.5 149t377.5 -149t141.5 -370q0 -108 -36 -202.5t-101.5 -165t-164 -111.5t-217.5 -41zM564 -76q123 0 216 56t140.5 147t47.5 201t-47.5 201t-140.5 147t-216 56t-216 -56t-140.5 -147
t-47.5 -201t47.5 -201t140.5 -147t216 -56zM351 206q0 99 144 120v23q-21 3 -39.5 9t-38 17.5t-31.5 33t-12 50.5q0 60 47 93.5t143 33.5q95 0 142 -33.5t47 -93.5q0 -29 -12 -50.5t-31.5 -33t-38 -17.5t-38.5 -9v-23q144 -21 144 -120q0 -63 -56 -99t-157 -36t-157 36
t-56 99zM514 436q0 -12 2.5 -19.5t14 -14.5t33.5 -7t33.5 7t13.5 14.5t2 19.5q0 10 -2 16t-13.5 11.5t-33.5 5.5t-33.5 -5.5t-14 -11.5t-2.5 -16zM491 231q0 -44 73 -44t73 44q0 48 -73 48t-73 -48z" />
    <glyph glyph-name="uni2468" unicode="&#x2468;" 
d="M564 -192q-119 0 -217.5 41t-164 111.5t-101.5 165t-36 202.5q0 221 141.5 370t377.5 149t377.5 -149t141.5 -370q0 -108 -36 -202.5t-101.5 -165t-164 -111.5t-217.5 -41zM564 -76q123 0 216 56t140.5 147t47.5 201t-47.5 201t-140.5 147t-216 56t-216 -56t-140.5 -147
t-47.5 -201t47.5 -201t140.5 -147t216 -56zM787 351q0 -51 -7 -92.5t-26 -81t-50 -64.5t-83 -36t-121 -3l-80 10v116l90 -10q104 -11 143 18t39 94l37 83h-36q-12 -54 -52.5 -95t-114.5 -41q-67 0 -114 38.5t-47 129.5q0 92 57 132t142 40q112 0 167.5 -56.5t55.5 -181.5z
M648 419q0 32 -16 43t-56 11q-38 0 -54.5 -12t-16.5 -42q0 -29 18 -41t58 -12q37 0 52 11.5t15 41.5z" />
    <glyph glyph-name="uni24EA" unicode="&#x24ea;" 
d="M564 847q236 0 377.5 -149t141.5 -370q0 -108 -36 -202.5t-101.5 -165t-164 -111.5t-217.5 -41t-217.5 41t-164 111.5t-101.5 165t-36 202.5q0 221 141.5 370t377.5 149zM564 -76q123 0 216 56t140.5 147t47.5 201t-47.5 201t-140.5 147t-216 56t-216 -56t-140.5 -147
t-47.5 -201t47.5 -201t140.5 -147t216 -56zM565 586q110 0 170.5 -71.5t60.5 -185.5q0 -116 -60 -187t-171 -71t-171.5 71t-60.5 187q0 114 60.5 185.5t171.5 71.5zM565 444q-42 0 -67 -32.5t-25 -82.5q0 -24 6 -45l137 147q-21 13 -51 13zM565 213q91 0 91 116q0 25 -4 44
l-137 -144q22 -16 50 -16z" />
    <glyph glyph-name="uni24FF" unicode="&#x24ff;" 
d="M564 -192q-119 0 -217.5 41t-164 111.5t-101.5 165t-36 202.5q0 221 141.5 370t377.5 149t377.5 -149t141.5 -370q0 -108 -36 -202.5t-101.5 -165t-164 -111.5t-217.5 -41zM333 329q0 -116 60.5 -187t171.5 -71t171 71t60 187q0 114 -60.5 185.5t-170.5 71.5
q-111 0 -171.5 -71.5t-60.5 -185.5zM473 329q0 50 25 82.5t67 32.5q30 0 52 -13l-139 -146q-5 23 -5 44zM513 229l140 143q3 -19 3 -43q0 -116 -91 -116q-28 0 -52 16z" />
    <glyph glyph-name="lozenge" unicode="&#x25ca;" horiz-adv-x="582" 
d="M431 705l86 -346l-86 -345h-279l-87 345l87 346h279zM315 60l52 299l-52 299h-47l-53 -299l53 -299h47z" />
    <glyph glyph-name="uni2776" unicode="&#x2776;" 
d="M564 -192q119 0 217.5 41t164 111.5t101.5 165t36 202.5q0 221 -141.5 370t-377.5 149t-377.5 -149t-141.5 -370q0 -108 36 -202.5t101.5 -165t164 -111.5t217.5 -41zM355 404q47 43 59 67.5t22 102.5h260v-495h-140v366l25 83h-35q-12 -204 -130 -253z" />
    <glyph glyph-name="uni2777" unicode="&#x2777;" 
d="M564 -192q119 0 217.5 41t164 111.5t101.5 165t36 202.5q0 221 -141.5 370t-377.5 149t-377.5 -149t-141.5 -370q0 -108 36 -202.5t101.5 -165t164 -111.5t217.5 -41zM348 397q0 85 56 149.5t168 64.5q102 0 148 -51t46 -121q0 -53 -25 -90t-75.5 -58.5t-106 -32.5
t-136.5 -18v-36l84 18h263v-116h-393v213q1 0 31 3t51.5 6t55.5 11.5t56.5 20.5t39 32.5t16.5 46.5q0 22 -15.5 38.5t-51.5 16.5q-44 0 -58 -23.5t-14 -73.5h-140z" />
    <glyph glyph-name="uni2778" unicode="&#x2778;" 
d="M564 -192q119 0 217.5 41t164 111.5t101.5 165t36 202.5q0 221 -141.5 370t-377.5 149t-377.5 -149t-141.5 -370q0 -108 36 -202.5t101.5 -165t164 -111.5t217.5 -41zM342 267h140q0 -50 22.5 -65t68.5 -15q39 0 56.5 9.5t17.5 40.5q0 27 -15 34.5t-50 7.5h-47v115h47
q33 0 45.5 6.5t12.5 31.5q0 23 -15 30t-52 7q-43 0 -64 -10.5t-21 -43.5h-140q0 81 59 126t166 45q105 0 156.5 -37t51.5 -95q0 -28 -9.5 -46.5t-30 -29.5t-38 -16t-47.5 -10v-36q72 -13 93 -26q38 -23 38 -74q0 -68 -53 -106.5t-161 -38.5q-110 0 -170.5 49t-60.5 147z" />
    <glyph glyph-name="uni2779" unicode="&#x2779;" 
d="M564 -192q119 0 217.5 41t164 111.5t101.5 165t36 202.5q0 221 -141.5 370t-377.5 149t-377.5 -149t-141.5 -370q0 -108 36 -202.5t101.5 -165t164 -111.5t217.5 -41zM353 144v292q164 17 185 153h140q-5 -50 -24 -95t-54 -86.5t-93 -70.5t-134 -39v-36l84 25h117v68h140
v-68h68v-143h-68v-50h-140v50h-221z" />
    <glyph glyph-name="uni277A" unicode="&#x277a;" 
d="M564 -192q119 0 217.5 41t164 111.5t101.5 165t36 202.5q0 221 -141.5 370t-377.5 149t-377.5 -149t-141.5 -370q0 -108 36 -202.5t101.5 -165t164 -111.5t217.5 -41zM362 214h139q0 -25 21.5 -37.5t51.5 -12.5q81 0 81 58q0 71 -54 71q-42 0 -77 -55l-153 48v268h399
v-116h-260v-85l-19 -49l23 -12q11 52 47.5 84.5t98.5 32.5q70 0 102.5 -49t32.5 -124q0 -80 -53.5 -134t-161.5 -54q-105 0 -161.5 42.5t-56.5 123.5z" />
    <glyph glyph-name="uni277B" unicode="&#x277b;" 
d="M564 -192q119 0 217.5 41t164 111.5t101.5 165t36 202.5q0 221 -141.5 370t-377.5 149t-377.5 -149t-141.5 -370q0 -108 36 -202.5t101.5 -165t164 -111.5t217.5 -41zM340 308q0 65 12 114.5t42 92.5t89 61.5t144 8.5l80 -10v-117l-90 10q-103 11 -142.5 -17.5
t-39.5 -93.5l-37 -83h36q12 54 52.5 94.5t115.5 40.5q67 0 113.5 -38t46.5 -129q0 -93 -56.5 -132.5t-141.5 -39.5q-112 0 -168 56.5t-56 181.5zM480 240q0 -32 16 -43t55 -11q38 0 54.5 12t16.5 41t-18 41.5t-57 12.5q-38 0 -52.5 -11.5t-14.5 -41.5z" />
    <glyph glyph-name="uni277C" unicode="&#x277c;" 
d="M564 -192q119 0 217.5 41t164 111.5t101.5 165t36 202.5q0 221 -141.5 370t-377.5 149t-377.5 -149t-141.5 -370q0 -108 36 -202.5t101.5 -165t164 -111.5t217.5 -41zM432 58q0 160 70.5 237.5t221.5 105.5v36h-346v116h393v-234q-115 -31 -157 -88.5t-42 -172.5h-140z
" />
    <glyph glyph-name="uni277D" unicode="&#x277d;" 
d="M564 -192q119 0 217.5 41t164 111.5t101.5 165t36 202.5q0 221 -141.5 370t-377.5 149t-377.5 -149t-141.5 -370q0 -108 36 -202.5t101.5 -165t164 -111.5t217.5 -41zM351 206q0 99 144 120v23q-21 3 -39.5 9t-38 17.5t-31.5 33t-12 50.5q0 60 47 93.5t143 33.5
q95 0 142 -33.5t47 -93.5q0 -29 -12 -50.5t-31.5 -33t-38 -17.5t-38.5 -9v-23q144 -21 144 -120q0 -63 -56 -99t-157 -36t-157 36t-56 99zM514 436q0 -12 2.5 -19.5t14 -14.5t33.5 -7t33.5 7t13.5 14.5t2 19.5q0 10 -2 16t-13.5 11.5t-33.5 5.5t-33.5 -5.5t-14 -11.5
t-2.5 -16zM491 231q0 -44 73 -44t73 44q0 48 -73 48t-73 -48z" />
    <glyph glyph-name="uni277E" unicode="&#x277e;" 
d="M564 -192q119 0 217.5 41t164 111.5t101.5 165t36 202.5q0 221 -141.5 370t-377.5 149t-377.5 -149t-141.5 -370q0 -108 36 -202.5t101.5 -165t164 -111.5t217.5 -41zM787 351q0 -51 -7 -92.5t-26 -81t-50 -64.5t-83 -36t-121 -3l-80 10v116l90 -10q104 -11 143 18t39 94
l37 83h-36q-12 -54 -52.5 -95t-114.5 -41q-67 0 -114 38.5t-47 129.5q0 92 57 132t142 40q112 0 167.5 -56.5t55.5 -181.5zM648 419q0 32 -16 43t-56 11q-38 0 -54.5 -12t-16.5 -42q0 -29 18 -41t58 -12q37 0 52 11.5t15 41.5z" />
    <glyph glyph-name="G.ss01" horiz-adv-x="848" 
d="M45 353q0 161 104.5 261.5t260.5 100.5q134 0 234 -73.5t117 -188.5h-191q-13 52 -50.5 73t-109.5 21q-83 0 -128.5 -48t-45.5 -146q0 -101 41.5 -148t128.5 -47q46 0 90 11t75 34.5t31 54.5h-170v142h267q45 0 70 -25.5t25 -71.5v-303h-192v47l36 128h-47q2 -13 0.5 -31
t-12.5 -46.5t-32.5 -51t-67 -39.5t-107.5 -17q-152 0 -239.5 98.5t-87.5 264.5z" />
    <glyph glyph-name="Gbreve.ss01" horiz-adv-x="848" 
d="M604 959q0 -40 -9.5 -75.5t-30.5 -66.5t-60.5 -49.5t-93.5 -18.5t-93 18.5t-60 49.5t-30.5 66.5t-9.5 75.5h141q0 -48 13.5 -64.5t38.5 -16.5t39 16.5t14 64.5h141zM45 353q0 161 104.5 261.5t260.5 100.5q134 0 234 -73.5t117 -188.5h-191q-13 52 -50.5 73t-109.5 21
q-83 0 -128.5 -48t-45.5 -146q0 -101 41.5 -148t128.5 -47q46 0 90 11t75 34.5t31 54.5h-170v142h267q45 0 70 -25.5t25 -71.5v-303h-192v47l36 128h-47q2 -13 0.5 -31t-12.5 -46.5t-32.5 -51t-67 -39.5t-107.5 -17q-152 0 -239.5 98.5t-87.5 264.5z" />
    <glyph glyph-name="uni0122.ss01" horiz-adv-x="848" 
d="M45 353q0 161 104.5 261.5t260.5 100.5q134 0 234 -73.5t117 -188.5h-191q-13 52 -50.5 73t-109.5 21q-83 0 -128.5 -48t-45.5 -146q0 -101 41.5 -148t128.5 -47q46 0 90 11t75 34.5t31 54.5h-170v142h267q45 0 70 -25.5t25 -71.5v-303h-192v47l36 128h-47q2 -13 0.5 -31
t-12.5 -46.5t-32.5 -51t-67 -39.5t-107.5 -17q-152 0 -239.5 98.5t-87.5 264.5zM310 -49l133 -44l-66 -173l-132 44z" />
    <glyph glyph-name="Gdotaccent.ss01" horiz-adv-x="848" 
d="M408 748q-97 0 -97 82t97 82q47 0 74 -20.5t27 -61.5q0 -82 -101 -82zM45 353q0 161 104.5 261.5t260.5 100.5q134 0 234 -73.5t117 -188.5h-191q-13 52 -50.5 73t-109.5 21q-83 0 -128.5 -48t-45.5 -146q0 -101 41.5 -148t128.5 -47q46 0 90 11t75 34.5t31 54.5h-170
v142h267q45 0 70 -25.5t25 -71.5v-303h-192v47l36 128h-47q2 -13 0.5 -31t-12.5 -46.5t-32.5 -51t-67 -39.5t-107.5 -17q-152 0 -239.5 98.5t-87.5 264.5z" />
    <glyph glyph-name="i.loclTRK" horiz-adv-x="523" 
d="M239 551q-97 0 -97 82t97 82q47 0 74 -20.5t27 -61.5q0 -82 -101 -82zM35 0v168h143v177l-130 -5v168l221 10q44 2 69.5 -21.5t25.5 -68.5v-260h144v-168h-473z" />
    <glyph glyph-name="a.ss01" horiz-adv-x="726" 
d="M672 0h-191v14l36 104h-46q-55 -128 -197 -128q-115 0 -177 76t-62 189q0 112 62 187.5t177 75.5q142 0 197 -127h46l-36 103v14h191v-508zM481 255q0 54 -31 74.5t-95 20.5t-96.5 -21t-32.5 -74q0 -54 32.5 -75.5t96.5 -21.5t95 21t31 76z" />
    <glyph glyph-name="aacute.ss01" horiz-adv-x="726" 
d="M123 680l423 89l31 -134l-423 -89zM672 0h-191v14l36 104h-46q-55 -128 -197 -128q-115 0 -177 76t-62 189q0 112 62 187.5t177 75.5q142 0 197 -127h46l-36 103v14h191v-508zM481 255q0 54 -31 74.5t-95 20.5t-96.5 -21t-32.5 -74q0 -54 32.5 -75.5t96.5 -21.5t95 21
t31 76z" />
    <glyph glyph-name="abreve.ss01" horiz-adv-x="726" 
d="M557 762q0 -40 -9.5 -75.5t-30.5 -66.5t-60.5 -49.5t-93.5 -18.5t-93 18.5t-60 49.5t-30.5 66.5t-9.5 75.5h141q0 -48 13.5 -64.5t38.5 -16.5t39 16.5t14 64.5h141zM672 0h-191v14l36 104h-46q-55 -128 -197 -128q-115 0 -177 76t-62 189q0 112 62 187.5t177 75.5
q142 0 197 -127h46l-36 103v14h191v-508zM481 255q0 54 -31 74.5t-95 20.5t-96.5 -21t-32.5 -74q0 -54 32.5 -75.5t96.5 -21.5t95 21t31 76z" />
    <glyph glyph-name="acircumflex.ss01" horiz-adv-x="726" 
d="M601 630l-101 -93l-137 89l-136 -89l-101 93l237 160zM672 0h-191v14l36 104h-46q-55 -128 -197 -128q-115 0 -177 76t-62 189q0 112 62 187.5t177 75.5q142 0 197 -127h46l-36 103v14h191v-508zM481 255q0 54 -31 74.5t-95 20.5t-96.5 -21t-32.5 -74q0 -54 32.5 -75.5
t96.5 -21.5t95 21t31 76z" />
    <glyph glyph-name="adieresis.ss01" horiz-adv-x="726" 
d="M233 551q-97 0 -97 82t97 82q47 0 74 -20.5t27 -61.5q0 -82 -101 -82zM491 551q-98 0 -98 82t98 82q47 0 73.5 -20.5t26.5 -61.5q0 -82 -100 -82zM672 0h-191v14l36 104h-46q-55 -128 -197 -128q-115 0 -177 76t-62 189q0 112 62 187.5t177 75.5q142 0 197 -127h46
l-36 103v14h191v-508zM481 255q0 54 -31 74.5t-95 20.5t-96.5 -21t-32.5 -74q0 -54 32.5 -75.5t96.5 -21.5t95 21t31 76z" />
    <glyph glyph-name="agrave.ss01" horiz-adv-x="726" 
d="M603 680l-31 -134l-423 89l31 134zM672 0h-191v14l36 104h-46q-55 -128 -197 -128q-115 0 -177 76t-62 189q0 112 62 187.5t177 75.5q142 0 197 -127h46l-36 103v14h191v-508zM481 255q0 54 -31 74.5t-95 20.5t-96.5 -21t-32.5 -74q0 -54 32.5 -75.5t96.5 -21.5t95 21
t31 76z" />
    <glyph glyph-name="amacron.ss01" horiz-adv-x="726" 
d="M127 735h473v-140l-473 -2v142zM672 0h-191v14l36 104h-46q-55 -128 -197 -128q-115 0 -177 76t-62 189q0 112 62 187.5t177 75.5q142 0 197 -127h46l-36 103v14h191v-508zM481 255q0 54 -31 74.5t-95 20.5t-96.5 -21t-32.5 -74q0 -54 32.5 -75.5t96.5 -21.5t95 21t31 76
z" />
    <glyph glyph-name="aogonek.ss01" horiz-adv-x="726" 
d="M646 -61l115 12v-142l-179 -14q-60 -4 -93 36.5t-5 81.5l60 87h-63v14l36 104h-46q-55 -128 -197 -128q-115 0 -177 76t-62 189q0 112 62 187.5t177 75.5q142 0 197 -127h46l-36 103v14h191v-508zM355 158q64 0 95 21t31 76q0 54 -31 74.5t-95 20.5t-96.5 -21t-32.5 -74
q0 -54 32.5 -75.5t96.5 -21.5z" />
    <glyph glyph-name="aring.ss01" horiz-adv-x="726" 
d="M363 553q-172 0 -172 129q0 130 172 130q173 0 173 -130q0 -129 -173 -129zM363 651q45 0 45 31q0 30 -45 30q-44 0 -44 -30q0 -31 44 -31zM672 0h-191v14l36 104h-46q-55 -128 -197 -128q-115 0 -177 76t-62 189q0 112 62 187.5t177 75.5q142 0 197 -127h46l-36 103v14
h191v-508zM481 255q0 54 -31 74.5t-95 20.5t-96.5 -21t-32.5 -74q0 -54 32.5 -75.5t96.5 -21.5t95 21t31 76z" />
    <glyph glyph-name="atilde.ss01" horiz-adv-x="726" 
d="M109 603q0 95 43.5 153t120.5 58q41 0 74.5 -20t56.5 -39.5t39 -19.5q18 0 26.5 13.5t8.5 55.5h141q0 -95 -43.5 -153t-120.5 -58q-33 0 -61 12.5t-44 27t-33.5 27t-31.5 12.5q-18 0 -26.5 -13.5t-8.5 -55.5h-141zM672 0h-191v14l36 104h-46q-55 -128 -197 -128
q-115 0 -177 76t-62 189q0 112 62 187.5t177 75.5q142 0 197 -127h46l-36 103v14h191v-508zM481 255q0 54 -31 74.5t-95 20.5t-96.5 -21t-32.5 -74q0 -54 32.5 -75.5t96.5 -21.5t95 21t31 76z" />
    <glyph glyph-name="g.ss01" horiz-adv-x="727" 
d="M481 508h191v-618q0 -47 -24.5 -70.5t-68.5 -22.5l-444 6v168l346 -5v48l36 104h-46q-55 -128 -197 -128q-115 0 -177 76t-62 189q0 112 62 187.5t177 75.5q142 0 197 -127h46l-36 103v14zM355 158q64 0 95 21t31 76q0 54 -31 74.5t-95 20.5t-96.5 -21t-32.5 -74
q0 -54 32.5 -75.5t96.5 -21.5z" />
    <glyph glyph-name="gbreve.ss01" horiz-adv-x="727" 
d="M338 552q-54 0 -93 18.5t-60 49.5t-30.5 66.5t-9.5 75.5h141q0 -48 13.5 -64.5t38.5 -16.5t39 16.5t14 64.5h141q0 -40 -9.5 -75.5t-30.5 -66.5t-60.5 -49.5t-93.5 -18.5zM481 508h191v-618q0 -47 -24.5 -70.5t-68.5 -22.5l-444 6v168l346 -5v48l36 104h-46
q-55 -128 -197 -128q-115 0 -177 76t-62 189q0 112 62 187.5t177 75.5q142 0 197 -127h46l-36 103v14zM355 158q64 0 95 21t31 76q0 54 -31 74.5t-95 20.5t-96.5 -21t-32.5 -74q0 -54 32.5 -75.5t96.5 -21.5z" />
    <glyph glyph-name="uni0123.ss01" horiz-adv-x="727" 
d="M471 778l-80 -232l-135 36l79 232zM481 508h191v-618q0 -47 -24.5 -70.5t-68.5 -22.5l-444 6v168l346 -5v48l36 104h-46q-55 -128 -197 -128q-115 0 -177 76t-62 189q0 112 62 187.5t177 75.5q142 0 197 -127h46l-36 103v14zM355 158q64 0 95 21t31 76q0 54 -31 74.5
t-95 20.5t-96.5 -21t-32.5 -74q0 -54 32.5 -75.5t96.5 -21.5z" />
    <glyph glyph-name="gdotaccent.ss01" horiz-adv-x="727" 
d="M336 551q-97 0 -97 82t97 82q47 0 74 -20.5t27 -61.5q0 -82 -101 -82zM481 508h191v-618q0 -47 -24.5 -70.5t-68.5 -22.5l-444 6v168l346 -5v48l36 104h-46q-55 -128 -197 -128q-115 0 -177 76t-62 189q0 112 62 187.5t177 75.5q142 0 197 -127h46l-36 103v14zM355 158
q64 0 95 21t31 76q0 54 -31 74.5t-95 20.5t-96.5 -21t-32.5 -74q0 -54 32.5 -75.5t96.5 -21.5z" />
    <glyph glyph-name="k.ss01" horiz-adv-x="761" 
d="M737 508l-256 -206l256 -302h-236l-160 189l-95 -76v-113h-191v735h191v-390l206 163h285z" />
    <glyph glyph-name="uni0137.ss01" horiz-adv-x="761" 
d="M737 508l-256 -206l256 -302h-236l-160 189l-95 -76v-113h-191v735h191v-390l206 163h285zM256 -222l65 173l133 -44l-66 -173z" />
    <glyph glyph-name="uni0438.loclBGR" horiz-adv-x="727" 
d="M693 0h-179v362l37 100h-47l-102 -462h-347v508h178v-355l-36 -106h46l103 461h347v-508z" />
    <glyph glyph-name="uni0439.loclBGR" horiz-adv-x="727" 
d="M574 762q0 -40 -9.5 -75.5t-30.5 -66.5t-60.5 -49.5t-93.5 -18.5t-93 18.5t-60 49.5t-30.5 66.5t-9.5 75.5h141q0 -48 13.5 -64.5t38.5 -16.5t39 16.5t14 64.5h141zM693 0h-179v362l37 100h-47l-102 -462h-347v508h178v-355l-36 -106h46l103 461h347v-508z" />
    <glyph glyph-name="uni045D.loclBGR" horiz-adv-x="727" 
d="M620 680l-31 -134l-423 89l31 134zM693 0h-179v362l37 100h-47l-102 -462h-347v508h178v-355l-36 -106h46l103 461h347v-508z" />
    <glyph glyph-name="zero.dnom" horiz-adv-x="512" 
d="M256 505q111 0 171 -71.5t60 -185.5q0 -116 -60 -187t-171 -71t-171 71t-60 187q0 114 60 185.5t171 71.5zM256 363q-42 0 -67 -32.5t-25 -82.5q0 -25 6 -46l137 148q-21 13 -51 13zM256 132q91 0 91 116q0 26 -4 45l-137 -145q22 -16 50 -16z" />
    <glyph glyph-name="one.dnom" horiz-adv-x="390" 
d="M24 324q47 44 59 68.5t22 102.5h260v-495h-140v366l25 82h-35q-12 -204 -130 -253z" />
    <glyph glyph-name="two.dnom" horiz-adv-x="467" 
d="M25 292q0 84 55.5 148.5t167.5 64.5q54 0 93.5 -15.5t60.5 -41.5t31 -54.5t10 -60.5q0 -43 -18 -75.5t-46.5 -53t-75 -35t-93 -22t-110.5 -13.5v-36l83 18h263v-116h-393v213q4 1 31.5 3.5t51 6t56 12t55.5 20t39.5 32t16.5 46.5q0 22 -15.5 39t-51.5 17q-44 0 -58 -24
t-14 -73h-139z" />
    <glyph glyph-name="three.dnom" horiz-adv-x="495" 
d="M25 186h139q0 -50 23 -65t69 -15q39 0 56.5 9.5t17.5 40.5q0 27 -15 34.5t-50 7.5h-48v115h48q33 0 45.5 7t12.5 31q0 23 -15.5 30.5t-51.5 7.5q-44 0 -64.5 -11t-20.5 -44h-140q0 81 59 126t166 45q104 0 156 -37t52 -95q0 -28 -9.5 -46.5t-30 -29.5t-38.5 -15.5
t-48 -9.5v-36q72 -14 93 -26q39 -23 39 -74q0 -68 -53.5 -107t-160.5 -39q-110 0 -170.5 49t-60.5 147z" />
    <glyph glyph-name="four.dnom" horiz-adv-x="478" 
d="M25 50v292q163 17 184 153h140q-5 -49 -24 -94.5t-53.5 -87t-93 -70.5t-133.5 -39v-36l83 25h118v68h139v-68h68v-143h-68v-50h-139v50h-221z" />
    <glyph glyph-name="five.dnom" horiz-adv-x="482" 
d="M25 157h139q0 -25 21.5 -38t51.5 -13q81 0 81 58q0 71 -54 71q-42 0 -77 -55l-153 48v268h399v-116h-260v-84l-19 -49l23 -13q11 53 47.5 85.5t98.5 32.5q70 0 102.5 -49.5t32.5 -123.5q0 -80 -53.5 -134.5t-161.5 -54.5q-105 0 -161.5 42.5t-56.5 124.5z" />
    <glyph glyph-name="six.dnom" horiz-adv-x="471" 
d="M25 228q0 51 7 92.5t26 81t50 64.5t83 36t121 3l80 -10v-116l-90 10q-104 11 -143 -18t-39 -94l-37 -83h36q12 54 52.5 95t114.5 41q67 0 114 -38.5t47 -129.5q0 -92 -57 -132t-142 -40q-112 0 -167.5 56.5t-55.5 181.5zM164 160q0 -32 16 -43t56 -11q38 0 54.5 12
t16.5 42q0 29 -18 41t-58 12q-37 0 -52 -11.5t-15 -41.5z" />
    <glyph glyph-name="seven.dnom" horiz-adv-x="442" 
d="M78 0q0 160 70.5 237.5t221.5 105.5v36h-345v116h392v-234q-115 -31 -157 -89t-42 -172h-140z" />
    <glyph glyph-name="eight.dnom" horiz-adv-x="475" 
d="M25 125q0 99 144 120v23q-21 3 -39.5 9t-38 17.5t-31.5 33t-12 50.5q0 60 47 93.5t143 33.5q95 0 142 -33.5t47 -93.5q0 -29 -12 -50.5t-31.5 -33t-38 -17.5t-38.5 -9v-23q144 -21 144 -120q0 -63 -56 -99t-157 -36t-157 36t-56 99zM187 355q0 -40 51 -40q22 0 33.5 7
t13.5 14.5t2 18.5q0 10 -2 16t-13.5 12t-33.5 6t-34 -5.5t-14.5 -12t-2.5 -16.5zM164 151q0 -25 18.5 -35t55.5 -10q73 0 73 45q0 47 -73 47q-74 0 -74 -47z" />
    <glyph glyph-name="nine.dnom" horiz-adv-x="471" 
d="M446 271q0 -51 -7 -92.5t-26 -81t-50 -64.5t-83 -36t-121 -3l-80 10v116l90 -10q104 -11 143 18t39 94l37 83h-36q-12 -54 -52.5 -95t-114.5 -41q-67 0 -114 38.5t-47 129.5q0 92 57 132t142 40q112 0 167.5 -56.5t55.5 -181.5zM307 339q0 32 -16 43t-56 11
q-38 0 -54.5 -12t-16.5 -42q0 -29 18 -41t58 -12q37 0 52 11.5t15 41.5z" />
    <glyph glyph-name="zero.numr" horiz-adv-x="512" 
d="M256 803q111 0 171 -71.5t60 -185.5q0 -116 -60 -187t-171 -71t-171 71t-60 187q0 114 60 185.5t171 71.5zM256 661q-42 0 -67 -32.5t-25 -82.5q0 -25 6 -46l137 148q-21 13 -51 13zM256 430q91 0 91 116q0 26 -4 45l-137 -145q22 -16 50 -16z" />
    <glyph glyph-name="one.numr" horiz-adv-x="390" 
d="M24 614q47 44 59 68.5t22 102.5h260v-495h-140v366l25 82h-35q-12 -204 -130 -253z" />
    <glyph glyph-name="two.numr" horiz-adv-x="467" 
d="M25 586q0 84 55.5 148.5t167.5 64.5q54 0 93.5 -15.5t60.5 -41.5t31 -54.5t10 -60.5q0 -43 -18 -75.5t-46.5 -53t-75 -35t-93 -22t-110.5 -13.5v-36l83 18h263v-116h-393v213q4 1 31.5 3.5t51 6t56 12t55.5 20t39.5 32t16.5 46.5q0 22 -15.5 39t-51.5 17q-44 0 -58 -24
t-14 -73h-139z" />
    <glyph glyph-name="three.numr" horiz-adv-x="495" 
d="M25 480h139q0 -50 23 -65t69 -15q39 0 56.5 9.5t17.5 40.5q0 27 -15 34.5t-50 7.5h-48v115h48q33 0 45.5 7t12.5 31q0 23 -15.5 30.5t-51.5 7.5q-44 0 -64.5 -11t-20.5 -44h-140q0 81 59 126t166 45q104 0 156 -37t52 -95q0 -28 -9.5 -46.5t-30 -29.5t-38.5 -15.5
t-48 -9.5v-36q72 -14 93 -26q39 -23 39 -74q0 -68 -53.5 -107t-160.5 -39q-110 0 -170.5 49t-60.5 147z" />
    <glyph glyph-name="four.numr" horiz-adv-x="478" 
d="M25 340v292q163 17 184 153h140q-5 -49 -24 -94.5t-53.5 -87t-93 -70.5t-133.5 -39v-36l83 25h118v68h139v-68h68v-143h-68v-50h-139v50h-221z" />
    <glyph glyph-name="five.numr" horiz-adv-x="482" 
d="M25 451h139q0 -25 21.5 -38t51.5 -13q81 0 81 58q0 71 -54 71q-42 0 -77 -55l-153 48v268h399v-116h-260v-84l-19 -49l23 -13q11 53 47.5 85.5t98.5 32.5q70 0 102.5 -49.5t32.5 -123.5q0 -80 -53.5 -134.5t-161.5 -54.5q-105 0 -161.5 42.5t-56.5 124.5z" />
    <glyph glyph-name="six.numr" horiz-adv-x="471" 
d="M25 527q0 51 7 92.5t26 81t50 64.5t83 36t121 3l80 -10v-116l-90 10q-104 11 -143 -18t-39 -94l-37 -83h36q12 54 52.5 95t114.5 41q67 0 114 -38.5t47 -129.5q0 -92 -57 -132t-142 -40q-112 0 -167.5 56.5t-55.5 181.5zM164 459q0 -32 16 -43t56 -11q38 0 54.5 12
t16.5 42q0 29 -18 41t-58 12q-37 0 -52 -11.5t-15 -41.5z" />
    <glyph glyph-name="seven.numr" horiz-adv-x="442" 
d="M78 290q0 160 70.5 237.5t221.5 105.5v36h-345v116h392v-234q-115 -31 -157 -89t-42 -172h-140z" />
    <glyph glyph-name="eight.numr" horiz-adv-x="475" 
d="M25 423q0 99 144 120v23q-21 3 -39.5 9t-38 17.5t-31.5 33t-12 50.5q0 60 47 93.5t143 33.5q95 0 142 -33.5t47 -93.5q0 -29 -12 -50.5t-31.5 -33t-38 -17.5t-38.5 -9v-23q144 -21 144 -120q0 -63 -56 -99t-157 -36t-157 36t-56 99zM187 653q0 -40 51 -40q22 0 33.5 7
t13.5 14.5t2 18.5q0 10 -2 16t-13.5 12t-33.5 6t-34 -5.5t-14.5 -12t-2.5 -16.5zM164 449q0 -25 18.5 -35t55.5 -10q73 0 73 45q0 47 -73 47q-74 0 -74 -47z" />
    <glyph glyph-name="nine.numr" horiz-adv-x="471" 
d="M446 570q0 -51 -7 -92.5t-26 -81t-50 -64.5t-83 -36t-121 -3l-80 10v116l90 -10q104 -11 143 18t39 94l37 83h-36q-12 -54 -52.5 -95t-114.5 -41q-67 0 -114 38.5t-47 129.5q0 92 57 132t142 40q112 0 167.5 -56.5t55.5 -181.5zM307 638q0 32 -16 43t-56 11
q-38 0 -54.5 -12t-16.5 -42q0 -29 18 -41t58 -12q37 0 52 11.5t15 41.5z" />
    <glyph glyph-name="colon.case" horiz-adv-x="371" 
d="M184 406q-56 0 -89 34t-33 84q0 48 33 81.5t89 33.5q55 0 90 -33.5t35 -81.5q0 -49 -35 -83.5t-90 -34.5zM184 56q-56 0 -89 34t-33 84q0 48 33 81.5t89 33.5q55 0 90 -33.5t35 -81.5q0 -49 -35 -83.5t-90 -34.5z" />
    <glyph glyph-name="bullet.case" horiz-adv-x="836" 
d="M414 -1q-163 0 -259.5 99.5t-96.5 245.5q0 142 96.5 240t259.5 98q160 0 262 -99t102 -239q0 -144 -101.5 -244.5t-262.5 -100.5z" />
    <glyph glyph-name="parenleft.case" horiz-adv-x="459" 
d="M395 40v-115q-167 28 -248.5 141t-81.5 287t81.5 286.5t248.5 140.5v-115q-63 -20 -102.5 -50t-58 -73t-24.5 -84.5t-6 -104.5q0 -50 3 -84.5t14.5 -72.5t31.5 -65t55.5 -51t86.5 -40z" />
    <glyph glyph-name="parenright.case" horiz-adv-x="459" 
d="M65 40q62 20 101.5 50t58 73.5t24.5 85t6 104.5t-6 104.5t-24.5 84.5t-58 73t-101.5 50v115q166 -28 248 -140.5t82 -286.5q0 -173 -82 -286.5t-248 -141.5v115z" />
    <glyph glyph-name="braceleft.case" horiz-adv-x="666" 
d="M379 659l-103 36v-46q130 -39 159 -52q63 -31 76 -87q4 -21 4 -45q0 -51 -35 -115q35 -64 35 -115q0 -34 -8.5 -58t-23.5 -40.5t-41.5 -29.5t-56.5 -23t-74 -23q-23 -6 -35 -10v-46l103 36h222v-116h-372v197q34 9 48.5 13t42 13t39.5 17.5t27.5 22t21.5 30.5t6 39v4
q-82 -84 -168 -84q-82 0 -131.5 46t-49.5 127q0 84 45.5 128.5t135.5 44.5q86 0 168 -84v4q0 22 -6 39t-21.5 30.5t-27.5 22t-39.5 17.5t-42 13t-48.5 13v197h372v-116h-222zM270 281q22 0 50 19.5t51 49.5q-23 30 -51 49.5t-50 19.5q-28 0 -47 -17.5t-19 -51.5t19 -51.5
t47 -17.5z" />
    <glyph glyph-name="braceright.case" horiz-adv-x="679" 
d="M433 177q-86 0 -168 84v-4q0 -26 11 -46t24.5 -32.5t43.5 -24.5t48 -17t58 -15v-197h-372v116h222l103 -36v46q-131 39 -160 53q-63 30 -75 88q-4 19 -4 43q0 51 35 115q-35 64 -35 115q0 42 9.5 68.5t44 47t58.5 29.5t94 29q21 7 33 10v46l-103 -36h-222v116h372v-197
q-40 -10 -58 -15t-48 -17t-43.5 -24.5t-24.5 -32.5t-11 -46v-4q82 84 168 84q90 0 135.5 -44.5t45.5 -128.5q0 -81 -49.5 -127t-131.5 -46zM409 419q-22 0 -50 -19.5t-51 -49.5q23 -30 51 -49.5t50 -19.5q28 0 46.5 17.5t18.5 51.5t-18.5 51.5t-46.5 17.5z" />
    <glyph glyph-name="bracketleft.case" horiz-adv-x="473" 
d="M65 780h343v-116h-202v-623h202v-116h-343v855z" />
    <glyph glyph-name="bracketright.case" horiz-adv-x="473" 
d="M408 780v-855h-343v116h202v623h-202v116h343z" />
    <glyph glyph-name="braceleft.ss01" horiz-adv-x="461" 
d="M65 350q51 -2 82 5.5t41.5 24.5t12 24.5t1.5 24.5q0 23 -20.5 46t-62.5 30v200h277v-116h-179l-51 36v-46q37 -14 55.5 -21.5t46 -22.5t40.5 -30t23.5 -38t10.5 -52q0 -66 -46.5 -93t-123.5 -22v-46q77 5 123.5 -22.5t46.5 -93.5q0 -29 -10.5 -52t-23 -37t-41 -29.5
t-45.5 -22.5t-56 -21v-46l51 36h179v-116h-277v200q41 7 62 29t21 45v3q0 15 -2.5 24.5t-13.5 25t-42 22.5t-79 5v146z" />
    <glyph glyph-name="braceright.ss01" horiz-adv-x="461" 
d="M396 350v-146q-48 2 -79 -5t-42 -22.5t-13.5 -25t-2.5 -24.5v-3q0 -23 21 -45t62 -29v-200h-277v116h179l51 -36v46q-39 14 -56 21t-45.5 22.5t-41 29.5t-23 37t-10.5 52q0 66 46.5 93.5t123.5 22.5v46q-77 -5 -123.5 22t-46.5 93q0 29 10.5 52t23.5 38t40.5 30t46 22.5
t55.5 21.5v46l-51 -36h-179v116h277v-200q-42 -7 -62.5 -30t-20.5 -46v-3q0 -15 2.5 -24.5t13.5 -24.5t42 -22t79 -5z" />
    <glyph glyph-name="braceleft.case.ss01" horiz-adv-x="461" 
d="M65 425q51 -2 82 5.5t41.5 24.5t12 24.5t1.5 24.5q0 23 -20.5 46t-62.5 30v200h277v-116h-179l-51 36v-46q37 -14 55.5 -21.5t46 -22.5t40.5 -30t23.5 -38t10.5 -52q0 -66 -46.5 -93t-123.5 -22v-46q77 5 123.5 -22.5t46.5 -93.5q0 -29 -10.5 -52t-23 -37t-41 -29.5
t-45.5 -22.5t-56 -21v-46l51 36h179v-116h-277v200q41 7 62 29t21 45v3q0 15 -2.5 24.5t-13.5 25t-42 22.5t-79 5v146z" />
    <glyph glyph-name="braceright.case.ss01" horiz-adv-x="461" 
d="M396 425v-146q-134 6 -137 -67v-10v-3q0 -23 21 -45t62 -29v-200h-277v116h179l51 -36v46q-39 14 -56 21t-45.5 22.5t-41 29.5t-23 37t-10.5 52q0 66 46.5 93.5t123.5 22.5v46q-77 -5 -123.5 22t-46.5 93q0 29 10.5 52t23.5 38t40.5 30t46 22.5t55.5 21.5v46l-51 -36
h-179v116h277v-200q-42 -7 -62.5 -30t-20.5 -46v-3q0 -15 2.5 -24.5t13.5 -24.5t42 -22t79 -5z" />
    <glyph glyph-name="hyphen.case" horiz-adv-x="695" 
d="M65 424h565v-142h-565v142z" />
    <glyph glyph-name="endash.case" horiz-adv-x="908" 
d="M65 424h778v-142h-778v142z" />
    <glyph glyph-name="emdash.case" horiz-adv-x="1108" 
d="M65 424h978v-142h-978v142z" />
    <glyph glyph-name="guillemotleft.case" horiz-adv-x="905" 
d="M502 112l-103 -94l-334 335l334 334l103 -94l-238 -240zM840 112l-103 -94l-334 335l334 334l103 -94l-238 -240z" />
    <glyph glyph-name="guillemotright.case" horiz-adv-x="932" 
d="M91 112l239 241l-239 240l104 94l334 -334l-334 -335zM429 112l239 241l-239 240l104 94l334 -334l-334 -335z" />
    <glyph glyph-name="guilsinglleft.case" horiz-adv-x="567" 
d="M502 112l-103 -94l-334 335l334 334l103 -94l-238 -240z" />
    <glyph glyph-name="guilsinglright.case" horiz-adv-x="594" 
d="M91 112l239 241l-239 240l104 94l334 -334l-334 -335z" />
    <glyph glyph-name="ampersand.ss01" horiz-adv-x="1022" 
d="M958 522q0 -214 -159 -363q52 -30 158 -90l-104 -140q-55 31 -212 124q-131 -63 -271 -63q-147 0 -226 53t-79 154q0 73 41.5 116t115.5 71q-42 64 -42 124q0 104 74.5 155.5t203.5 51.5q112 0 185 -56t73 -128q0 -76 -35.5 -115t-152.5 -85q52 -39 117 -78
q122 100 122 269h191zM447 547q-40 0 -58 -8.5t-18 -30.5q0 -31 32 -69q80 26 100.5 38.5t20.5 31.5q0 18 -23 28t-54 10zM370 158q46 0 90 10q-72 48 -123 92q-47 -20 -64 -32.5t-17 -24.5q0 -45 114 -45z" />
    <glyph glyph-name="brevecombcy" horiz-adv-x="0" 
d="M-65 762q0 -40 -9.5 -75.5t-30.5 -66.5t-60.5 -49.5t-93.5 -18.5t-93 18.5t-60 49.5t-30.5 66.5t-9.5 75.5h141q0 -48 13.5 -64.5t38.5 -16.5t39 16.5t14 64.5h141z" />
    </font>
</defs>
</svg>
